G04*
G04 #@! TF.GenerationSoftware,Altium Limited,Altium Designer,20.1.10 (176)*
G04*
G04 Layer_Physical_Order=1*
G04 Layer_Color=255*
%FSLAX25Y25*%
%MOIN*%
G70*
G04*
G04 #@! TF.SameCoordinates,3FE8EB72-B5E6-4F20-A0E2-AFB057232DD4*
G04*
G04*
G04 #@! TF.FilePolarity,Positive*
G04*
G01*
G75*
%ADD10C,0.01000*%
%ADD15R,0.07480X0.09449*%
%ADD16R,0.05906X0.01968*%
%ADD17O,0.05906X0.01968*%
%ADD18R,0.03200X0.03000*%
%ADD19R,0.03543X0.01575*%
%ADD20R,0.07087X0.05315*%
%ADD32C,0.01500*%
%ADD33C,0.06653*%
%ADD34C,0.19000*%
%ADD35C,0.12598*%
%ADD36C,0.05512*%
%ADD37C,0.29528*%
%ADD38C,0.02400*%
G36*
X263931Y210461D02*
X266559Y210035D01*
X269109Y209271D01*
X271537Y208180D01*
X273802Y206781D01*
X275866Y205099D01*
X277692Y203161D01*
X279249Y201002D01*
X280511Y198658D01*
X281457Y196170D01*
X282070Y193579D01*
X282339Y190930D01*
X282300Y189600D01*
X282300D01*
X282300Y189106D01*
X282300Y22800D01*
X282300Y22800D01*
X282402Y21407D01*
X282239Y18619D01*
X281715Y15876D01*
X280837Y13224D01*
X279620Y10710D01*
X278085Y8377D01*
X276259Y6263D01*
X274173Y4406D01*
X271862Y2838D01*
X269366Y1584D01*
X266728Y667D01*
X263993Y102D01*
X262600Y-0D01*
Y-0D01*
X19600Y0D01*
X18266Y49D01*
X15634Y495D01*
X13083Y1280D01*
X10656Y2392D01*
X8395Y3811D01*
X6338Y5513D01*
X4522Y7469D01*
X2976Y9645D01*
X1727Y12004D01*
X797Y14506D01*
X201Y17109D01*
X-49Y19766D01*
X-0Y21100D01*
X-0D01*
X-0Y189200D01*
X0D01*
X-52Y190544D01*
X194Y193222D01*
X789Y195844D01*
X1720Y198367D01*
X2973Y200747D01*
X4526Y202943D01*
X6352Y204917D01*
X8420Y206636D01*
X10695Y208071D01*
X13137Y209196D01*
X15706Y209993D01*
X18356Y210448D01*
X19208Y210481D01*
X19700Y210500D01*
X19700Y210500D01*
X19700Y210500D01*
X262600D01*
X262600Y210500D01*
X262600Y210500D01*
X263931Y210461D01*
D02*
G37*
%LPC*%
G36*
X260700Y206612D02*
X258226Y206418D01*
X255814Y205839D01*
X253521Y204889D01*
X251406Y203593D01*
X249519Y201981D01*
X247907Y200094D01*
X246611Y197979D01*
X245661Y195686D01*
X245082Y193274D01*
X244887Y190800D01*
X245082Y188326D01*
X245661Y185914D01*
X246611Y183621D01*
X247907Y181506D01*
X249519Y179619D01*
X251406Y178007D01*
X253521Y176711D01*
X255814Y175761D01*
X258226Y175182D01*
X260700Y174987D01*
X263174Y175182D01*
X265586Y175761D01*
X267879Y176711D01*
X269994Y178007D01*
X271881Y179619D01*
X273493Y181506D01*
X274789Y183621D01*
X275739Y185914D01*
X276318Y188326D01*
X276513Y190800D01*
X276318Y193274D01*
X275739Y195686D01*
X274789Y197979D01*
X273493Y200094D01*
X271881Y201981D01*
X269994Y203593D01*
X267879Y204889D01*
X265586Y205839D01*
X263174Y206418D01*
X260700Y206612D01*
D02*
G37*
G36*
X20200D02*
X17726Y206418D01*
X15314Y205839D01*
X13021Y204889D01*
X10906Y203593D01*
X9019Y201981D01*
X7407Y200094D01*
X6111Y197979D01*
X5161Y195686D01*
X4582Y193274D01*
X4388Y190800D01*
X4582Y188326D01*
X5161Y185914D01*
X6111Y183621D01*
X7407Y181506D01*
X9019Y179619D01*
X10906Y178007D01*
X13021Y176711D01*
X15314Y175761D01*
X17726Y175182D01*
X20200Y174987D01*
X22674Y175182D01*
X25086Y175761D01*
X27379Y176711D01*
X29494Y178007D01*
X31381Y179619D01*
X32993Y181506D01*
X34289Y183621D01*
X35239Y185914D01*
X35818Y188326D01*
X36013Y190800D01*
X35818Y193274D01*
X35239Y195686D01*
X34289Y197979D01*
X32993Y200094D01*
X31381Y201981D01*
X29494Y203593D01*
X27379Y204889D01*
X25086Y205839D01*
X22674Y206418D01*
X20200Y206612D01*
D02*
G37*
G36*
X129597Y160196D02*
X127497D01*
Y158196D01*
X129597D01*
Y160196D01*
D02*
G37*
G36*
X126497D02*
X124397D01*
Y158196D01*
X126497D01*
Y160196D01*
D02*
G37*
G36*
X129597Y157196D02*
X127497D01*
Y155196D01*
X129597D01*
Y157196D01*
D02*
G37*
G36*
X126497D02*
X124397D01*
Y155196D01*
X126497D01*
Y157196D01*
D02*
G37*
G36*
X75797Y160196D02*
X70597D01*
Y159226D01*
X57297D01*
X56712Y159109D01*
X56216Y158778D01*
X52316Y154878D01*
X51984Y154382D01*
X51868Y153796D01*
Y94648D01*
X51406Y94457D01*
X44482Y101381D01*
X43985Y101713D01*
X43400Y101829D01*
X42104D01*
X42072Y101823D01*
X36492D01*
X36322Y102323D01*
X36774Y102670D01*
X37468Y103574D01*
X37904Y104627D01*
X38052Y105756D01*
X37904Y106886D01*
X37468Y107938D01*
X36774Y108842D01*
X35870Y109536D01*
X34818Y109972D01*
X33688Y110120D01*
X32559Y109972D01*
X31506Y109536D01*
X30602Y108842D01*
X29909Y107938D01*
X29473Y106886D01*
X29324Y105756D01*
X29473Y104627D01*
X29909Y103574D01*
X30602Y102670D01*
X31055Y102323D01*
X30885Y101823D01*
X26560D01*
X26286Y102485D01*
X25592Y103389D01*
X24688Y104083D01*
X23636Y104519D01*
X22506Y104667D01*
X21377Y104519D01*
X20324Y104083D01*
X19421Y103389D01*
X18727Y102485D01*
X18291Y101433D01*
X18142Y100303D01*
X18291Y99174D01*
X18727Y98121D01*
X19421Y97217D01*
X20324Y96524D01*
X21377Y96088D01*
X22506Y95939D01*
X23636Y96088D01*
X24688Y96524D01*
X25592Y97217D01*
X26286Y98121D01*
X26552Y98764D01*
X30861D01*
X31030Y98264D01*
X30602Y97936D01*
X29909Y97032D01*
X29473Y95980D01*
X29324Y94850D01*
X29473Y93721D01*
X29909Y92668D01*
X30602Y91764D01*
X31044Y91426D01*
X30874Y90926D01*
X26557D01*
X26286Y91579D01*
X25592Y92483D01*
X24688Y93177D01*
X23636Y93613D01*
X22506Y93761D01*
X21377Y93613D01*
X20324Y93177D01*
X19421Y92483D01*
X18727Y91579D01*
X18291Y90527D01*
X18142Y89397D01*
X18291Y88268D01*
X18727Y87215D01*
X19421Y86311D01*
X20324Y85618D01*
X21377Y85182D01*
X22506Y85033D01*
X23636Y85182D01*
X24688Y85618D01*
X25592Y86311D01*
X26286Y87215D01*
X26556Y87867D01*
X30870D01*
X31040Y87367D01*
X30602Y87031D01*
X29909Y86127D01*
X29473Y85075D01*
X29324Y83945D01*
X29473Y82816D01*
X29909Y81763D01*
X30602Y80859D01*
X31506Y80166D01*
X32559Y79730D01*
X33688Y79581D01*
X34818Y79730D01*
X35870Y80166D01*
X36774Y80859D01*
X37468Y81763D01*
X37904Y82816D01*
X38052Y83945D01*
X37904Y85075D01*
X37468Y86127D01*
X36774Y87031D01*
X36337Y87367D01*
X36506Y87867D01*
X42764D01*
X46968Y83663D01*
Y66600D01*
X47084Y66015D01*
X47416Y65519D01*
X52220Y60715D01*
X52716Y60383D01*
X53301Y60267D01*
X80997D01*
X81583Y60383D01*
X82079Y60715D01*
X88279Y66915D01*
X88610Y67411D01*
X88727Y67996D01*
Y86863D01*
X90531Y88667D01*
X92038D01*
X92546Y88327D01*
X93320Y88173D01*
X97257D01*
X98031Y88327D01*
X98688Y88766D01*
X99126Y89422D01*
X99280Y90196D01*
X99126Y90970D01*
X98688Y91627D01*
X98031Y92065D01*
X97257Y92219D01*
X93320D01*
X92546Y92065D01*
X92038Y91726D01*
X89897D01*
X89312Y91609D01*
X88816Y91278D01*
X86589Y89050D01*
X86127Y89242D01*
Y90363D01*
X89431Y93667D01*
X92038D01*
X92546Y93327D01*
X93320Y93173D01*
X97257D01*
X98031Y93327D01*
X98688Y93766D01*
X99126Y94422D01*
X99280Y95196D01*
X99126Y95970D01*
X98688Y96627D01*
X98031Y97065D01*
X97257Y97219D01*
X93320D01*
X92546Y97065D01*
X92038Y96726D01*
X88797D01*
X88212Y96609D01*
X87716Y96278D01*
X83516Y92078D01*
X83184Y91581D01*
X83068Y90996D01*
Y70531D01*
X78763Y66226D01*
X55637D01*
X52776Y69087D01*
Y90401D01*
X53238Y90593D01*
X59716Y84115D01*
X60212Y83783D01*
X60797Y83667D01*
X72746D01*
X73255Y83327D01*
X74029Y83173D01*
X77966D01*
X78740Y83327D01*
X79396Y83766D01*
X79835Y84422D01*
X79989Y85196D01*
X79835Y85970D01*
X79396Y86627D01*
X78740Y87065D01*
X77966Y87219D01*
X74029D01*
X73255Y87065D01*
X72746Y86726D01*
X61431D01*
X54927Y93230D01*
Y153163D01*
X57931Y156167D01*
X70597D01*
Y155196D01*
X75797D01*
Y160196D01*
D02*
G37*
G36*
X127097Y150940D02*
Y149296D01*
X128741D01*
X128670Y149655D01*
X128183Y150382D01*
X127456Y150869D01*
X127097Y150940D01*
D02*
G37*
G36*
X126097D02*
X125739Y150869D01*
X125011Y150382D01*
X124525Y149655D01*
X124454Y149296D01*
X126097D01*
Y150940D01*
D02*
G37*
G36*
X128741Y148296D02*
X127097D01*
Y146653D01*
X127456Y146724D01*
X128183Y147210D01*
X128670Y147938D01*
X128741Y148296D01*
D02*
G37*
G36*
X126097D02*
X124454D01*
X124525Y147938D01*
X125011Y147210D01*
X125739Y146724D01*
X126097Y146653D01*
Y148296D01*
D02*
G37*
G36*
X127097Y140740D02*
Y139096D01*
X128741D01*
X128670Y139455D01*
X128183Y140182D01*
X127456Y140669D01*
X127097Y140740D01*
D02*
G37*
G36*
X126097D02*
X125739Y140669D01*
X125011Y140182D01*
X124525Y139455D01*
X124454Y139096D01*
X126097D01*
Y140740D01*
D02*
G37*
G36*
X28097Y160029D02*
X26450Y159899D01*
X24843Y159513D01*
X23316Y158881D01*
X21906Y158017D01*
X20650Y156944D01*
X19576Y155687D01*
X18713Y154278D01*
X18080Y152751D01*
X17695Y151144D01*
X17565Y149496D01*
X17695Y147849D01*
X18080Y146241D01*
X18713Y144715D01*
X19576Y143305D01*
X20650Y142049D01*
X21906Y140975D01*
X23316Y140112D01*
X24843Y139479D01*
X26450Y139093D01*
X28097Y138964D01*
X29745Y139093D01*
X31352Y139479D01*
X32879Y140112D01*
X34288Y140975D01*
X35545Y142049D01*
X36618Y143305D01*
X37482Y144715D01*
X38114Y146241D01*
X38500Y147849D01*
X38630Y149496D01*
X38500Y151144D01*
X38114Y152751D01*
X37482Y154278D01*
X36618Y155687D01*
X35545Y156944D01*
X34288Y158017D01*
X32879Y158881D01*
X31352Y159513D01*
X29745Y159899D01*
X28097Y160029D01*
D02*
G37*
G36*
X128741Y138096D02*
X127097D01*
Y136453D01*
X127456Y136524D01*
X128183Y137010D01*
X128670Y137738D01*
X128741Y138096D01*
D02*
G37*
G36*
X126097D02*
X124454D01*
X124525Y137738D01*
X125011Y137010D01*
X125739Y136524D01*
X126097Y136453D01*
Y138096D01*
D02*
G37*
G36*
X216597Y137240D02*
Y135596D01*
X218241D01*
X218170Y135955D01*
X217684Y136682D01*
X216956Y137169D01*
X216597Y137240D01*
D02*
G37*
G36*
X215597D02*
X215239Y137169D01*
X214511Y136682D01*
X214025Y135955D01*
X213954Y135596D01*
X215597D01*
Y137240D01*
D02*
G37*
G36*
X207897Y137296D02*
X205797D01*
Y135296D01*
X207897D01*
Y137296D01*
D02*
G37*
G36*
X204797D02*
X202697D01*
Y135296D01*
X204797D01*
Y137296D01*
D02*
G37*
G36*
X218241Y134596D02*
X216597D01*
Y132953D01*
X216956Y133024D01*
X217684Y133510D01*
X218170Y134238D01*
X218241Y134596D01*
D02*
G37*
G36*
X215597D02*
X213954D01*
X214025Y134238D01*
X214511Y133510D01*
X215239Y133024D01*
X215597Y132953D01*
Y134596D01*
D02*
G37*
G36*
X207897Y134296D02*
X205797D01*
Y132296D01*
X207897D01*
Y134296D01*
D02*
G37*
G36*
X204797D02*
X202697D01*
Y132296D01*
X204797D01*
Y134296D01*
D02*
G37*
G36*
X108697Y133496D02*
X106597D01*
Y131496D01*
X108697D01*
Y133496D01*
D02*
G37*
G36*
X129597D02*
X127497D01*
Y131496D01*
X129597D01*
Y133496D01*
D02*
G37*
G36*
X126497D02*
X124397D01*
Y131496D01*
X126497D01*
Y133496D01*
D02*
G37*
G36*
X105597D02*
X103497D01*
Y131496D01*
X105597D01*
Y133496D01*
D02*
G37*
G36*
X82797Y133296D02*
X80697D01*
Y131296D01*
X82797D01*
Y133296D01*
D02*
G37*
G36*
X117597Y132940D02*
Y131296D01*
X119241D01*
X119170Y131655D01*
X118684Y132382D01*
X117956Y132869D01*
X117597Y132940D01*
D02*
G37*
G36*
X116597D02*
X116239Y132869D01*
X115511Y132382D01*
X115025Y131655D01*
X114954Y131296D01*
X116597D01*
Y132940D01*
D02*
G37*
G36*
X79697Y133296D02*
X77597D01*
Y131296D01*
X79697D01*
Y133296D01*
D02*
G37*
G36*
X216597Y131240D02*
Y129596D01*
X218241D01*
X218170Y129955D01*
X217684Y130682D01*
X216956Y131169D01*
X216597Y131240D01*
D02*
G37*
G36*
X215597D02*
X215239Y131169D01*
X214511Y130682D01*
X214025Y129955D01*
X213954Y129596D01*
X215597D01*
Y131240D01*
D02*
G37*
G36*
X119241Y130296D02*
X117597D01*
Y128653D01*
X117956Y128724D01*
X118684Y129210D01*
X119170Y129938D01*
X119241Y130296D01*
D02*
G37*
G36*
X116597D02*
X114954D01*
X115025Y129938D01*
X115511Y129210D01*
X116239Y128724D01*
X116597Y128653D01*
Y130296D01*
D02*
G37*
G36*
X129597Y130496D02*
X127497D01*
Y128496D01*
X129597D01*
Y130496D01*
D02*
G37*
G36*
X126497D02*
X124397D01*
Y128496D01*
X126497D01*
Y130496D01*
D02*
G37*
G36*
X108697D02*
X106597D01*
Y128496D01*
X108697D01*
Y130496D01*
D02*
G37*
G36*
X105597D02*
X103497D01*
Y128496D01*
X105597D01*
Y130496D01*
D02*
G37*
G36*
X82797Y130296D02*
X80697D01*
Y128296D01*
X82797D01*
Y130296D01*
D02*
G37*
G36*
X79697D02*
X77597D01*
Y128296D01*
X79697D01*
Y130296D01*
D02*
G37*
G36*
X218241Y128596D02*
X216597D01*
Y126953D01*
X216956Y127024D01*
X217684Y127510D01*
X218170Y128238D01*
X218241Y128596D01*
D02*
G37*
G36*
X215597D02*
X213954D01*
X214025Y128238D01*
X214511Y127510D01*
X215239Y127024D01*
X215597Y126953D01*
Y128596D01*
D02*
G37*
G36*
X79797Y125940D02*
Y124296D01*
X81441D01*
X81370Y124655D01*
X80884Y125382D01*
X80156Y125869D01*
X79797Y125940D01*
D02*
G37*
G36*
X78797D02*
X78439Y125869D01*
X77711Y125382D01*
X77225Y124655D01*
X77154Y124296D01*
X78797D01*
Y125940D01*
D02*
G37*
G36*
X67997D02*
Y124296D01*
X69641D01*
X69570Y124655D01*
X69083Y125382D01*
X68356Y125869D01*
X67997Y125940D01*
D02*
G37*
G36*
X66997D02*
X66639Y125869D01*
X65911Y125382D01*
X65425Y124655D01*
X65354Y124296D01*
X66997D01*
Y125940D01*
D02*
G37*
G36*
X103397Y160196D02*
X98197D01*
Y159226D01*
X95397D01*
X94812Y159109D01*
X94316Y158778D01*
X91516Y155978D01*
X91184Y155482D01*
X91068Y154896D01*
Y124430D01*
X90487Y123849D01*
X90027Y124095D01*
X90027Y124096D01*
Y154796D01*
X89910Y155382D01*
X89579Y155878D01*
X86679Y158778D01*
X86183Y159109D01*
X85597Y159226D01*
X81697D01*
Y160196D01*
X76497D01*
Y155196D01*
X81697D01*
Y156167D01*
X84964D01*
X86968Y154163D01*
Y124730D01*
X82164Y119926D01*
X67297D01*
X66712Y119809D01*
X66216Y119478D01*
X61116Y114378D01*
X60784Y113882D01*
X60668Y113296D01*
Y109763D01*
X60168Y109523D01*
X60027Y109635D01*
Y125863D01*
X63431Y129267D01*
X71697D01*
Y128296D01*
X76897D01*
Y133296D01*
X71697D01*
Y132326D01*
X62797D01*
X62212Y132209D01*
X61716Y131878D01*
X57416Y127578D01*
X57084Y127082D01*
X56968Y126496D01*
Y109320D01*
X56911Y109282D01*
X56425Y108555D01*
X56254Y107696D01*
X56425Y106838D01*
X56911Y106110D01*
X57639Y105624D01*
X58497Y105453D01*
X59356Y105624D01*
X60084Y106110D01*
X60168Y106237D01*
X60668Y106085D01*
Y94696D01*
X60784Y94111D01*
X61116Y93615D01*
X65616Y89115D01*
X66112Y88783D01*
X66697Y88667D01*
X72746D01*
X73255Y88327D01*
X74029Y88173D01*
X77966D01*
X78740Y88327D01*
X79396Y88766D01*
X79835Y89422D01*
X79989Y90196D01*
X79835Y90970D01*
X79396Y91627D01*
X78740Y92065D01*
X77966Y92219D01*
X74029D01*
X73255Y92065D01*
X72746Y91726D01*
X67331D01*
X63727Y95330D01*
Y105232D01*
X64227Y105384D01*
X64416Y105101D01*
X65402Y104115D01*
X65898Y103783D01*
X66483Y103667D01*
X72045D01*
Y103212D01*
X79950D01*
Y107180D01*
X72045D01*
Y106726D01*
X67117D01*
X67027Y106816D01*
Y110763D01*
X69931Y113667D01*
X83997D01*
X84583Y113783D01*
X85079Y114115D01*
X93679Y122715D01*
X94010Y123211D01*
X94127Y123796D01*
Y154263D01*
X96031Y156167D01*
X98197D01*
Y155196D01*
X103397D01*
Y160196D01*
D02*
G37*
G36*
X237197Y138031D02*
X235767Y137890D01*
X234391Y137472D01*
X233122Y136795D01*
X232011Y135882D01*
X231099Y134771D01*
X230421Y133503D01*
X230004Y132127D01*
X229863Y130696D01*
X230004Y129265D01*
X230421Y127889D01*
X231099Y126621D01*
X232011Y125510D01*
X233122Y124598D01*
X234391Y123920D01*
X235767Y123503D01*
X237197Y123362D01*
X238628Y123503D01*
X240004Y123920D01*
X241272Y124598D01*
X242384Y125510D01*
X243296Y126621D01*
X243974Y127889D01*
X244391Y129265D01*
X244532Y130696D01*
X244391Y132127D01*
X243974Y133503D01*
X243296Y134771D01*
X242384Y135882D01*
X241272Y136795D01*
X240004Y137472D01*
X238628Y137890D01*
X237197Y138031D01*
D02*
G37*
G36*
X23006Y126412D02*
Y122614D01*
X26805D01*
X26722Y123244D01*
X26286Y124296D01*
X25592Y125200D01*
X24688Y125894D01*
X23636Y126330D01*
X23006Y126412D01*
D02*
G37*
G36*
X22006Y126412D02*
X21377Y126330D01*
X20324Y125894D01*
X19421Y125200D01*
X18727Y124296D01*
X18291Y123244D01*
X18208Y122614D01*
X22006D01*
Y126412D01*
D02*
G37*
G36*
X81441Y123296D02*
X79797D01*
Y121653D01*
X80156Y121724D01*
X80884Y122210D01*
X81370Y122938D01*
X81441Y123296D01*
D02*
G37*
G36*
X78797D02*
X77154D01*
X77225Y122938D01*
X77711Y122210D01*
X78439Y121724D01*
X78797Y121653D01*
Y123296D01*
D02*
G37*
G36*
X69641D02*
X67997D01*
Y121653D01*
X68356Y121724D01*
X69083Y122210D01*
X69570Y122938D01*
X69641Y123296D01*
D02*
G37*
G36*
X66997D02*
X65354D01*
X65425Y122938D01*
X65911Y122210D01*
X66639Y121724D01*
X66997Y121653D01*
Y123296D01*
D02*
G37*
G36*
X213541Y124754D02*
X209497D01*
Y121596D01*
X213541D01*
Y124754D01*
D02*
G37*
G36*
X208497D02*
X204454D01*
Y121596D01*
X208497D01*
Y124754D01*
D02*
G37*
G36*
X226997Y122359D02*
Y119136D01*
X230220D01*
X230157Y119617D01*
X229778Y120530D01*
X229176Y121315D01*
X228392Y121917D01*
X227478Y122295D01*
X226997Y122359D01*
D02*
G37*
G36*
X225997D02*
X225517Y122295D01*
X224603Y121917D01*
X223819Y121315D01*
X223217Y120530D01*
X222838Y119617D01*
X222775Y119136D01*
X225997D01*
Y122359D01*
D02*
G37*
G36*
X26805Y121614D02*
X23006D01*
Y117816D01*
X23636Y117899D01*
X24688Y118335D01*
X25592Y119028D01*
X26286Y119932D01*
X26722Y120985D01*
X26805Y121614D01*
D02*
G37*
G36*
X22006D02*
X18208D01*
X18291Y120985D01*
X18727Y119932D01*
X19421Y119028D01*
X20324Y118335D01*
X21377Y117899D01*
X22006Y117816D01*
Y121614D01*
D02*
G37*
G36*
X149197Y119140D02*
Y117496D01*
X150841D01*
X150770Y117855D01*
X150284Y118582D01*
X149556Y119069D01*
X149197Y119140D01*
D02*
G37*
G36*
X148197D02*
X147839Y119069D01*
X147111Y118582D01*
X146625Y117855D01*
X146554Y117496D01*
X148197D01*
Y119140D01*
D02*
G37*
G36*
X136097D02*
Y117496D01*
X137741D01*
X137670Y117855D01*
X137183Y118582D01*
X136456Y119069D01*
X136097Y119140D01*
D02*
G37*
G36*
X135097D02*
X134739Y119069D01*
X134011Y118582D01*
X133525Y117855D01*
X133454Y117496D01*
X135097D01*
Y119140D01*
D02*
G37*
G36*
X127097D02*
Y117496D01*
X128741D01*
X128670Y117855D01*
X128183Y118582D01*
X127456Y119069D01*
X127097Y119140D01*
D02*
G37*
G36*
X126097D02*
X125739Y119069D01*
X125011Y118582D01*
X124525Y117855D01*
X124454Y117496D01*
X126097D01*
Y119140D01*
D02*
G37*
G36*
X117597D02*
Y117496D01*
X119241D01*
X119170Y117855D01*
X118684Y118582D01*
X117956Y119069D01*
X117597Y119140D01*
D02*
G37*
G36*
X116597D02*
X116239Y119069D01*
X115511Y118582D01*
X115025Y117855D01*
X114954Y117496D01*
X116597D01*
Y119140D01*
D02*
G37*
G36*
X213541Y120596D02*
X209497D01*
Y117439D01*
X213541D01*
Y120596D01*
D02*
G37*
G36*
X208497D02*
X204454D01*
Y117439D01*
X208497D01*
Y120596D01*
D02*
G37*
G36*
X135497Y160196D02*
X130297D01*
Y155196D01*
X135497D01*
Y156167D01*
X137564D01*
X139068Y154663D01*
Y138696D01*
X139184Y138111D01*
X139516Y137615D01*
X143616Y133515D01*
X144112Y133183D01*
X144697Y133067D01*
X196797D01*
Y132296D01*
X197868D01*
Y124754D01*
X194139D01*
Y122626D01*
X190297D01*
X189712Y122509D01*
X189216Y122178D01*
X185516Y118478D01*
X185184Y117982D01*
X185068Y117396D01*
Y114826D01*
X178297D01*
X177712Y114709D01*
X177216Y114378D01*
X174007Y111169D01*
X173676Y110673D01*
X173559Y110088D01*
Y107219D01*
X173120D01*
X172346Y107065D01*
X171690Y106627D01*
X171251Y105970D01*
X171097Y105196D01*
X171251Y104422D01*
X171690Y103766D01*
X172346Y103327D01*
X173120Y103173D01*
X177057D01*
X177831Y103327D01*
X178340Y103667D01*
X181064D01*
X182168Y102563D01*
Y70068D01*
X181825Y69555D01*
X181654Y68696D01*
X181825Y67838D01*
X182311Y67110D01*
X183039Y66624D01*
X183897Y66453D01*
X184756Y66624D01*
X185484Y67110D01*
X185970Y67838D01*
X186141Y68696D01*
X185970Y69555D01*
X185484Y70282D01*
X185227Y70454D01*
Y103196D01*
X185110Y103781D01*
X184779Y104278D01*
X182779Y106278D01*
X182283Y106609D01*
X181697Y106726D01*
X178340D01*
X177831Y107065D01*
X177057Y107219D01*
X176618D01*
Y109454D01*
X178931Y111767D01*
X185068D01*
Y107996D01*
X185184Y107411D01*
X185516Y106915D01*
X188616Y103815D01*
X189112Y103483D01*
X189697Y103367D01*
X193929D01*
X194114Y102943D01*
X194114Y102609D01*
Y99369D01*
X195101D01*
Y75408D01*
X195213Y74846D01*
Y67335D01*
X190058Y62181D01*
X153487D01*
X153056Y62469D01*
X152197Y62639D01*
X151339Y62469D01*
X150611Y61982D01*
X150125Y61255D01*
X149954Y60396D01*
X150125Y59538D01*
X150611Y58810D01*
X151339Y58324D01*
X152197Y58153D01*
X153056Y58324D01*
X153487Y58612D01*
X190797D01*
X191480Y58748D01*
X192059Y59135D01*
X198259Y65334D01*
X198259Y65334D01*
X198646Y65913D01*
X198782Y66596D01*
Y75296D01*
X198670Y75858D01*
Y99369D01*
X199657D01*
Y102609D01*
X199657Y102943D01*
X199802Y103275D01*
X200304Y103327D01*
X201868Y101763D01*
Y94896D01*
X201984Y94311D01*
X202316Y93815D01*
X206136Y89995D01*
X206632Y89663D01*
X207217Y89547D01*
X223065D01*
X223217Y89182D01*
X223819Y88398D01*
X224603Y87795D01*
X225517Y87417D01*
X226497Y87288D01*
X227478Y87417D01*
X228392Y87795D01*
X229176Y88398D01*
X229778Y89182D01*
X230157Y90096D01*
X230286Y91076D01*
X230157Y92057D01*
X229778Y92970D01*
X229176Y93755D01*
X228392Y94357D01*
X227478Y94735D01*
X226497Y94864D01*
X225517Y94735D01*
X224603Y94357D01*
X223819Y93755D01*
X223217Y92970D01*
X223065Y92606D01*
X207851D01*
X204927Y95530D01*
Y98956D01*
X205137Y99369D01*
X205427Y99369D01*
X207774D01*
X207947Y99334D01*
X223087D01*
X223217Y99022D01*
X223819Y98238D01*
X224603Y97635D01*
X225517Y97257D01*
X226497Y97128D01*
X227478Y97257D01*
X228392Y97635D01*
X229176Y98238D01*
X229778Y99022D01*
X230157Y99936D01*
X230286Y100916D01*
X230157Y101897D01*
X229778Y102810D01*
X229176Y103595D01*
X228392Y104197D01*
X227478Y104575D01*
X227260Y104604D01*
Y105108D01*
X227478Y105137D01*
X228392Y105515D01*
X229176Y106117D01*
X229778Y106902D01*
X230157Y107816D01*
X230286Y108796D01*
X230157Y109777D01*
X229778Y110690D01*
X229176Y111475D01*
X228392Y112077D01*
X227478Y112455D01*
X226497Y112584D01*
X225517Y112455D01*
X224603Y112077D01*
X223819Y111475D01*
X223217Y110690D01*
X223120Y110458D01*
X209054D01*
X209005Y110958D01*
X209257Y111008D01*
X209756Y111107D01*
X210484Y111594D01*
X210970Y112321D01*
X211041Y112680D01*
X206754D01*
X206825Y112321D01*
X207311Y111594D01*
X208039Y111107D01*
X208537Y111008D01*
X208790Y110958D01*
X208741Y110458D01*
X207947D01*
X207774Y110424D01*
X205137D01*
Y107184D01*
X205137Y106849D01*
X205137Y106349D01*
Y105396D01*
X207909D01*
Y104396D01*
X205137D01*
Y103392D01*
X204638Y103240D01*
X204479Y103478D01*
X201979Y105978D01*
X201483Y106309D01*
X200897Y106426D01*
X199842D01*
X199657Y106849D01*
X199657Y106849D01*
X199657D01*
X199657Y106849D01*
Y110424D01*
X194114D01*
Y110421D01*
X193127D01*
X192756Y110669D01*
X191897Y110839D01*
X191039Y110669D01*
X190311Y110182D01*
X189825Y109455D01*
X189654Y108596D01*
X189825Y107738D01*
X190025Y107439D01*
X189637Y107120D01*
X188127Y108630D01*
Y112696D01*
Y116763D01*
X190931Y119567D01*
X194139D01*
Y117439D01*
X203226D01*
Y124754D01*
X200927D01*
Y132296D01*
X201997D01*
Y137296D01*
X196797D01*
Y136126D01*
X145331D01*
X142127Y139330D01*
Y155296D01*
X142010Y155882D01*
X141679Y156378D01*
X139279Y158778D01*
X138783Y159109D01*
X138197Y159226D01*
X135497D01*
Y160196D01*
D02*
G37*
G36*
X109297D02*
X104097D01*
Y155196D01*
X109297D01*
Y155380D01*
X109759Y155571D01*
X110968Y154363D01*
Y123830D01*
X102664Y115526D01*
X94597D01*
X94390Y116026D01*
X101279Y122915D01*
X101610Y123411D01*
X101727Y123996D01*
Y128496D01*
X102797D01*
Y133496D01*
X97597D01*
Y128496D01*
X98668D01*
Y124630D01*
X81016Y106978D01*
X80684Y106482D01*
X80568Y105896D01*
Y101918D01*
X78960D01*
X78740Y102065D01*
X77966Y102219D01*
X74029D01*
X73255Y102065D01*
X72598Y101627D01*
X72160Y100970D01*
X72006Y100196D01*
X72160Y99422D01*
X72598Y98766D01*
X73255Y98327D01*
X74029Y98173D01*
X77966D01*
X78740Y98327D01*
X79396Y98766D01*
X79459Y98860D01*
X81512D01*
X82097Y98976D01*
X82268Y99090D01*
X82768Y98823D01*
Y97830D01*
X81664Y96726D01*
X79248D01*
X78740Y97065D01*
X77966Y97219D01*
X74029D01*
X73255Y97065D01*
X72598Y96627D01*
X72160Y95970D01*
X72006Y95196D01*
X72160Y94422D01*
X72598Y93766D01*
X73255Y93327D01*
X74029Y93173D01*
X77966D01*
X78740Y93327D01*
X79248Y93667D01*
X82297D01*
X82883Y93783D01*
X83379Y94115D01*
X85379Y96115D01*
X85710Y96611D01*
X85827Y97196D01*
Y103463D01*
X94831Y112467D01*
X103297D01*
X103883Y112583D01*
X104379Y112915D01*
X113579Y122115D01*
X113910Y122611D01*
X114027Y123196D01*
Y154996D01*
X113910Y155581D01*
X113579Y156078D01*
X110879Y158778D01*
X110383Y159109D01*
X109797Y159226D01*
X109297D01*
Y160196D01*
D02*
G37*
G36*
X230220Y118136D02*
X226997D01*
Y114914D01*
X227478Y114977D01*
X228392Y115355D01*
X229176Y115957D01*
X229778Y116742D01*
X230157Y117656D01*
X230220Y118136D01*
D02*
G37*
G36*
X225997D02*
X222775D01*
X222838Y117656D01*
X223217Y116742D01*
X223819Y115957D01*
X224603Y115355D01*
X225517Y114977D01*
X225997Y114914D01*
Y118136D01*
D02*
G37*
G36*
X150841Y116496D02*
X149197D01*
Y114853D01*
X149556Y114924D01*
X150284Y115410D01*
X150770Y116138D01*
X150841Y116496D01*
D02*
G37*
G36*
X148197D02*
X146554D01*
X146625Y116138D01*
X147111Y115410D01*
X147839Y114924D01*
X148197Y114853D01*
Y116496D01*
D02*
G37*
G36*
X137741D02*
X136097D01*
Y114853D01*
X136456Y114924D01*
X137183Y115410D01*
X137670Y116138D01*
X137741Y116496D01*
D02*
G37*
G36*
X135097D02*
X133454D01*
X133525Y116138D01*
X134011Y115410D01*
X134739Y114924D01*
X135097Y114853D01*
Y116496D01*
D02*
G37*
G36*
X128741D02*
X127097D01*
Y114853D01*
X127456Y114924D01*
X128183Y115410D01*
X128670Y116138D01*
X128741Y116496D01*
D02*
G37*
G36*
X126097D02*
X124454D01*
X124525Y116138D01*
X125011Y115410D01*
X125739Y114924D01*
X126097Y114853D01*
Y116496D01*
D02*
G37*
G36*
X119241D02*
X117597D01*
Y114853D01*
X117956Y114924D01*
X118684Y115410D01*
X119170Y116138D01*
X119241Y116496D01*
D02*
G37*
G36*
X116597D02*
X114954D01*
X115025Y116138D01*
X115511Y115410D01*
X116239Y114924D01*
X116597Y114853D01*
Y116496D01*
D02*
G37*
G36*
X209397Y115323D02*
Y113680D01*
X211041D01*
X210970Y114038D01*
X210484Y114766D01*
X209756Y115252D01*
X209397Y115323D01*
D02*
G37*
G36*
X208397D02*
X208039Y115252D01*
X207311Y114766D01*
X206825Y114038D01*
X206754Y113680D01*
X208397D01*
Y115323D01*
D02*
G37*
G36*
X197430D02*
Y113680D01*
X199074D01*
X199002Y114038D01*
X198516Y114766D01*
X197788Y115252D01*
X197430Y115323D01*
D02*
G37*
G36*
X196430D02*
X196072Y115252D01*
X195344Y114766D01*
X194858Y114038D01*
X194786Y113680D01*
X196430D01*
Y115323D01*
D02*
G37*
G36*
X33688Y121025D02*
X32559Y120877D01*
X31506Y120441D01*
X30602Y119747D01*
X29909Y118843D01*
X29473Y117791D01*
X29324Y116661D01*
X29473Y115532D01*
X29909Y114479D01*
X30602Y113575D01*
X31506Y112882D01*
X32559Y112446D01*
X33688Y112297D01*
X34818Y112446D01*
X35870Y112882D01*
X36774Y113575D01*
X37468Y114479D01*
X37904Y115532D01*
X38052Y116661D01*
X37904Y117791D01*
X37468Y118843D01*
X36774Y119747D01*
X35870Y120441D01*
X34818Y120877D01*
X33688Y121025D01*
D02*
G37*
G36*
X199074Y112680D02*
X197430D01*
Y111036D01*
X197788Y111107D01*
X198516Y111594D01*
X199002Y112321D01*
X199074Y112680D01*
D02*
G37*
G36*
X196430D02*
X194786D01*
X194858Y112321D01*
X195344Y111594D01*
X196072Y111107D01*
X196430Y111036D01*
Y112680D01*
D02*
G37*
G36*
X149197Y111340D02*
Y109696D01*
X150841D01*
X150770Y110055D01*
X150284Y110782D01*
X149556Y111269D01*
X149197Y111340D01*
D02*
G37*
G36*
X148197D02*
X147839Y111269D01*
X147111Y110782D01*
X146625Y110055D01*
X146554Y109696D01*
X148197D01*
Y111340D01*
D02*
G37*
G36*
X117597D02*
Y109696D01*
X119241D01*
X119170Y110055D01*
X118684Y110782D01*
X117956Y111269D01*
X117597Y111340D01*
D02*
G37*
G36*
X116597D02*
X116239Y111269D01*
X115511Y110782D01*
X115025Y110055D01*
X114954Y109696D01*
X116597D01*
Y111340D01*
D02*
G37*
G36*
X150841Y108696D02*
X149197D01*
Y107053D01*
X149556Y107124D01*
X150284Y107610D01*
X150770Y108338D01*
X150841Y108696D01*
D02*
G37*
G36*
X148197D02*
X146554D01*
X146625Y108338D01*
X147111Y107610D01*
X147839Y107124D01*
X148197Y107053D01*
Y108696D01*
D02*
G37*
G36*
X119241D02*
X117597D01*
Y107053D01*
X117956Y107124D01*
X118684Y107610D01*
X119170Y108338D01*
X119241Y108696D01*
D02*
G37*
G36*
X116597D02*
X114954D01*
X115025Y108338D01*
X115511Y107610D01*
X116239Y107124D01*
X116597Y107053D01*
Y108696D01*
D02*
G37*
G36*
X22506Y115573D02*
X21377Y115425D01*
X20324Y114989D01*
X19421Y114295D01*
X18727Y113391D01*
X18291Y112339D01*
X18142Y111209D01*
X18291Y110080D01*
X18727Y109027D01*
X19421Y108123D01*
X20324Y107430D01*
X21377Y106994D01*
X22506Y106845D01*
X23636Y106994D01*
X24688Y107430D01*
X25592Y108123D01*
X26286Y109027D01*
X26722Y110080D01*
X26871Y111209D01*
X26722Y112339D01*
X26286Y113391D01*
X25592Y114295D01*
X24688Y114989D01*
X23636Y115425D01*
X22506Y115573D01*
D02*
G37*
G36*
X129097Y107781D02*
X126997D01*
Y105781D01*
X129097D01*
Y107781D01*
D02*
G37*
G36*
X125997D02*
X123897D01*
Y105781D01*
X125997D01*
Y107781D01*
D02*
G37*
G36*
X159750Y107180D02*
X156297D01*
Y105696D01*
X159750D01*
Y107180D01*
D02*
G37*
G36*
X155297D02*
X151845D01*
Y105696D01*
X155297D01*
Y107180D01*
D02*
G37*
G36*
X159750Y104696D02*
X156297D01*
Y103212D01*
X159750D01*
Y104696D01*
D02*
G37*
G36*
X155297D02*
X151845D01*
Y103212D01*
X155297D01*
Y104696D01*
D02*
G37*
G36*
X129097Y104781D02*
X126997D01*
Y102781D01*
X129097D01*
Y104781D01*
D02*
G37*
G36*
X125997D02*
X123897D01*
Y102781D01*
X125997D01*
Y104781D01*
D02*
G37*
G36*
X117597Y102440D02*
Y100796D01*
X119241D01*
X119170Y101155D01*
X118684Y101882D01*
X117956Y102369D01*
X117597Y102440D01*
D02*
G37*
G36*
X116597D02*
X116239Y102369D01*
X115511Y101882D01*
X115025Y101155D01*
X114954Y100796D01*
X116597D01*
Y102440D01*
D02*
G37*
G36*
X103197D02*
Y100796D01*
X104841D01*
X104770Y101155D01*
X104283Y101882D01*
X103556Y102369D01*
X103197Y102440D01*
D02*
G37*
G36*
X102197D02*
X101839Y102369D01*
X101111Y101882D01*
X100625Y101155D01*
X100554Y100796D01*
X102197D01*
Y102440D01*
D02*
G37*
G36*
X97257Y102219D02*
X95789D01*
Y100696D01*
X99181D01*
X99126Y100970D01*
X98688Y101627D01*
X98031Y102065D01*
X97257Y102219D01*
D02*
G37*
G36*
X94789D02*
X93320D01*
X92546Y102065D01*
X91890Y101627D01*
X91451Y100970D01*
X91397Y100696D01*
X94789D01*
Y102219D01*
D02*
G37*
G36*
X177057D02*
X173120D01*
X172346Y102065D01*
X171690Y101627D01*
X171251Y100970D01*
X171097Y100196D01*
X171251Y99422D01*
X171690Y98766D01*
X172346Y98327D01*
X173120Y98173D01*
X177057D01*
X177831Y98327D01*
X178488Y98766D01*
X178926Y99422D01*
X179080Y100196D01*
X178926Y100970D01*
X178488Y101627D01*
X177831Y102065D01*
X177057Y102219D01*
D02*
G37*
G36*
X148697Y102639D02*
X147839Y102469D01*
X147111Y101982D01*
X146625Y101255D01*
X146454Y100396D01*
X146625Y99538D01*
X147111Y98810D01*
X147839Y98324D01*
X148697Y98153D01*
X149556Y98324D01*
X150219Y98767D01*
X152398D01*
X152398Y98766D01*
X153055Y98327D01*
X153829Y98173D01*
X157766D01*
X158540Y98327D01*
X159196Y98766D01*
X159635Y99422D01*
X159789Y100196D01*
X159635Y100970D01*
X159196Y101627D01*
X158540Y102065D01*
X157766Y102219D01*
X153829D01*
X153055Y102065D01*
X152696Y101826D01*
X150388D01*
X150284Y101982D01*
X149556Y102469D01*
X148697Y102639D01*
D02*
G37*
G36*
X99181Y99696D02*
X95789D01*
Y98173D01*
X97257D01*
X98031Y98327D01*
X98688Y98766D01*
X99126Y99422D01*
X99181Y99696D01*
D02*
G37*
G36*
X94789D02*
X91397D01*
X91451Y99422D01*
X91890Y98766D01*
X92546Y98327D01*
X93320Y98173D01*
X94789D01*
Y99696D01*
D02*
G37*
G36*
X104841Y99796D02*
X103197D01*
Y98153D01*
X103556Y98224D01*
X104283Y98710D01*
X104770Y99438D01*
X104841Y99796D01*
D02*
G37*
G36*
X102197D02*
X100554D01*
X100625Y99438D01*
X101111Y98710D01*
X101839Y98224D01*
X102197Y98153D01*
Y99796D01*
D02*
G37*
G36*
X97257Y107219D02*
X93320D01*
X92546Y107065D01*
X91890Y106627D01*
X91451Y105970D01*
X91297Y105196D01*
X91451Y104422D01*
X91890Y103766D01*
X92546Y103327D01*
X93320Y103173D01*
X97257D01*
X98031Y103327D01*
X98540Y103667D01*
X104864D01*
X106968Y101563D01*
Y99687D01*
X106811Y99582D01*
X106325Y98855D01*
X106154Y97996D01*
X106325Y97138D01*
X106811Y96410D01*
X107539Y95924D01*
X108397Y95753D01*
X109256Y95924D01*
X109984Y96410D01*
X110470Y97138D01*
X110641Y97996D01*
X110470Y98855D01*
X110027Y99518D01*
Y102196D01*
X109910Y102781D01*
X109579Y103278D01*
X106579Y106278D01*
X106083Y106609D01*
X105497Y106726D01*
X98540D01*
X98031Y107065D01*
X97257Y107219D01*
D02*
G37*
G36*
X119241Y99796D02*
X114954D01*
X115025Y99438D01*
X115511Y98710D01*
X115787Y98526D01*
X115636Y98026D01*
X114497D01*
X113912Y97909D01*
X113416Y97578D01*
X102564Y86726D01*
X98540D01*
X98031Y87065D01*
X97257Y87219D01*
X93320D01*
X92546Y87065D01*
X91890Y86627D01*
X91451Y85970D01*
X91297Y85196D01*
X91451Y84422D01*
X91890Y83766D01*
X92546Y83327D01*
X93320Y83173D01*
X97257D01*
X98031Y83327D01*
X98540Y83667D01*
X103197D01*
X103783Y83783D01*
X104279Y84115D01*
X115131Y94967D01*
X126873D01*
X126911Y94910D01*
X127639Y94424D01*
X128497Y94253D01*
X129356Y94424D01*
X130084Y94910D01*
X130570Y95638D01*
X130740Y96496D01*
X130570Y97355D01*
X130084Y98082D01*
X129356Y98569D01*
X128497Y98739D01*
X127639Y98569D01*
X126911Y98082D01*
X126873Y98026D01*
X118559D01*
X118407Y98526D01*
X118684Y98710D01*
X119170Y99438D01*
X119241Y99796D01*
D02*
G37*
G36*
X134997Y107781D02*
X129797D01*
Y102781D01*
X134997D01*
X135368Y102469D01*
Y93727D01*
X134868Y93460D01*
X134556Y93669D01*
X133697Y93839D01*
X132839Y93669D01*
X132111Y93182D01*
X132073Y93126D01*
X114697D01*
X114112Y93009D01*
X113616Y92678D01*
X102664Y81726D01*
X98540D01*
X98031Y82065D01*
X97257Y82219D01*
X93320D01*
X92546Y82065D01*
X91890Y81627D01*
X91451Y80970D01*
X91297Y80196D01*
X91451Y79422D01*
X91890Y78766D01*
X92546Y78327D01*
X93320Y78173D01*
X97257D01*
X98031Y78327D01*
X98540Y78667D01*
X103297D01*
X103883Y78783D01*
X104379Y79115D01*
X115331Y90067D01*
X132073D01*
X132111Y90010D01*
X132581Y89696D01*
X132429Y89196D01*
X129897D01*
Y84196D01*
X130968D01*
Y83530D01*
X128764Y81326D01*
X125097D01*
X124512Y81209D01*
X124016Y80878D01*
X119714Y76576D01*
X119236Y76721D01*
X119170Y77055D01*
X118684Y77782D01*
X117956Y78269D01*
X117590Y78341D01*
Y78851D01*
X117956Y78924D01*
X118684Y79410D01*
X119170Y80138D01*
X119241Y80496D01*
X114954D01*
X115025Y80138D01*
X115511Y79410D01*
X116239Y78924D01*
X116605Y78851D01*
Y78341D01*
X116239Y78269D01*
X115511Y77782D01*
X115025Y77055D01*
X114954Y76696D01*
X117097D01*
Y76196D01*
X117597D01*
Y74053D01*
X117956Y74124D01*
X118297Y74352D01*
X118797Y74085D01*
Y72121D01*
X115586D01*
Y60672D01*
X118797D01*
Y58467D01*
X118913Y57882D01*
X119245Y57386D01*
X121316Y55315D01*
X121812Y54983D01*
X122397Y54867D01*
X137797D01*
X138383Y54983D01*
X138879Y55315D01*
X152231Y68667D01*
X152546D01*
X153055Y68327D01*
X153829Y68173D01*
X157766D01*
X158540Y68327D01*
X159196Y68766D01*
X159635Y69422D01*
X159789Y70196D01*
X159635Y70970D01*
X159196Y71627D01*
X158540Y72065D01*
X157766Y72219D01*
X153829D01*
X153055Y72065D01*
X152546Y71726D01*
X151597D01*
X151012Y71609D01*
X150516Y71278D01*
X141671Y62432D01*
X141209Y62624D01*
Y64867D01*
X142097D01*
X142683Y64983D01*
X143179Y65315D01*
X151531Y73667D01*
X152546D01*
X153055Y73327D01*
X153829Y73173D01*
X157766D01*
X158540Y73327D01*
X159196Y73766D01*
X159635Y74422D01*
X159789Y75196D01*
X159635Y75970D01*
X159196Y76627D01*
X158540Y77065D01*
X157766Y77219D01*
X153829D01*
X153055Y77065D01*
X152546Y76726D01*
X150897D01*
X150312Y76609D01*
X149816Y76278D01*
X141709Y68170D01*
X141209Y68377D01*
Y72121D01*
X138427D01*
Y74734D01*
X138927Y74886D01*
X139111Y74610D01*
X139839Y74124D01*
X140197Y74053D01*
Y76196D01*
X141197D01*
Y74053D01*
X141556Y74124D01*
X142283Y74610D01*
X142414Y74805D01*
X142914D01*
X143111Y74510D01*
X143839Y74024D01*
X144697Y73853D01*
X145556Y74024D01*
X146283Y74510D01*
X146770Y75238D01*
X146871Y75746D01*
X149536Y78412D01*
X152928D01*
X153055Y78327D01*
X153829Y78173D01*
X157766D01*
X158540Y78327D01*
X159196Y78766D01*
X159635Y79422D01*
X159789Y80196D01*
X159635Y80970D01*
X159196Y81627D01*
X158540Y82065D01*
X157766Y82219D01*
X153829D01*
X153055Y82065D01*
X152928Y81981D01*
X149387D01*
X149338Y82481D01*
X149556Y82524D01*
X150284Y83010D01*
X150770Y83738D01*
X150841Y84096D01*
X146554D01*
X146625Y83738D01*
X147111Y83010D01*
X147839Y82524D01*
X148403Y82412D01*
Y81902D01*
X148115Y81845D01*
X147536Y81458D01*
X147536Y81458D01*
X144348Y78270D01*
X143839Y78169D01*
X143111Y77682D01*
X142981Y77487D01*
X142481D01*
X142283Y77782D01*
X141556Y78269D01*
X141190Y78341D01*
Y78851D01*
X141556Y78924D01*
X142283Y79410D01*
X142770Y80138D01*
X142841Y80496D01*
X140697D01*
Y80996D01*
X140197D01*
Y83140D01*
X139839Y83069D01*
X139111Y82582D01*
X138927Y82306D01*
X138427Y82458D01*
Y104402D01*
X138310Y104987D01*
X137979Y105484D01*
X137100Y106362D01*
X136604Y106694D01*
X136019Y106810D01*
X134997D01*
Y107781D01*
D02*
G37*
G36*
X177057Y97219D02*
X173120D01*
X172346Y97065D01*
X171690Y96627D01*
X171251Y95970D01*
X171097Y95196D01*
X171251Y94422D01*
X171690Y93766D01*
X172346Y93327D01*
X173120Y93173D01*
X177057D01*
X177831Y93327D01*
X178488Y93766D01*
X178926Y94422D01*
X179080Y95196D01*
X178926Y95970D01*
X178488Y96627D01*
X177831Y97065D01*
X177057Y97219D01*
D02*
G37*
G36*
X135497Y133496D02*
X130297D01*
Y128496D01*
X135497D01*
Y129267D01*
X138964D01*
X142668Y125563D01*
Y94596D01*
X142784Y94011D01*
X143116Y93515D01*
X147516Y89115D01*
X148012Y88783D01*
X148597Y88667D01*
X152546D01*
X153055Y88327D01*
X153829Y88173D01*
X157766D01*
X158540Y88327D01*
X159196Y88766D01*
X159635Y89422D01*
X159789Y90196D01*
X159635Y90970D01*
X159196Y91627D01*
X158540Y92065D01*
X157766Y92219D01*
X153829D01*
X153055Y92065D01*
X152546Y91726D01*
X149231D01*
X148368Y92589D01*
X148614Y93050D01*
X148847Y93003D01*
X149706Y93174D01*
X150434Y93660D01*
X150471Y93717D01*
X152471D01*
X153055Y93327D01*
X153829Y93173D01*
X157766D01*
X158540Y93327D01*
X159196Y93766D01*
X159635Y94422D01*
X159789Y95196D01*
X159635Y95970D01*
X159196Y96627D01*
X158540Y97065D01*
X157766Y97219D01*
X153829D01*
X153055Y97065D01*
X152621Y96776D01*
X150471D01*
X150434Y96832D01*
X149706Y97319D01*
X148847Y97489D01*
X147989Y97319D01*
X147261Y96832D01*
X146775Y96105D01*
X146604Y95246D01*
X146651Y95013D01*
X146190Y94767D01*
X145727Y95230D01*
Y126196D01*
X145610Y126781D01*
X145279Y127278D01*
X140679Y131878D01*
X140183Y132209D01*
X139597Y132326D01*
X135497D01*
Y133496D01*
D02*
G37*
G36*
X190797Y94740D02*
Y93096D01*
X192441D01*
X192370Y93455D01*
X191884Y94182D01*
X191156Y94669D01*
X190797Y94740D01*
D02*
G37*
G36*
X189797D02*
X189439Y94669D01*
X188711Y94182D01*
X188225Y93455D01*
X188154Y93096D01*
X189797D01*
Y94740D01*
D02*
G37*
G36*
X192441Y92096D02*
X190797D01*
Y90453D01*
X191156Y90524D01*
X191884Y91010D01*
X192370Y91738D01*
X192441Y92096D01*
D02*
G37*
G36*
X189797D02*
X188154D01*
X188225Y91738D01*
X188711Y91010D01*
X189439Y90524D01*
X189797Y90453D01*
Y92096D01*
D02*
G37*
G36*
X177057Y92219D02*
X173120D01*
X172346Y92065D01*
X171690Y91627D01*
X171251Y90970D01*
X171097Y90196D01*
X171251Y89422D01*
X171690Y88766D01*
X172346Y88327D01*
X173120Y88173D01*
X177057D01*
X177831Y88327D01*
X178488Y88766D01*
X178926Y89422D01*
X179080Y90196D01*
X178926Y90970D01*
X178488Y91627D01*
X177831Y92065D01*
X177057Y92219D01*
D02*
G37*
G36*
X129197Y89196D02*
X127097D01*
Y87196D01*
X129197D01*
Y89196D01*
D02*
G37*
G36*
X126097D02*
X123997D01*
Y87196D01*
X126097D01*
Y89196D01*
D02*
G37*
G36*
X169097Y110739D02*
X168239Y110569D01*
X167511Y110082D01*
X167025Y109355D01*
X166924Y108846D01*
X163836Y105758D01*
X163449Y105179D01*
X163313Y104496D01*
Y88935D01*
X161358Y86980D01*
X158667D01*
X158540Y87065D01*
X157766Y87219D01*
X153829D01*
X153055Y87065D01*
X152398Y86627D01*
X151960Y85970D01*
X151806Y85196D01*
X151960Y84422D01*
X152398Y83766D01*
X153055Y83327D01*
X153829Y83173D01*
X157766D01*
X158540Y83327D01*
X158667Y83412D01*
X162097D01*
X162780Y83548D01*
X163359Y83934D01*
X166359Y86935D01*
X166746Y87513D01*
X166882Y88196D01*
Y103757D01*
X169447Y106323D01*
X169956Y106424D01*
X170684Y106910D01*
X171170Y107638D01*
X171341Y108496D01*
X171170Y109355D01*
X170684Y110082D01*
X169956Y110569D01*
X169097Y110739D01*
D02*
G37*
G36*
X149197Y86740D02*
Y85096D01*
X150841D01*
X150770Y85455D01*
X150284Y86182D01*
X149556Y86669D01*
X149197Y86740D01*
D02*
G37*
G36*
X148197D02*
X147839Y86669D01*
X147111Y86182D01*
X146625Y85455D01*
X146554Y85096D01*
X148197D01*
Y86740D01*
D02*
G37*
G36*
X190797Y86340D02*
Y84696D01*
X192441D01*
X192370Y85055D01*
X191884Y85782D01*
X191156Y86269D01*
X190797Y86340D01*
D02*
G37*
G36*
X189797D02*
X189439Y86269D01*
X188711Y85782D01*
X188225Y85055D01*
X188154Y84696D01*
X189797D01*
Y86340D01*
D02*
G37*
G36*
X129197Y86196D02*
X127097D01*
Y84196D01*
X129197D01*
Y86196D01*
D02*
G37*
G36*
X126097D02*
X123997D01*
Y84196D01*
X126097D01*
Y86196D01*
D02*
G37*
G36*
X177057Y87219D02*
X173120D01*
X172346Y87065D01*
X171690Y86627D01*
X171251Y85970D01*
X171097Y85196D01*
X171251Y84422D01*
X171690Y83766D01*
X172346Y83327D01*
X173120Y83173D01*
X177057D01*
X177831Y83327D01*
X178488Y83766D01*
X178926Y84422D01*
X179080Y85196D01*
X178926Y85970D01*
X178488Y86627D01*
X177831Y87065D01*
X177057Y87219D01*
D02*
G37*
G36*
X192441Y83696D02*
X190797D01*
Y82053D01*
X191156Y82124D01*
X191884Y82610D01*
X192370Y83338D01*
X192441Y83696D01*
D02*
G37*
G36*
X189797D02*
X188154D01*
X188225Y83338D01*
X188711Y82610D01*
X189439Y82124D01*
X189797Y82053D01*
Y83696D01*
D02*
G37*
G36*
X141197Y83140D02*
Y81496D01*
X142841D01*
X142770Y81855D01*
X142283Y82582D01*
X141556Y83069D01*
X141197Y83140D01*
D02*
G37*
G36*
X117597D02*
Y81496D01*
X119241D01*
X119170Y81855D01*
X118684Y82582D01*
X117956Y83069D01*
X117597Y83140D01*
D02*
G37*
G36*
X116597D02*
X116239Y83069D01*
X115511Y82582D01*
X115025Y81855D01*
X114954Y81496D01*
X116597D01*
Y83140D01*
D02*
G37*
G36*
X177057Y82219D02*
X173120D01*
X172346Y82065D01*
X171690Y81627D01*
X171251Y80970D01*
X171097Y80196D01*
X171251Y79422D01*
X171690Y78766D01*
X172346Y78327D01*
X173120Y78173D01*
X177057D01*
X177831Y78327D01*
X178488Y78766D01*
X178926Y79422D01*
X179080Y80196D01*
X178926Y80970D01*
X178488Y81627D01*
X177831Y82065D01*
X177057Y82219D01*
D02*
G37*
G36*
X61497Y82539D02*
X60639Y82369D01*
X59911Y81882D01*
X59425Y81155D01*
X59254Y80296D01*
X59425Y79438D01*
X59911Y78710D01*
X60639Y78224D01*
X61497Y78053D01*
X62356Y78224D01*
X63083Y78710D01*
X63088Y78717D01*
X72671D01*
X73255Y78327D01*
X74029Y78173D01*
X77966D01*
X78740Y78327D01*
X79396Y78766D01*
X79835Y79422D01*
X79989Y80196D01*
X79835Y80970D01*
X79396Y81627D01*
X78740Y82065D01*
X77966Y82219D01*
X74029D01*
X73255Y82065D01*
X72821Y81776D01*
X63155D01*
X63083Y81882D01*
X62356Y82369D01*
X61497Y82539D01*
D02*
G37*
G36*
X190797Y78340D02*
Y76696D01*
X192441D01*
X192370Y77055D01*
X191884Y77782D01*
X191156Y78269D01*
X190797Y78340D01*
D02*
G37*
G36*
X189797D02*
X189439Y78269D01*
X188711Y77782D01*
X188225Y77055D01*
X188154Y76696D01*
X189797D01*
Y78340D01*
D02*
G37*
G36*
X22506Y82856D02*
X21377Y82708D01*
X20324Y82272D01*
X19421Y81578D01*
X18727Y80674D01*
X18291Y79622D01*
X18142Y78492D01*
X18291Y77363D01*
X18727Y76310D01*
X19421Y75406D01*
X20324Y74713D01*
X21377Y74277D01*
X22506Y74128D01*
X23636Y74277D01*
X24688Y74713D01*
X25592Y75406D01*
X26286Y76310D01*
X26722Y77363D01*
X26871Y78492D01*
X26722Y79622D01*
X26286Y80674D01*
X25592Y81578D01*
X24688Y82272D01*
X23636Y82708D01*
X22506Y82856D01*
D02*
G37*
G36*
X192441Y75696D02*
X190797D01*
Y74053D01*
X191156Y74124D01*
X191884Y74610D01*
X192370Y75338D01*
X192441Y75696D01*
D02*
G37*
G36*
X189797D02*
X188154D01*
X188225Y75338D01*
X188711Y74610D01*
X189439Y74124D01*
X189797Y74053D01*
Y75696D01*
D02*
G37*
G36*
X116597D02*
X114954D01*
X115025Y75338D01*
X115511Y74610D01*
X116239Y74124D01*
X116597Y74053D01*
Y75696D01*
D02*
G37*
G36*
X177057Y77219D02*
X173120D01*
X172346Y77065D01*
X171690Y76627D01*
X171251Y75970D01*
X171097Y75196D01*
X171251Y74422D01*
X171690Y73766D01*
X172346Y73327D01*
X173120Y73173D01*
X177057D01*
X177831Y73327D01*
X178488Y73766D01*
X178926Y74422D01*
X179080Y75196D01*
X178926Y75970D01*
X178488Y76627D01*
X177831Y77065D01*
X177057Y77219D01*
D02*
G37*
G36*
X97257D02*
X93320D01*
X92546Y77065D01*
X91890Y76627D01*
X91451Y75970D01*
X91297Y75196D01*
X91451Y74422D01*
X91890Y73766D01*
X92546Y73327D01*
X93320Y73173D01*
X97257D01*
X98031Y73327D01*
X98688Y73766D01*
X99126Y74422D01*
X99280Y75196D01*
X99126Y75970D01*
X98688Y76627D01*
X98031Y77065D01*
X97257Y77219D01*
D02*
G37*
G36*
X77966D02*
X74029D01*
X73255Y77065D01*
X72598Y76627D01*
X72160Y75970D01*
X72006Y75196D01*
X72160Y74422D01*
X72598Y73766D01*
X73255Y73327D01*
X74029Y73173D01*
X77966D01*
X78740Y73327D01*
X79396Y73766D01*
X79835Y74422D01*
X79989Y75196D01*
X79835Y75970D01*
X79396Y76627D01*
X78740Y77065D01*
X77966Y77219D01*
D02*
G37*
G36*
X67997Y74240D02*
Y72596D01*
X69641D01*
X69570Y72955D01*
X69083Y73682D01*
X68356Y74169D01*
X67997Y74240D01*
D02*
G37*
G36*
X66997D02*
X66639Y74169D01*
X65911Y73682D01*
X65425Y72955D01*
X65354Y72596D01*
X66997D01*
Y74240D01*
D02*
G37*
G36*
X62197D02*
Y72596D01*
X63841D01*
X63770Y72955D01*
X63283Y73682D01*
X62556Y74169D01*
X62197Y74240D01*
D02*
G37*
G36*
X61197D02*
X60839Y74169D01*
X60111Y73682D01*
X59625Y72955D01*
X59554Y72596D01*
X61197D01*
Y74240D01*
D02*
G37*
G36*
X237197Y86291D02*
X235767Y86150D01*
X234391Y85732D01*
X233122Y85055D01*
X232011Y84143D01*
X231099Y83031D01*
X230421Y81763D01*
X230004Y80387D01*
X229863Y78956D01*
X230004Y77525D01*
X230421Y76149D01*
X231099Y74881D01*
X232011Y73770D01*
X233122Y72858D01*
X234391Y72180D01*
X235767Y71763D01*
X237197Y71622D01*
X238628Y71763D01*
X240004Y72180D01*
X241272Y72858D01*
X242384Y73770D01*
X243296Y74881D01*
X243974Y76149D01*
X244391Y77525D01*
X244532Y78956D01*
X244391Y80387D01*
X243974Y81763D01*
X243296Y83031D01*
X242384Y84143D01*
X241272Y85055D01*
X240004Y85732D01*
X238628Y86150D01*
X237197Y86291D01*
D02*
G37*
G36*
X69641Y71596D02*
X67997D01*
Y69953D01*
X68356Y70024D01*
X69083Y70510D01*
X69570Y71238D01*
X69641Y71596D01*
D02*
G37*
G36*
X66997D02*
X65354D01*
X65425Y71238D01*
X65911Y70510D01*
X66639Y70024D01*
X66997Y69953D01*
Y71596D01*
D02*
G37*
G36*
X63841D02*
X62197D01*
Y69953D01*
X62556Y70024D01*
X63283Y70510D01*
X63770Y71238D01*
X63841Y71596D01*
D02*
G37*
G36*
X61197D02*
X59554D01*
X59625Y71238D01*
X60111Y70510D01*
X60839Y70024D01*
X61197Y69953D01*
Y71596D01*
D02*
G37*
G36*
X177057Y72219D02*
X173120D01*
X172346Y72065D01*
X171690Y71627D01*
X171251Y70970D01*
X171097Y70196D01*
X171251Y69422D01*
X171690Y68766D01*
X172346Y68327D01*
X173120Y68173D01*
X177057D01*
X177831Y68327D01*
X178488Y68766D01*
X178926Y69422D01*
X179080Y70196D01*
X178926Y70970D01*
X178488Y71627D01*
X177831Y72065D01*
X177057Y72219D01*
D02*
G37*
G36*
X97257D02*
X93320D01*
X92546Y72065D01*
X91890Y71627D01*
X91451Y70970D01*
X91297Y70196D01*
X91451Y69422D01*
X91890Y68766D01*
X92546Y68327D01*
X93320Y68173D01*
X97257D01*
X98031Y68327D01*
X98688Y68766D01*
X99126Y69422D01*
X99280Y70196D01*
X99126Y70970D01*
X98688Y71627D01*
X98031Y72065D01*
X97257Y72219D01*
D02*
G37*
G36*
X77966D02*
X74029D01*
X73255Y72065D01*
X72598Y71627D01*
X72160Y70970D01*
X72006Y70196D01*
X72160Y69422D01*
X72598Y68766D01*
X73255Y68327D01*
X74029Y68173D01*
X77966D01*
X78740Y68327D01*
X79396Y68766D01*
X79835Y69422D01*
X79989Y70196D01*
X79835Y70970D01*
X79396Y71627D01*
X78740Y72065D01*
X77966Y72219D01*
D02*
G37*
G36*
X146497Y58040D02*
Y56396D01*
X148141D01*
X148070Y56755D01*
X147583Y57482D01*
X146856Y57969D01*
X146497Y58040D01*
D02*
G37*
G36*
X145497D02*
X145139Y57969D01*
X144411Y57482D01*
X143925Y56755D01*
X143854Y56396D01*
X145497D01*
Y58040D01*
D02*
G37*
G36*
X108997D02*
Y56396D01*
X110641D01*
X110570Y56755D01*
X110083Y57482D01*
X109356Y57969D01*
X108997Y58040D01*
D02*
G37*
G36*
X107997D02*
X107639Y57969D01*
X106911Y57482D01*
X106425Y56755D01*
X106354Y56396D01*
X107997D01*
Y58040D01*
D02*
G37*
G36*
X110641Y55396D02*
X108997D01*
Y53753D01*
X109356Y53824D01*
X110083Y54310D01*
X110570Y55038D01*
X110641Y55396D01*
D02*
G37*
G36*
X107997D02*
X106354D01*
X106425Y55038D01*
X106911Y54310D01*
X107639Y53824D01*
X107997Y53753D01*
Y55396D01*
D02*
G37*
G36*
X108497Y72439D02*
X107639Y72269D01*
X106911Y71782D01*
X106425Y71055D01*
X106254Y70196D01*
X106425Y69338D01*
X106911Y68610D01*
X106968Y68572D01*
Y62796D01*
X107084Y62211D01*
X107416Y61715D01*
X118016Y51115D01*
X118512Y50783D01*
X119097Y50667D01*
X163173D01*
X163211Y50610D01*
X163939Y50124D01*
X164797Y49953D01*
X165656Y50124D01*
X166384Y50610D01*
X166870Y51338D01*
X167041Y52196D01*
X166870Y53055D01*
X166384Y53782D01*
X165656Y54269D01*
X164797Y54439D01*
X163939Y54269D01*
X163211Y53782D01*
X163173Y53726D01*
X147609D01*
X147457Y54226D01*
X147583Y54310D01*
X148070Y55038D01*
X148141Y55396D01*
X143854D01*
X143925Y55038D01*
X144411Y54310D01*
X144538Y54226D01*
X144386Y53726D01*
X119731D01*
X110027Y63430D01*
Y68572D01*
X110083Y68610D01*
X110570Y69338D01*
X110740Y70196D01*
X110570Y71055D01*
X110083Y71782D01*
X109356Y72269D01*
X108497Y72439D01*
D02*
G37*
G36*
X152697Y50040D02*
Y48396D01*
X154341D01*
X154270Y48755D01*
X153784Y49482D01*
X153056Y49968D01*
X152697Y50040D01*
D02*
G37*
G36*
X151697D02*
X151339Y49968D01*
X150611Y49482D01*
X150125Y48755D01*
X150054Y48396D01*
X151697D01*
Y50040D01*
D02*
G37*
G36*
X146497D02*
Y48396D01*
X148141D01*
X148070Y48755D01*
X147583Y49482D01*
X146856Y49968D01*
X146497Y50040D01*
D02*
G37*
G36*
X145497D02*
X145139Y49968D01*
X144411Y49482D01*
X143925Y48755D01*
X143854Y48396D01*
X145497D01*
Y50040D01*
D02*
G37*
G36*
X141197D02*
Y48396D01*
X142841D01*
X142770Y48755D01*
X142283Y49482D01*
X141556Y49968D01*
X141197Y50040D01*
D02*
G37*
G36*
X140197D02*
X139839Y49968D01*
X139111Y49482D01*
X138625Y48755D01*
X138554Y48396D01*
X140197D01*
Y50040D01*
D02*
G37*
G36*
X133397D02*
Y48396D01*
X135041D01*
X134970Y48755D01*
X134484Y49482D01*
X133756Y49968D01*
X133397Y50040D01*
D02*
G37*
G36*
X132397D02*
X132039Y49968D01*
X131311Y49482D01*
X130825Y48755D01*
X130754Y48396D01*
X132397D01*
Y50040D01*
D02*
G37*
G36*
X125497D02*
Y48396D01*
X127141D01*
X127070Y48755D01*
X126584Y49482D01*
X125856Y49968D01*
X125497Y50040D01*
D02*
G37*
G36*
X124497D02*
X124139Y49968D01*
X123411Y49482D01*
X122925Y48755D01*
X122854Y48396D01*
X124497D01*
Y50040D01*
D02*
G37*
G36*
X117597D02*
Y48396D01*
X119241D01*
X119170Y48755D01*
X118684Y49482D01*
X117956Y49968D01*
X117597Y50040D01*
D02*
G37*
G36*
X116597D02*
X116239Y49968D01*
X115511Y49482D01*
X115025Y48755D01*
X114954Y48396D01*
X116597D01*
Y50040D01*
D02*
G37*
G36*
X108997D02*
Y48396D01*
X110641D01*
X110570Y48755D01*
X110083Y49482D01*
X109356Y49968D01*
X108997Y50040D01*
D02*
G37*
G36*
X107997D02*
X107639Y49968D01*
X106911Y49482D01*
X106425Y48755D01*
X106354Y48396D01*
X107997D01*
Y50040D01*
D02*
G37*
G36*
X154341Y47396D02*
X152697D01*
Y45753D01*
X153056Y45824D01*
X153784Y46310D01*
X154270Y47038D01*
X154341Y47396D01*
D02*
G37*
G36*
X151697D02*
X150054D01*
X150125Y47038D01*
X150611Y46310D01*
X151339Y45824D01*
X151697Y45753D01*
Y47396D01*
D02*
G37*
G36*
X148141D02*
X146497D01*
Y45753D01*
X146856Y45824D01*
X147583Y46310D01*
X148070Y47038D01*
X148141Y47396D01*
D02*
G37*
G36*
X145497D02*
X143854D01*
X143925Y47038D01*
X144411Y46310D01*
X145139Y45824D01*
X145497Y45753D01*
Y47396D01*
D02*
G37*
G36*
X142841D02*
X141197D01*
Y45753D01*
X141556Y45824D01*
X142283Y46310D01*
X142770Y47038D01*
X142841Y47396D01*
D02*
G37*
G36*
X140197D02*
X138554D01*
X138625Y47038D01*
X139111Y46310D01*
X139839Y45824D01*
X140197Y45753D01*
Y47396D01*
D02*
G37*
G36*
X135041D02*
X133397D01*
Y45753D01*
X133756Y45824D01*
X134484Y46310D01*
X134970Y47038D01*
X135041Y47396D01*
D02*
G37*
G36*
X132397D02*
X130754D01*
X130825Y47038D01*
X131311Y46310D01*
X132039Y45824D01*
X132397Y45753D01*
Y47396D01*
D02*
G37*
G36*
X127141D02*
X125497D01*
Y45753D01*
X125856Y45824D01*
X126584Y46310D01*
X127070Y47038D01*
X127141Y47396D01*
D02*
G37*
G36*
X124497D02*
X122854D01*
X122925Y47038D01*
X123411Y46310D01*
X124139Y45824D01*
X124497Y45753D01*
Y47396D01*
D02*
G37*
G36*
X119241D02*
X117597D01*
Y45753D01*
X117956Y45824D01*
X118684Y46310D01*
X119170Y47038D01*
X119241Y47396D01*
D02*
G37*
G36*
X116597D02*
X114954D01*
X115025Y47038D01*
X115511Y46310D01*
X116239Y45824D01*
X116597Y45753D01*
Y47396D01*
D02*
G37*
G36*
X110641D02*
X108997D01*
Y45753D01*
X109356Y45824D01*
X110083Y46310D01*
X110570Y47038D01*
X110641Y47396D01*
D02*
G37*
G36*
X107997D02*
X106354D01*
X106425Y47038D01*
X106911Y46310D01*
X107639Y45824D01*
X107997Y45753D01*
Y47396D01*
D02*
G37*
G36*
X28097Y61643D02*
X26450Y61513D01*
X24843Y61127D01*
X23316Y60495D01*
X21906Y59631D01*
X20650Y58558D01*
X19576Y57301D01*
X18713Y55892D01*
X18080Y54365D01*
X17695Y52758D01*
X17565Y51110D01*
X17695Y49463D01*
X18080Y47855D01*
X18713Y46329D01*
X19576Y44919D01*
X20650Y43663D01*
X21906Y42589D01*
X23316Y41726D01*
X24843Y41093D01*
X26450Y40707D01*
X28097Y40578D01*
X29745Y40707D01*
X31352Y41093D01*
X32879Y41726D01*
X34288Y42589D01*
X35545Y43663D01*
X36618Y44919D01*
X37482Y46329D01*
X38114Y47855D01*
X38500Y49463D01*
X38630Y51110D01*
X38500Y52758D01*
X38114Y54365D01*
X37482Y55892D01*
X36618Y57301D01*
X35545Y58558D01*
X34288Y59631D01*
X32879Y60495D01*
X31352Y61127D01*
X29745Y61513D01*
X28097Y61643D01*
D02*
G37*
G36*
X260700Y36312D02*
X258226Y36118D01*
X255814Y35539D01*
X253521Y34589D01*
X251406Y33293D01*
X249519Y31681D01*
X247907Y29794D01*
X246611Y27679D01*
X245661Y25386D01*
X245082Y22974D01*
X244887Y20500D01*
X245082Y18026D01*
X245661Y15614D01*
X246611Y13321D01*
X247907Y11206D01*
X249519Y9319D01*
X251406Y7707D01*
X253521Y6411D01*
X255814Y5461D01*
X258226Y4882D01*
X260700Y4688D01*
X263174Y4882D01*
X265586Y5461D01*
X267879Y6411D01*
X269994Y7707D01*
X271881Y9319D01*
X273493Y11206D01*
X274789Y13321D01*
X275739Y15614D01*
X276318Y18026D01*
X276513Y20500D01*
X276318Y22974D01*
X275739Y25386D01*
X274789Y27679D01*
X273493Y29794D01*
X271881Y31681D01*
X269994Y33293D01*
X267879Y34589D01*
X265586Y35539D01*
X263174Y36118D01*
X260700Y36312D01*
D02*
G37*
G36*
X20200D02*
X17726Y36118D01*
X15314Y35539D01*
X13021Y34589D01*
X10906Y33293D01*
X9019Y31681D01*
X7407Y29794D01*
X6111Y27679D01*
X5161Y25386D01*
X4582Y22974D01*
X4388Y20500D01*
X4582Y18026D01*
X5161Y15614D01*
X6111Y13321D01*
X7407Y11206D01*
X9019Y9319D01*
X10906Y7707D01*
X13021Y6411D01*
X15314Y5461D01*
X17726Y4882D01*
X20200Y4688D01*
X22674Y4882D01*
X25086Y5461D01*
X27379Y6411D01*
X29494Y7707D01*
X31381Y9319D01*
X32993Y11206D01*
X34289Y13321D01*
X35239Y15614D01*
X35818Y18026D01*
X36013Y20500D01*
X35818Y22974D01*
X35239Y25386D01*
X34289Y27679D01*
X32993Y29794D01*
X31381Y31681D01*
X29494Y33293D01*
X27379Y34589D01*
X25086Y35539D01*
X22674Y36118D01*
X20200Y36312D01*
D02*
G37*
%LPD*%
G36*
X49717Y91820D02*
Y85946D01*
X49217Y85739D01*
X44479Y90478D01*
X43983Y90809D01*
X43397Y90926D01*
X36503D01*
X36333Y91426D01*
X36774Y91764D01*
X37468Y92668D01*
X37904Y93721D01*
X38052Y94850D01*
X37904Y95980D01*
X37468Y97032D01*
X36774Y97936D01*
X36346Y98264D01*
X36516Y98764D01*
X42097D01*
X42129Y98771D01*
X42766D01*
X49717Y91820D01*
D02*
G37*
G36*
X223819Y106117D02*
X224603Y105515D01*
X225517Y105137D01*
X225734Y105108D01*
Y104604D01*
X225517Y104575D01*
X224603Y104197D01*
X223819Y103595D01*
X223288Y102903D01*
X218146D01*
X217879Y103403D01*
X218170Y103838D01*
X218241Y104196D01*
X216097D01*
Y105196D01*
X218241D01*
X218170Y105555D01*
X217684Y106282D01*
X217523Y106389D01*
X217675Y106889D01*
X223226D01*
X223819Y106117D01*
D02*
G37*
G36*
X135097Y84196D02*
X135368Y83808D01*
Y77807D01*
X134868Y77656D01*
X134783Y77782D01*
X134056Y78269D01*
X133697Y78340D01*
Y76196D01*
Y74053D01*
X134056Y74124D01*
X134783Y74610D01*
X134868Y74736D01*
X135368Y74585D01*
Y72121D01*
X131728D01*
Y60672D01*
X139257D01*
X139448Y60210D01*
X137164Y57926D01*
X123031D01*
X121856Y59101D01*
Y60672D01*
X125067D01*
Y72121D01*
X121856D01*
Y74392D01*
X123689Y76225D01*
X124190Y76019D01*
X124325Y75338D01*
X124811Y74610D01*
X125539Y74124D01*
X125897Y74053D01*
Y76196D01*
X126397D01*
Y76696D01*
X128541D01*
X128470Y77055D01*
X127994Y77767D01*
X128039Y78000D01*
X128120Y78267D01*
X129397D01*
X129983Y78383D01*
X130479Y78715D01*
X133579Y81815D01*
X133910Y82311D01*
X134027Y82896D01*
Y84196D01*
X135097D01*
D02*
G37*
%LPC*%
G36*
X132697Y78340D02*
X132339Y78269D01*
X131611Y77782D01*
X131125Y77055D01*
X131054Y76696D01*
X132697D01*
Y78340D01*
D02*
G37*
G36*
Y75696D02*
X131054D01*
X131125Y75338D01*
X131611Y74610D01*
X132339Y74124D01*
X132697Y74053D01*
Y75696D01*
D02*
G37*
G36*
X128541D02*
X126897D01*
Y74053D01*
X127256Y74124D01*
X127983Y74610D01*
X128470Y75338D01*
X128541Y75696D01*
D02*
G37*
%LPD*%
D10*
X42104Y100300D02*
X43400D01*
X51247Y92453D01*
Y68453D02*
Y92453D01*
X55004Y64696D02*
X79396D01*
X84597Y69897D02*
Y90996D01*
X79396Y64696D02*
X84597Y69897D01*
X51247Y68453D02*
X55004Y64696D01*
X22516Y100294D02*
X42097D01*
X42104Y100300D01*
X48497Y66600D02*
X53301Y61796D01*
X48497Y66600D02*
Y84296D01*
X43397Y89396D02*
X48497Y84296D01*
X108497Y62796D02*
X119097Y52196D01*
X164797D01*
X137797Y56396D02*
X151597Y70196D01*
X122397Y56396D02*
X137797D01*
X120326Y58467D02*
X122397Y56396D01*
X120326Y58467D02*
Y66396D01*
X80997Y61796D02*
X87197Y67996D01*
X108497Y62796D02*
Y70196D01*
X120326Y66396D02*
Y75025D01*
X142097Y66396D02*
X150897Y75196D01*
X136897Y66396D02*
X142097D01*
X136468D02*
X136897Y66825D01*
X136468Y66396D02*
X136897D01*
Y66825D02*
Y104402D01*
X87197Y67996D02*
Y87496D01*
X183697Y68896D02*
X183897Y68696D01*
X183697Y68896D02*
Y103196D01*
X151597Y70196D02*
X155797D01*
X120326Y75025D02*
X125097Y79796D01*
X150897Y75196D02*
X155797D01*
X125097Y79796D02*
X129397D01*
X132497Y82896D01*
X95289Y80196D02*
X103297D01*
X114697Y91596D01*
X75947Y80246D02*
X75997Y80196D01*
X61547Y80246D02*
X75947D01*
X61497Y80296D02*
X61547Y80246D01*
X132497Y82896D02*
Y86696D01*
X95289Y85196D02*
X103197D01*
X60797D02*
X75997D01*
X103197D02*
X114497Y96496D01*
X87197Y87496D02*
X89897Y90196D01*
X95289D01*
X66697D02*
X75997D01*
X148597D02*
X155797D01*
X62197Y94696D02*
X66697Y90196D01*
X144197Y94596D02*
X148597Y90196D01*
X84597Y90996D02*
X88797Y95196D01*
X203397Y94896D02*
X207217Y91076D01*
X226497D01*
X114697Y91596D02*
X133697D01*
X144197Y94596D02*
Y126196D01*
X62197Y94696D02*
Y113296D01*
X203397Y94896D02*
Y102396D01*
X75997Y95196D02*
X82297D01*
X155747Y95246D02*
X155797Y95196D01*
X88797D02*
X95289D01*
X82297D02*
X84297Y97196D01*
X148847Y95246D02*
X155747D01*
X114497Y96496D02*
X128497D01*
X84297Y97196D02*
Y104096D01*
X108397Y97996D02*
X108497Y98096D01*
Y102196D01*
X155747Y100146D02*
X155797Y100196D01*
X155597Y100296D02*
X155747Y100146D01*
X75997Y100196D02*
X76183Y100382D01*
X148697Y100396D02*
X148797Y100296D01*
X155597D01*
X78836Y100382D02*
X78844Y100389D01*
X76183Y100382D02*
X78836D01*
X78844Y100389D02*
X81512D01*
X82097Y100975D01*
X226377Y101036D02*
X226497Y100916D01*
X82097Y100975D02*
Y105896D01*
X105497Y105196D02*
X108497Y102196D01*
X200897Y104896D02*
X203397Y102396D01*
X181697Y105196D02*
X183697Y103196D01*
X84297Y104096D02*
X94197Y113996D01*
X136019Y105281D02*
X136897Y104402D01*
X189697Y104896D02*
X196886D01*
X186597Y107996D02*
X189697Y104896D01*
X196886D02*
X200897D01*
X65497Y106182D02*
X66483Y105196D01*
X175089D02*
X181697D01*
X175089D02*
Y110088D01*
X66483Y105196D02*
X75997D01*
X95289D02*
X105497D01*
X132397Y105281D02*
X136019D01*
X126482Y105296D02*
X126497Y105281D01*
X155727Y105410D02*
X155997Y105680D01*
X82097Y105896D02*
X100197Y123996D01*
X65497Y106182D02*
Y111396D01*
X186597Y107996D02*
Y112696D01*
X226417Y108716D02*
X226497Y108796D01*
X175089Y110088D02*
X178297Y113296D01*
X65497Y111396D02*
X69297Y115196D01*
X186597Y112696D02*
Y117396D01*
X185997Y113296D02*
X186597Y112696D01*
X62197Y113296D02*
X67297Y118396D01*
X178297Y113296D02*
X185997D01*
X94197Y113996D02*
X103297D01*
X112497Y123196D01*
X69297Y115196D02*
X83997D01*
X92597Y123796D01*
X186597Y117396D02*
X190297Y121096D01*
X82797Y118396D02*
X88497Y124096D01*
X67297Y118396D02*
X82797D01*
X208997Y121096D02*
X209097Y121196D01*
X190297Y121096D02*
X198682D01*
X199397Y121811D01*
X208897Y121196D02*
X208997Y121096D01*
X199397Y121811D02*
Y134796D01*
X112497Y123196D02*
Y154996D01*
X92597Y123796D02*
Y154896D01*
X100197Y123996D02*
Y130996D01*
X88497Y124096D02*
Y154796D01*
X139597Y130796D02*
X144197Y126196D01*
X127497Y131296D02*
X127997Y130796D01*
X128097D01*
X62797D02*
X74297D01*
X132897D02*
X139597D01*
X199197Y134596D02*
X199397Y134796D01*
X144697Y134596D02*
X199197D01*
X140597Y138696D02*
X144697Y134596D01*
X140597Y138696D02*
Y155296D01*
X85597Y157696D02*
X88497Y154796D01*
X92597Y154896D02*
X95397Y157696D01*
X109797D02*
X112497Y154996D01*
X138197Y157696D02*
X140597Y155296D01*
X79097Y157696D02*
X85597D01*
X106697D02*
X109797D01*
X132897D02*
X138197D01*
X95397D02*
X100797D01*
X22506Y89397D02*
X22507Y89396D01*
X43397D01*
X53301Y61796D02*
X80997D01*
X22506Y100303D02*
X22516Y100294D01*
X22097Y99496D02*
X22197Y99396D01*
X53397Y92596D02*
X60797Y85196D01*
X58497Y107696D02*
Y126496D01*
X53397Y153796D02*
X57297Y157696D01*
X53397Y92596D02*
Y153796D01*
X58497Y126496D02*
X62797Y130796D01*
X57297Y157696D02*
X73197D01*
D15*
X136468Y66396D02*
D03*
X120326D02*
D03*
D16*
X75997Y105196D02*
D03*
X155797D02*
D03*
D17*
X75997Y100196D02*
D03*
Y95196D02*
D03*
Y90196D02*
D03*
Y85196D02*
D03*
Y80196D02*
D03*
Y75196D02*
D03*
Y70196D02*
D03*
X95289Y105196D02*
D03*
Y100196D02*
D03*
Y95196D02*
D03*
Y90196D02*
D03*
Y85196D02*
D03*
Y80196D02*
D03*
Y75196D02*
D03*
Y70196D02*
D03*
X155797Y100196D02*
D03*
Y95196D02*
D03*
Y90196D02*
D03*
Y85196D02*
D03*
Y80196D02*
D03*
Y75196D02*
D03*
Y70196D02*
D03*
X175089Y105196D02*
D03*
Y100196D02*
D03*
Y95196D02*
D03*
Y90196D02*
D03*
Y85196D02*
D03*
Y80196D02*
D03*
Y75196D02*
D03*
Y70196D02*
D03*
D18*
X126597Y86696D02*
D03*
X132497D02*
D03*
X126497Y105281D02*
D03*
X132397D02*
D03*
X80197Y130796D02*
D03*
X74297D02*
D03*
X126997Y130996D02*
D03*
X132897D02*
D03*
X106097D02*
D03*
X100197D02*
D03*
X205297Y134796D02*
D03*
X199397D02*
D03*
X100797Y157696D02*
D03*
X106697D02*
D03*
X73197D02*
D03*
X79097D02*
D03*
X126997D02*
D03*
X132897D02*
D03*
D19*
X196886Y101156D02*
D03*
X207909Y101156D02*
D03*
Y108636D02*
D03*
X196886Y108636D02*
D03*
Y104896D02*
D03*
X207909Y104896D02*
D03*
D20*
X198682Y121096D02*
D03*
X208997D02*
D03*
D32*
X190797Y60396D02*
X196997Y66596D01*
X152197Y60396D02*
X190797D01*
X196997Y66596D02*
Y75296D01*
X196886Y75408D02*
X196997Y75296D01*
X196886Y75408D02*
Y101156D01*
X144697Y76096D02*
X148797Y80196D01*
X155797D01*
X162097Y85196D02*
X165097Y88196D01*
X155797Y85196D02*
X162097D01*
X165097Y88196D02*
Y104496D01*
X226295Y101119D02*
X226377Y101036D01*
X207909Y101156D02*
X207947Y101119D01*
X226295D01*
X165097Y104496D02*
X169097Y108496D01*
X191897Y108596D02*
X191937Y108636D01*
X196886D01*
X207909Y108636D02*
X207947Y108674D01*
X226375D02*
X226417Y108716D01*
X207947Y108674D02*
X226375D01*
D33*
X22506Y78492D02*
D03*
X33688Y83945D02*
D03*
X22506Y89397D02*
D03*
X33688Y94850D02*
D03*
X22506Y100303D02*
D03*
X33688Y105756D02*
D03*
X22506Y111209D02*
D03*
X33688Y116661D02*
D03*
X22506Y122114D02*
D03*
D34*
X28097Y149496D02*
D03*
Y51110D02*
D03*
D35*
X237197Y78956D02*
D03*
Y130696D02*
D03*
D36*
X226497Y91076D02*
D03*
Y118636D02*
D03*
Y100916D02*
D03*
Y108796D02*
D03*
D37*
X260700Y20500D02*
D03*
X20200D02*
D03*
X260700Y190800D02*
D03*
X20200D02*
D03*
D38*
X132897Y47896D02*
D03*
X140697D02*
D03*
X108497D02*
D03*
X117097D02*
D03*
X152197D02*
D03*
X145997D02*
D03*
X124997D02*
D03*
X164797Y52196D02*
D03*
X108497Y55896D02*
D03*
X145997D02*
D03*
X152197Y60396D02*
D03*
X183897Y68696D02*
D03*
X108497Y70196D02*
D03*
X61697Y72096D02*
D03*
X67497D02*
D03*
X144697Y76096D02*
D03*
X140697Y76196D02*
D03*
X133197D02*
D03*
X190297D02*
D03*
X126397D02*
D03*
X117097D02*
D03*
X61497Y80296D02*
D03*
X117097Y80996D02*
D03*
X140697D02*
D03*
X190297Y84196D02*
D03*
X148697Y84596D02*
D03*
X133697Y91596D02*
D03*
X190297Y92596D02*
D03*
X148847Y95246D02*
D03*
X128497Y96496D02*
D03*
X108397Y97996D02*
D03*
X102697Y100296D02*
D03*
X117097D02*
D03*
X148697Y100396D02*
D03*
X216097Y104696D02*
D03*
X169097Y108496D02*
D03*
X191897Y108596D02*
D03*
X117097Y109196D02*
D03*
X148697D02*
D03*
X196930Y113180D02*
D03*
X208897D02*
D03*
X135597Y116996D02*
D03*
X148697D02*
D03*
X126597D02*
D03*
X117097D02*
D03*
X79297Y123796D02*
D03*
X67497D02*
D03*
X216097Y129096D02*
D03*
X117097Y130796D02*
D03*
X216097Y135096D02*
D03*
X126597Y138596D02*
D03*
Y148796D02*
D03*
X58497Y107696D02*
D03*
M02*
