G04*
G04 #@! TF.GenerationSoftware,Altium Limited,Altium Designer,20.1.10 (176)*
G04*
G04 Layer_Physical_Order=2*
G04 Layer_Color=16711680*
%FSLAX25Y25*%
%MOIN*%
G70*
G04*
G04 #@! TF.SameCoordinates,3FE8EB72-B5E6-4F20-A0E2-AFB057232DD4*
G04*
G04*
G04 #@! TF.FilePolarity,Positive*
G04*
G01*
G75*
%ADD10C,0.01000*%
%ADD32C,0.01500*%
%ADD33C,0.06653*%
%ADD34C,0.19000*%
%ADD35C,0.12598*%
%ADD36C,0.05512*%
%ADD37C,0.29528*%
%ADD38C,0.02400*%
G36*
X263931Y210461D02*
X266559Y210035D01*
X269109Y209271D01*
X271537Y208180D01*
X273802Y206781D01*
X275866Y205099D01*
X277692Y203161D01*
X279249Y201002D01*
X280511Y198658D01*
X281457Y196170D01*
X282070Y193579D01*
X282339Y190930D01*
X282300Y189600D01*
X282300D01*
X282300Y189106D01*
X282300Y22800D01*
X282300Y22800D01*
X282402Y21407D01*
X282239Y18619D01*
X281715Y15876D01*
X280837Y13224D01*
X279620Y10710D01*
X278085Y8377D01*
X276259Y6263D01*
X274173Y4406D01*
X271862Y2838D01*
X269366Y1584D01*
X266728Y667D01*
X263993Y102D01*
X262600Y-0D01*
Y-0D01*
X19600Y0D01*
X18266Y49D01*
X15634Y495D01*
X13083Y1280D01*
X10656Y2392D01*
X8395Y3811D01*
X6338Y5513D01*
X4522Y7469D01*
X2976Y9645D01*
X1727Y12004D01*
X797Y14506D01*
X201Y17109D01*
X-49Y19766D01*
X-0Y21100D01*
X-0D01*
X-0Y189200D01*
X0D01*
X-52Y190544D01*
X194Y193222D01*
X789Y195844D01*
X1720Y198367D01*
X2973Y200747D01*
X4526Y202943D01*
X6352Y204917D01*
X8420Y206636D01*
X10695Y208071D01*
X13137Y209196D01*
X15706Y209993D01*
X18356Y210448D01*
X19208Y210481D01*
X19700Y210500D01*
X19700Y210500D01*
X19700Y210500D01*
X262600D01*
X262600Y210500D01*
X262600Y210500D01*
X263931Y210461D01*
D02*
G37*
%LPC*%
G36*
X260700Y206612D02*
X258226Y206418D01*
X255814Y205839D01*
X253521Y204889D01*
X251406Y203593D01*
X249519Y201981D01*
X247907Y200094D01*
X246611Y197979D01*
X245661Y195686D01*
X245082Y193274D01*
X244887Y190800D01*
X245082Y188326D01*
X245661Y185914D01*
X246611Y183621D01*
X247907Y181506D01*
X249519Y179619D01*
X251406Y178007D01*
X253521Y176711D01*
X255814Y175761D01*
X258226Y175182D01*
X260700Y174987D01*
X263174Y175182D01*
X265586Y175761D01*
X267879Y176711D01*
X269994Y178007D01*
X271881Y179619D01*
X273493Y181506D01*
X274789Y183621D01*
X275739Y185914D01*
X276318Y188326D01*
X276513Y190800D01*
X276318Y193274D01*
X275739Y195686D01*
X274789Y197979D01*
X273493Y200094D01*
X271881Y201981D01*
X269994Y203593D01*
X267879Y204889D01*
X265586Y205839D01*
X263174Y206418D01*
X260700Y206612D01*
D02*
G37*
G36*
X20200D02*
X17726Y206418D01*
X15314Y205839D01*
X13021Y204889D01*
X10906Y203593D01*
X9019Y201981D01*
X7407Y200094D01*
X6111Y197979D01*
X5161Y195686D01*
X4582Y193274D01*
X4388Y190800D01*
X4582Y188326D01*
X5161Y185914D01*
X6111Y183621D01*
X7407Y181506D01*
X9019Y179619D01*
X10906Y178007D01*
X13021Y176711D01*
X15314Y175761D01*
X17726Y175182D01*
X20200Y174987D01*
X22674Y175182D01*
X25086Y175761D01*
X27379Y176711D01*
X29494Y178007D01*
X31381Y179619D01*
X32993Y181506D01*
X34289Y183621D01*
X35239Y185914D01*
X35818Y188326D01*
X36013Y190800D01*
X35818Y193274D01*
X35239Y195686D01*
X34289Y197979D01*
X32993Y200094D01*
X31381Y201981D01*
X29494Y203593D01*
X27379Y204889D01*
X25086Y205839D01*
X22674Y206418D01*
X20200Y206612D01*
D02*
G37*
G36*
X127097Y150940D02*
Y149296D01*
X128741D01*
X128670Y149655D01*
X128183Y150382D01*
X127456Y150869D01*
X127097Y150940D01*
D02*
G37*
G36*
X126097D02*
X125739Y150869D01*
X125011Y150382D01*
X124525Y149655D01*
X124454Y149296D01*
X126097D01*
Y150940D01*
D02*
G37*
G36*
X128741Y148296D02*
X127097D01*
Y146653D01*
X127456Y146724D01*
X128183Y147210D01*
X128670Y147938D01*
X128741Y148296D01*
D02*
G37*
G36*
X126097D02*
X124454D01*
X124525Y147938D01*
X125011Y147210D01*
X125739Y146724D01*
X126097Y146653D01*
Y148296D01*
D02*
G37*
G36*
X127097Y140740D02*
Y139096D01*
X128741D01*
X128670Y139455D01*
X128183Y140182D01*
X127456Y140669D01*
X127097Y140740D01*
D02*
G37*
G36*
X126097D02*
X125739Y140669D01*
X125011Y140182D01*
X124525Y139455D01*
X124454Y139096D01*
X126097D01*
Y140740D01*
D02*
G37*
G36*
X28097Y160029D02*
X26450Y159899D01*
X24843Y159513D01*
X23316Y158881D01*
X21906Y158017D01*
X20650Y156944D01*
X19576Y155687D01*
X18713Y154278D01*
X18080Y152751D01*
X17695Y151144D01*
X17565Y149496D01*
X17695Y147849D01*
X18080Y146241D01*
X18713Y144715D01*
X19576Y143305D01*
X20650Y142049D01*
X21906Y140975D01*
X23316Y140112D01*
X24843Y139479D01*
X26450Y139093D01*
X28097Y138964D01*
X29745Y139093D01*
X31352Y139479D01*
X32879Y140112D01*
X34288Y140975D01*
X35545Y142049D01*
X36618Y143305D01*
X37482Y144715D01*
X38114Y146241D01*
X38500Y147849D01*
X38630Y149496D01*
X38500Y151144D01*
X38114Y152751D01*
X37482Y154278D01*
X36618Y155687D01*
X35545Y156944D01*
X34288Y158017D01*
X32879Y158881D01*
X31352Y159513D01*
X29745Y159899D01*
X28097Y160029D01*
D02*
G37*
G36*
X128741Y138096D02*
X127097D01*
Y136453D01*
X127456Y136524D01*
X128183Y137010D01*
X128670Y137738D01*
X128741Y138096D01*
D02*
G37*
G36*
X126097D02*
X124454D01*
X124525Y137738D01*
X125011Y137010D01*
X125739Y136524D01*
X126097Y136453D01*
Y138096D01*
D02*
G37*
G36*
X216597Y137240D02*
Y135596D01*
X218241D01*
X218170Y135955D01*
X217684Y136682D01*
X216956Y137169D01*
X216597Y137240D01*
D02*
G37*
G36*
X215597D02*
X215239Y137169D01*
X214511Y136682D01*
X214025Y135955D01*
X213954Y135596D01*
X215597D01*
Y137240D01*
D02*
G37*
G36*
X218241Y134596D02*
X216597D01*
Y132953D01*
X216956Y133024D01*
X217684Y133510D01*
X218170Y134238D01*
X218241Y134596D01*
D02*
G37*
G36*
X215597D02*
X213954D01*
X214025Y134238D01*
X214511Y133510D01*
X215239Y133024D01*
X215597Y132953D01*
Y134596D01*
D02*
G37*
G36*
X117597Y132940D02*
Y131296D01*
X119241D01*
X119170Y131655D01*
X118684Y132382D01*
X117956Y132869D01*
X117597Y132940D01*
D02*
G37*
G36*
X116597D02*
X116239Y132869D01*
X115511Y132382D01*
X115025Y131655D01*
X114954Y131296D01*
X116597D01*
Y132940D01*
D02*
G37*
G36*
X216597Y131240D02*
Y129596D01*
X218241D01*
X218170Y129955D01*
X217684Y130682D01*
X216956Y131169D01*
X216597Y131240D01*
D02*
G37*
G36*
X215597D02*
X215239Y131169D01*
X214511Y130682D01*
X214025Y129955D01*
X213954Y129596D01*
X215597D01*
Y131240D01*
D02*
G37*
G36*
X119241Y130296D02*
X117597D01*
Y128653D01*
X117956Y128724D01*
X118684Y129210D01*
X119170Y129938D01*
X119241Y130296D01*
D02*
G37*
G36*
X116597D02*
X114954D01*
X115025Y129938D01*
X115511Y129210D01*
X116239Y128724D01*
X116597Y128653D01*
Y130296D01*
D02*
G37*
G36*
X218241Y128596D02*
X216597D01*
Y126953D01*
X216956Y127024D01*
X217684Y127510D01*
X218170Y128238D01*
X218241Y128596D01*
D02*
G37*
G36*
X215597D02*
X213954D01*
X214025Y128238D01*
X214511Y127510D01*
X215239Y127024D01*
X215597Y126953D01*
Y128596D01*
D02*
G37*
G36*
X79797Y125940D02*
Y124296D01*
X81441D01*
X81370Y124655D01*
X80884Y125382D01*
X80156Y125869D01*
X79797Y125940D01*
D02*
G37*
G36*
X78797D02*
X78439Y125869D01*
X77711Y125382D01*
X77225Y124655D01*
X77154Y124296D01*
X78797D01*
Y125940D01*
D02*
G37*
G36*
X67997D02*
Y124296D01*
X69641D01*
X69570Y124655D01*
X69083Y125382D01*
X68356Y125869D01*
X67997Y125940D01*
D02*
G37*
G36*
X66997D02*
X66639Y125869D01*
X65911Y125382D01*
X65425Y124655D01*
X65354Y124296D01*
X66997D01*
Y125940D01*
D02*
G37*
G36*
X237197Y138031D02*
X235767Y137890D01*
X234391Y137472D01*
X233122Y136795D01*
X232011Y135882D01*
X231099Y134771D01*
X230421Y133503D01*
X230004Y132127D01*
X229863Y130696D01*
X230004Y129265D01*
X230421Y127889D01*
X231099Y126621D01*
X232011Y125510D01*
X233122Y124598D01*
X234391Y123920D01*
X235767Y123503D01*
X237197Y123362D01*
X238628Y123503D01*
X240004Y123920D01*
X241272Y124598D01*
X242384Y125510D01*
X243296Y126621D01*
X243974Y127889D01*
X244391Y129265D01*
X244532Y130696D01*
X244391Y132127D01*
X243974Y133503D01*
X243296Y134771D01*
X242384Y135882D01*
X241272Y136795D01*
X240004Y137472D01*
X238628Y137890D01*
X237197Y138031D01*
D02*
G37*
G36*
X23006Y126412D02*
Y122614D01*
X26805D01*
X26722Y123244D01*
X26286Y124296D01*
X25592Y125200D01*
X24688Y125894D01*
X23636Y126330D01*
X23006Y126412D01*
D02*
G37*
G36*
X22006Y126412D02*
X21377Y126330D01*
X20324Y125894D01*
X19421Y125200D01*
X18727Y124296D01*
X18291Y123244D01*
X18208Y122614D01*
X22006D01*
Y126412D01*
D02*
G37*
G36*
X81441Y123296D02*
X79797D01*
Y121653D01*
X80156Y121724D01*
X80884Y122210D01*
X81370Y122938D01*
X81441Y123296D01*
D02*
G37*
G36*
X78797D02*
X77154D01*
X77225Y122938D01*
X77711Y122210D01*
X78439Y121724D01*
X78797Y121653D01*
Y123296D01*
D02*
G37*
G36*
X69641D02*
X67997D01*
Y121653D01*
X68356Y121724D01*
X69083Y122210D01*
X69570Y122938D01*
X69641Y123296D01*
D02*
G37*
G36*
X66997D02*
X65354D01*
X65425Y122938D01*
X65911Y122210D01*
X66639Y121724D01*
X66997Y121653D01*
Y123296D01*
D02*
G37*
G36*
X226997Y122359D02*
Y119136D01*
X230220D01*
X230157Y119617D01*
X229778Y120530D01*
X229176Y121315D01*
X228392Y121917D01*
X227478Y122295D01*
X226997Y122359D01*
D02*
G37*
G36*
X225997D02*
X225517Y122295D01*
X224603Y121917D01*
X223819Y121315D01*
X223217Y120530D01*
X222838Y119617D01*
X222775Y119136D01*
X225997D01*
Y122359D01*
D02*
G37*
G36*
X26805Y121614D02*
X23006D01*
Y117816D01*
X23636Y117899D01*
X24688Y118335D01*
X25592Y119028D01*
X26286Y119932D01*
X26722Y120985D01*
X26805Y121614D01*
D02*
G37*
G36*
X22006D02*
X18208D01*
X18291Y120985D01*
X18727Y119932D01*
X19421Y119028D01*
X20324Y118335D01*
X21377Y117899D01*
X22006Y117816D01*
Y121614D01*
D02*
G37*
G36*
X149197Y119140D02*
Y117496D01*
X150841D01*
X150770Y117855D01*
X150284Y118582D01*
X149556Y119069D01*
X149197Y119140D01*
D02*
G37*
G36*
X148197D02*
X147839Y119069D01*
X147111Y118582D01*
X146625Y117855D01*
X146554Y117496D01*
X148197D01*
Y119140D01*
D02*
G37*
G36*
X136097D02*
Y117496D01*
X137741D01*
X137670Y117855D01*
X137183Y118582D01*
X136456Y119069D01*
X136097Y119140D01*
D02*
G37*
G36*
X135097D02*
X134739Y119069D01*
X134011Y118582D01*
X133525Y117855D01*
X133454Y117496D01*
X135097D01*
Y119140D01*
D02*
G37*
G36*
X127097D02*
Y117496D01*
X128741D01*
X128670Y117855D01*
X128183Y118582D01*
X127456Y119069D01*
X127097Y119140D01*
D02*
G37*
G36*
X126097D02*
X125739Y119069D01*
X125011Y118582D01*
X124525Y117855D01*
X124454Y117496D01*
X126097D01*
Y119140D01*
D02*
G37*
G36*
X117597D02*
Y117496D01*
X119241D01*
X119170Y117855D01*
X118684Y118582D01*
X117956Y119069D01*
X117597Y119140D01*
D02*
G37*
G36*
X116597D02*
X116239Y119069D01*
X115511Y118582D01*
X115025Y117855D01*
X114954Y117496D01*
X116597D01*
Y119140D01*
D02*
G37*
G36*
X230220Y118136D02*
X226997D01*
Y114914D01*
X227478Y114977D01*
X228392Y115355D01*
X229176Y115957D01*
X229778Y116742D01*
X230157Y117656D01*
X230220Y118136D01*
D02*
G37*
G36*
X225997D02*
X222775D01*
X222838Y117656D01*
X223217Y116742D01*
X223819Y115957D01*
X224603Y115355D01*
X225517Y114977D01*
X225997Y114914D01*
Y118136D01*
D02*
G37*
G36*
X150841Y116496D02*
X149197D01*
Y114853D01*
X149556Y114924D01*
X150284Y115410D01*
X150770Y116138D01*
X150841Y116496D01*
D02*
G37*
G36*
X148197D02*
X146554D01*
X146625Y116138D01*
X147111Y115410D01*
X147839Y114924D01*
X148197Y114853D01*
Y116496D01*
D02*
G37*
G36*
X137741D02*
X136097D01*
Y114853D01*
X136456Y114924D01*
X137183Y115410D01*
X137670Y116138D01*
X137741Y116496D01*
D02*
G37*
G36*
X135097D02*
X133454D01*
X133525Y116138D01*
X134011Y115410D01*
X134739Y114924D01*
X135097Y114853D01*
Y116496D01*
D02*
G37*
G36*
X128741D02*
X127097D01*
Y114853D01*
X127456Y114924D01*
X128183Y115410D01*
X128670Y116138D01*
X128741Y116496D01*
D02*
G37*
G36*
X126097D02*
X124454D01*
X124525Y116138D01*
X125011Y115410D01*
X125739Y114924D01*
X126097Y114853D01*
Y116496D01*
D02*
G37*
G36*
X119241D02*
X117597D01*
Y114853D01*
X117956Y114924D01*
X118684Y115410D01*
X119170Y116138D01*
X119241Y116496D01*
D02*
G37*
G36*
X116597D02*
X114954D01*
X115025Y116138D01*
X115511Y115410D01*
X116239Y114924D01*
X116597Y114853D01*
Y116496D01*
D02*
G37*
G36*
X209397Y115323D02*
Y113680D01*
X211041D01*
X210970Y114038D01*
X210484Y114766D01*
X209756Y115252D01*
X209397Y115323D01*
D02*
G37*
G36*
X208397D02*
X208039Y115252D01*
X207311Y114766D01*
X206825Y114038D01*
X206754Y113680D01*
X208397D01*
Y115323D01*
D02*
G37*
G36*
X197430D02*
Y113680D01*
X199074D01*
X199002Y114038D01*
X198516Y114766D01*
X197788Y115252D01*
X197430Y115323D01*
D02*
G37*
G36*
X196430D02*
X196072Y115252D01*
X195344Y114766D01*
X194858Y114038D01*
X194786Y113680D01*
X196430D01*
Y115323D01*
D02*
G37*
G36*
X182738Y114430D02*
X181337D01*
X180655Y114295D01*
X180076Y113908D01*
X180076Y113908D01*
X179026Y112858D01*
X178838Y112577D01*
X178237Y112577D01*
X178049Y112858D01*
X178049Y112858D01*
X176999Y113908D01*
X176420Y114295D01*
X175738Y114430D01*
X174337D01*
X173655Y114295D01*
X173076Y113908D01*
X173076Y113908D01*
X172026Y112858D01*
X171639Y112279D01*
X171503Y111596D01*
Y110285D01*
X171498Y110281D01*
X170387D01*
X169956Y110569D01*
X169097Y110739D01*
X168239Y110569D01*
X167511Y110082D01*
X167025Y109355D01*
X166854Y108496D01*
X167025Y107638D01*
X167511Y106910D01*
X168239Y106424D01*
X169097Y106253D01*
X169956Y106424D01*
X170387Y106712D01*
X172238D01*
X172920Y106848D01*
X173499Y107235D01*
X174503Y108239D01*
X174695Y108214D01*
X175003Y108064D01*
Y98845D01*
X175139Y98162D01*
X175526Y97583D01*
X176576Y96533D01*
X176576Y96533D01*
X177155Y96146D01*
X177838Y96010D01*
X179237D01*
X179920Y96146D01*
X180499Y96533D01*
X181549Y97583D01*
X181549Y97583D01*
X181737Y97864D01*
X182338Y97864D01*
X182526Y97583D01*
X183576Y96533D01*
X183576Y96533D01*
X184155Y96146D01*
X184837Y96010D01*
X186238D01*
X186920Y96146D01*
X187499Y96533D01*
X188549Y97583D01*
X188549Y97583D01*
X188936Y98162D01*
X189072Y98845D01*
Y106707D01*
X189077Y106712D01*
X190758D01*
X191039Y106524D01*
X191897Y106353D01*
X192756Y106524D01*
X193483Y107010D01*
X193970Y107738D01*
X194141Y108596D01*
X193970Y109455D01*
X193483Y110182D01*
X192756Y110669D01*
X191897Y110839D01*
X191039Y110669D01*
X190458Y110281D01*
X188338D01*
X187655Y110145D01*
X187076Y109758D01*
X187076Y109758D01*
X186072Y108754D01*
X185880Y108779D01*
X185572Y108928D01*
Y111596D01*
X185436Y112279D01*
X185049Y112858D01*
X185049Y112858D01*
X183999Y113908D01*
X183420Y114295D01*
X182738Y114430D01*
D02*
G37*
G36*
X33688Y121025D02*
X32559Y120877D01*
X31506Y120441D01*
X30602Y119747D01*
X29909Y118843D01*
X29473Y117791D01*
X29324Y116661D01*
X29473Y115532D01*
X29909Y114479D01*
X30602Y113575D01*
X31506Y112882D01*
X32559Y112446D01*
X33688Y112297D01*
X34818Y112446D01*
X35870Y112882D01*
X36774Y113575D01*
X37468Y114479D01*
X37904Y115532D01*
X38052Y116661D01*
X37904Y117791D01*
X37468Y118843D01*
X36774Y119747D01*
X35870Y120441D01*
X34818Y120877D01*
X33688Y121025D01*
D02*
G37*
G36*
X211041Y112680D02*
X209397D01*
Y111036D01*
X209756Y111107D01*
X210484Y111594D01*
X210970Y112321D01*
X211041Y112680D01*
D02*
G37*
G36*
X208397D02*
X206754D01*
X206825Y112321D01*
X207311Y111594D01*
X208039Y111107D01*
X208397Y111036D01*
Y112680D01*
D02*
G37*
G36*
X199074D02*
X197430D01*
Y111036D01*
X197788Y111107D01*
X198516Y111594D01*
X199002Y112321D01*
X199074Y112680D01*
D02*
G37*
G36*
X196430D02*
X194786D01*
X194858Y112321D01*
X195344Y111594D01*
X196072Y111107D01*
X196430Y111036D01*
Y112680D01*
D02*
G37*
G36*
X149197Y111340D02*
Y109696D01*
X150841D01*
X150770Y110055D01*
X150284Y110782D01*
X149556Y111269D01*
X149197Y111340D01*
D02*
G37*
G36*
X148197D02*
X147839Y111269D01*
X147111Y110782D01*
X146625Y110055D01*
X146554Y109696D01*
X148197D01*
Y111340D01*
D02*
G37*
G36*
X117597D02*
Y109696D01*
X119241D01*
X119170Y110055D01*
X118684Y110782D01*
X117956Y111269D01*
X117597Y111340D01*
D02*
G37*
G36*
X116597D02*
X116239Y111269D01*
X115511Y110782D01*
X115025Y110055D01*
X114954Y109696D01*
X116597D01*
Y111340D01*
D02*
G37*
G36*
X150841Y108696D02*
X149197D01*
Y107053D01*
X149556Y107124D01*
X150284Y107610D01*
X150770Y108338D01*
X150841Y108696D01*
D02*
G37*
G36*
X148197D02*
X146554D01*
X146625Y108338D01*
X147111Y107610D01*
X147839Y107124D01*
X148197Y107053D01*
Y108696D01*
D02*
G37*
G36*
X119241D02*
X117597D01*
Y107053D01*
X117956Y107124D01*
X118684Y107610D01*
X119170Y108338D01*
X119241Y108696D01*
D02*
G37*
G36*
X116597D02*
X114954D01*
X115025Y108338D01*
X115511Y107610D01*
X116239Y107124D01*
X116597Y107053D01*
Y108696D01*
D02*
G37*
G36*
X22506Y115573D02*
X21377Y115425D01*
X20324Y114989D01*
X19421Y114295D01*
X18727Y113391D01*
X18291Y112339D01*
X18142Y111209D01*
X18291Y110080D01*
X18727Y109027D01*
X19421Y108123D01*
X20324Y107430D01*
X21377Y106994D01*
X22506Y106845D01*
X23636Y106994D01*
X24688Y107430D01*
X25592Y108123D01*
X26286Y109027D01*
X26722Y110080D01*
X26871Y111209D01*
X26722Y112339D01*
X26286Y113391D01*
X25592Y114295D01*
X24688Y114989D01*
X23636Y115425D01*
X22506Y115573D01*
D02*
G37*
G36*
X216597Y106840D02*
Y105196D01*
X218241D01*
X218170Y105555D01*
X217684Y106282D01*
X216956Y106769D01*
X216597Y106840D01*
D02*
G37*
G36*
X215597D02*
X215239Y106769D01*
X214511Y106282D01*
X214025Y105555D01*
X213954Y105196D01*
X215597D01*
Y106840D01*
D02*
G37*
G36*
X218241Y104196D02*
X216597D01*
Y102553D01*
X216956Y102624D01*
X217684Y103110D01*
X218170Y103838D01*
X218241Y104196D01*
D02*
G37*
G36*
X215597D02*
X213954D01*
X214025Y103838D01*
X214511Y103110D01*
X215239Y102624D01*
X215597Y102553D01*
Y104196D01*
D02*
G37*
G36*
X33688Y110120D02*
X32559Y109972D01*
X31506Y109536D01*
X30602Y108842D01*
X29909Y107938D01*
X29473Y106886D01*
X29324Y105756D01*
X29473Y104627D01*
X29909Y103574D01*
X30602Y102670D01*
X31506Y101977D01*
X32559Y101541D01*
X33688Y101392D01*
X34818Y101541D01*
X35870Y101977D01*
X36774Y102670D01*
X37468Y103574D01*
X37904Y104627D01*
X38052Y105756D01*
X37904Y106886D01*
X37468Y107938D01*
X36774Y108842D01*
X35870Y109536D01*
X34818Y109972D01*
X33688Y110120D01*
D02*
G37*
G36*
X117597Y102440D02*
Y100796D01*
X119241D01*
X119170Y101155D01*
X118684Y101882D01*
X117956Y102369D01*
X117597Y102440D01*
D02*
G37*
G36*
X116597D02*
X116239Y102369D01*
X115511Y101882D01*
X115025Y101155D01*
X114954Y100796D01*
X116597D01*
Y102440D01*
D02*
G37*
G36*
X103197D02*
Y100796D01*
X104841D01*
X104770Y101155D01*
X104283Y101882D01*
X103556Y102369D01*
X103197Y102440D01*
D02*
G37*
G36*
X102197D02*
X101839Y102369D01*
X101111Y101882D01*
X100625Y101155D01*
X100554Y100796D01*
X102197D01*
Y102440D01*
D02*
G37*
G36*
X148697Y102639D02*
X147839Y102469D01*
X147111Y101982D01*
X147073Y101926D01*
X142497D01*
X141912Y101809D01*
X141416Y101478D01*
X133764Y93826D01*
X133697Y93839D01*
X132839Y93669D01*
X132111Y93182D01*
X131625Y92455D01*
X131454Y91596D01*
X131625Y90738D01*
X132111Y90010D01*
X132132Y89996D01*
X132037Y89458D01*
X131925Y89431D01*
X130027Y91330D01*
Y94872D01*
X130084Y94910D01*
X130570Y95638D01*
X130740Y96496D01*
X130570Y97355D01*
X130084Y98082D01*
X129356Y98569D01*
X128497Y98739D01*
X127639Y98569D01*
X126911Y98082D01*
X126425Y97355D01*
X126254Y96496D01*
X126425Y95638D01*
X126911Y94910D01*
X126968Y94872D01*
Y90696D01*
X127084Y90111D01*
X127416Y89615D01*
X130416Y86615D01*
X130912Y86283D01*
X131498Y86167D01*
X145797D01*
X146383Y86283D01*
X146817Y86573D01*
X147111Y86182D01*
X146929Y85909D01*
X146625Y85455D01*
X146554Y85096D01*
X148197D01*
Y86740D01*
X147839Y86669D01*
X147239Y86267D01*
X146920Y86656D01*
X147167Y86903D01*
X149661Y89397D01*
X149993Y89893D01*
X150109Y90478D01*
Y93443D01*
X150434Y93660D01*
X150920Y94388D01*
X151091Y95246D01*
X150920Y96105D01*
X150434Y96832D01*
X149706Y97319D01*
X148847Y97489D01*
X147989Y97319D01*
X147261Y96832D01*
X146775Y96105D01*
X146604Y95246D01*
X146775Y94388D01*
X147050Y93976D01*
Y91112D01*
X145164Y89226D01*
X135009D01*
X134858Y89726D01*
X135284Y90010D01*
X135770Y90738D01*
X135941Y91596D01*
X135927Y91663D01*
X143131Y98867D01*
X147073D01*
X147111Y98810D01*
X147839Y98324D01*
X148697Y98153D01*
X149556Y98324D01*
X150284Y98810D01*
X150770Y99538D01*
X150941Y100396D01*
X150770Y101255D01*
X150284Y101982D01*
X149556Y102469D01*
X148697Y102639D01*
D02*
G37*
G36*
X119241Y99796D02*
X117597D01*
Y98153D01*
X117956Y98224D01*
X118684Y98710D01*
X119170Y99438D01*
X119241Y99796D01*
D02*
G37*
G36*
X116597D02*
X114954D01*
X115025Y99438D01*
X115511Y98710D01*
X116239Y98224D01*
X116597Y98153D01*
Y99796D01*
D02*
G37*
G36*
X104841D02*
X103197D01*
Y98153D01*
X103556Y98224D01*
X104283Y98710D01*
X104770Y99438D01*
X104841Y99796D01*
D02*
G37*
G36*
X102197D02*
X100554D01*
X100625Y99438D01*
X101111Y98710D01*
X101839Y98224D01*
X102197Y98153D01*
Y99796D01*
D02*
G37*
G36*
X226497Y112584D02*
X225517Y112455D01*
X224603Y112077D01*
X223819Y111475D01*
X223217Y110690D01*
X222838Y109777D01*
X222709Y108796D01*
X222838Y107816D01*
X223217Y106902D01*
X223819Y106117D01*
X224603Y105515D01*
X225517Y105137D01*
X225734Y105108D01*
Y104604D01*
X225517Y104575D01*
X224603Y104197D01*
X223819Y103595D01*
X223217Y102810D01*
X222838Y101897D01*
X222709Y100916D01*
X222838Y99936D01*
X223217Y99022D01*
X223819Y98238D01*
X224603Y97635D01*
X225517Y97257D01*
X226497Y97128D01*
X227478Y97257D01*
X228392Y97635D01*
X229176Y98238D01*
X229778Y99022D01*
X230157Y99936D01*
X230286Y100916D01*
X230157Y101897D01*
X229778Y102810D01*
X229176Y103595D01*
X228392Y104197D01*
X227478Y104575D01*
X227260Y104604D01*
Y105108D01*
X227478Y105137D01*
X228392Y105515D01*
X229176Y106117D01*
X229778Y106902D01*
X230157Y107816D01*
X230286Y108796D01*
X230157Y109777D01*
X229778Y110690D01*
X229176Y111475D01*
X228392Y112077D01*
X227478Y112455D01*
X226497Y112584D01*
D02*
G37*
G36*
X22506Y104667D02*
X21377Y104519D01*
X20324Y104083D01*
X19421Y103389D01*
X18727Y102485D01*
X18291Y101433D01*
X18142Y100303D01*
X18291Y99174D01*
X18727Y98121D01*
X19421Y97217D01*
X20324Y96524D01*
X21377Y96088D01*
X22506Y95939D01*
X23636Y96088D01*
X24688Y96524D01*
X25592Y97217D01*
X26286Y98121D01*
X26722Y99174D01*
X26871Y100303D01*
X26722Y101433D01*
X26286Y102485D01*
X25592Y103389D01*
X24688Y104083D01*
X23636Y104519D01*
X22506Y104667D01*
D02*
G37*
G36*
X190797Y94740D02*
Y93096D01*
X192441D01*
X192370Y93455D01*
X191884Y94182D01*
X191156Y94669D01*
X190797Y94740D01*
D02*
G37*
G36*
X189797D02*
X189439Y94669D01*
X188711Y94182D01*
X188225Y93455D01*
X188154Y93096D01*
X189797D01*
Y94740D01*
D02*
G37*
G36*
X33688Y99214D02*
X32559Y99066D01*
X31506Y98630D01*
X30602Y97936D01*
X29909Y97032D01*
X29473Y95980D01*
X29324Y94850D01*
X29473Y93721D01*
X29909Y92668D01*
X30602Y91764D01*
X31506Y91071D01*
X32559Y90635D01*
X33688Y90486D01*
X34818Y90635D01*
X35870Y91071D01*
X36774Y91764D01*
X37468Y92668D01*
X37904Y93721D01*
X38052Y94850D01*
X37904Y95980D01*
X37468Y97032D01*
X36774Y97936D01*
X35870Y98630D01*
X34818Y99066D01*
X33688Y99214D01*
D02*
G37*
G36*
X192441Y92096D02*
X190797D01*
Y90453D01*
X191156Y90524D01*
X191884Y91010D01*
X192370Y91738D01*
X192441Y92096D01*
D02*
G37*
G36*
X189797D02*
X188154D01*
X188225Y91738D01*
X188711Y91010D01*
X189439Y90524D01*
X189797Y90453D01*
Y92096D01*
D02*
G37*
G36*
X226497Y94864D02*
X225517Y94735D01*
X224603Y94357D01*
X223819Y93755D01*
X223217Y92970D01*
X222838Y92057D01*
X222709Y91076D01*
X222838Y90096D01*
X223217Y89182D01*
X223819Y88398D01*
X224603Y87795D01*
X225517Y87417D01*
X226497Y87288D01*
X227478Y87417D01*
X228392Y87795D01*
X229176Y88398D01*
X229778Y89182D01*
X230157Y90096D01*
X230286Y91076D01*
X230157Y92057D01*
X229778Y92970D01*
X229176Y93755D01*
X228392Y94357D01*
X227478Y94735D01*
X226497Y94864D01*
D02*
G37*
G36*
X149197Y86740D02*
Y85096D01*
X150841D01*
X150770Y85455D01*
X150284Y86182D01*
X149556Y86669D01*
X149197Y86740D01*
D02*
G37*
G36*
X22506Y93761D02*
X21377Y93613D01*
X20324Y93177D01*
X19421Y92483D01*
X18727Y91579D01*
X18291Y90527D01*
X18142Y89397D01*
X18291Y88268D01*
X18727Y87215D01*
X19421Y86311D01*
X20324Y85618D01*
X21377Y85182D01*
X22506Y85033D01*
X23636Y85182D01*
X24688Y85618D01*
X25592Y86311D01*
X26286Y87215D01*
X26722Y88268D01*
X26871Y89397D01*
X26722Y90527D01*
X26286Y91579D01*
X25592Y92483D01*
X24688Y93177D01*
X23636Y93613D01*
X22506Y93761D01*
D02*
G37*
G36*
X190797Y86340D02*
Y84696D01*
X192441D01*
X192370Y85055D01*
X191884Y85782D01*
X191156Y86269D01*
X190797Y86340D01*
D02*
G37*
G36*
X189797D02*
X189439Y86269D01*
X188711Y85782D01*
X188225Y85055D01*
X188154Y84696D01*
X189797D01*
Y86340D01*
D02*
G37*
G36*
X150841Y84096D02*
X149197D01*
Y82453D01*
X149556Y82524D01*
X150284Y83010D01*
X150770Y83738D01*
X150841Y84096D01*
D02*
G37*
G36*
X148197D02*
X146554D01*
X146625Y83738D01*
X147111Y83010D01*
X147839Y82524D01*
X148197Y82453D01*
Y84096D01*
D02*
G37*
G36*
X192441Y83696D02*
X190797D01*
Y82053D01*
X191156Y82124D01*
X191884Y82610D01*
X192370Y83338D01*
X192441Y83696D01*
D02*
G37*
G36*
X189797D02*
X188154D01*
X188225Y83338D01*
X188711Y82610D01*
X189439Y82124D01*
X189797Y82053D01*
Y83696D01*
D02*
G37*
G36*
X141197Y83140D02*
Y81496D01*
X142841D01*
X142770Y81855D01*
X142283Y82582D01*
X141556Y83069D01*
X141197Y83140D01*
D02*
G37*
G36*
X140197D02*
X139839Y83069D01*
X139111Y82582D01*
X138625Y81855D01*
X138554Y81496D01*
X140197D01*
Y83140D01*
D02*
G37*
G36*
X117597D02*
Y81496D01*
X119241D01*
X119170Y81855D01*
X118684Y82582D01*
X117956Y83069D01*
X117597Y83140D01*
D02*
G37*
G36*
X116597D02*
X116239Y83069D01*
X115511Y82582D01*
X115025Y81855D01*
X114954Y81496D01*
X116597D01*
Y83140D01*
D02*
G37*
G36*
X33688Y88309D02*
X32559Y88161D01*
X31506Y87725D01*
X30602Y87031D01*
X29909Y86127D01*
X29473Y85075D01*
X29324Y83945D01*
X29473Y82816D01*
X29909Y81763D01*
X30602Y80859D01*
X31506Y80166D01*
X32559Y79730D01*
X33688Y79581D01*
X34818Y79730D01*
X35870Y80166D01*
X36774Y80859D01*
X37468Y81763D01*
X37904Y82816D01*
X38052Y83945D01*
X37904Y85075D01*
X37468Y86127D01*
X36774Y87031D01*
X35870Y87725D01*
X34818Y88161D01*
X33688Y88309D01*
D02*
G37*
G36*
X58497Y109939D02*
X57639Y109769D01*
X56911Y109282D01*
X56425Y108555D01*
X56254Y107696D01*
X56425Y106838D01*
X56911Y106110D01*
X56968Y106072D01*
Y83296D01*
X57084Y82711D01*
X57416Y82215D01*
X59268Y80363D01*
X59254Y80296D01*
X59425Y79438D01*
X59911Y78710D01*
X60639Y78224D01*
X61497Y78053D01*
X62356Y78224D01*
X63083Y78710D01*
X63570Y79438D01*
X63740Y80296D01*
X63570Y81155D01*
X63083Y81882D01*
X62356Y82369D01*
X61497Y82539D01*
X61431Y82526D01*
X60027Y83930D01*
Y106072D01*
X60084Y106110D01*
X60570Y106838D01*
X60741Y107696D01*
X60570Y108555D01*
X60084Y109282D01*
X59356Y109769D01*
X58497Y109939D01*
D02*
G37*
G36*
X190797Y78340D02*
Y76696D01*
X192441D01*
X192370Y77055D01*
X191884Y77782D01*
X191156Y78269D01*
X190797Y78340D01*
D02*
G37*
G36*
X189797D02*
X189439Y78269D01*
X188711Y77782D01*
X188225Y77055D01*
X188154Y76696D01*
X189797D01*
Y78340D01*
D02*
G37*
G36*
X133697D02*
Y76696D01*
X135341D01*
X135270Y77055D01*
X134783Y77782D01*
X134056Y78269D01*
X133697Y78340D01*
D02*
G37*
G36*
X132697D02*
X132339Y78269D01*
X131611Y77782D01*
X131125Y77055D01*
X131054Y76696D01*
X132697D01*
Y78340D01*
D02*
G37*
G36*
X126897D02*
Y76696D01*
X128541D01*
X128470Y77055D01*
X127983Y77782D01*
X127256Y78269D01*
X126897Y78340D01*
D02*
G37*
G36*
X125897D02*
X125539Y78269D01*
X124811Y77782D01*
X124325Y77055D01*
X124254Y76696D01*
X125897D01*
Y78340D01*
D02*
G37*
G36*
X119241Y80496D02*
X114954D01*
X115025Y80138D01*
X115511Y79410D01*
X116239Y78924D01*
X116605Y78851D01*
Y78341D01*
X116239Y78269D01*
X115511Y77782D01*
X115025Y77055D01*
X114954Y76696D01*
X119241D01*
X119170Y77055D01*
X118684Y77782D01*
X117956Y78269D01*
X117590Y78341D01*
Y78851D01*
X117956Y78924D01*
X118684Y79410D01*
X119170Y80138D01*
X119241Y80496D01*
D02*
G37*
G36*
X22506Y82856D02*
X21377Y82708D01*
X20324Y82272D01*
X19421Y81578D01*
X18727Y80674D01*
X18291Y79622D01*
X18142Y78492D01*
X18291Y77363D01*
X18727Y76310D01*
X19421Y75406D01*
X20324Y74713D01*
X21377Y74277D01*
X22506Y74128D01*
X23636Y74277D01*
X24688Y74713D01*
X25592Y75406D01*
X26286Y76310D01*
X26722Y77363D01*
X26871Y78492D01*
X26722Y79622D01*
X26286Y80674D01*
X25592Y81578D01*
X24688Y82272D01*
X23636Y82708D01*
X22506Y82856D01*
D02*
G37*
G36*
X192441Y75696D02*
X190797D01*
Y74053D01*
X191156Y74124D01*
X191884Y74610D01*
X192370Y75338D01*
X192441Y75696D01*
D02*
G37*
G36*
X189797D02*
X188154D01*
X188225Y75338D01*
X188711Y74610D01*
X189439Y74124D01*
X189797Y74053D01*
Y75696D01*
D02*
G37*
G36*
X140197D02*
X138554D01*
X138625Y75338D01*
X139111Y74610D01*
X139839Y74124D01*
X140197Y74053D01*
Y75696D01*
D02*
G37*
G36*
X135341D02*
X133697D01*
Y74053D01*
X134056Y74124D01*
X134783Y74610D01*
X135270Y75338D01*
X135341Y75696D01*
D02*
G37*
G36*
X132697D02*
X131054D01*
X131125Y75338D01*
X131611Y74610D01*
X132339Y74124D01*
X132697Y74053D01*
Y75696D01*
D02*
G37*
G36*
X128541D02*
X126897D01*
Y74053D01*
X127256Y74124D01*
X127983Y74610D01*
X128470Y75338D01*
X128541Y75696D01*
D02*
G37*
G36*
X125897D02*
X124254D01*
X124325Y75338D01*
X124811Y74610D01*
X125539Y74124D01*
X125897Y74053D01*
Y75696D01*
D02*
G37*
G36*
X119241D02*
X117597D01*
Y74053D01*
X117956Y74124D01*
X118684Y74610D01*
X119170Y75338D01*
X119241Y75696D01*
D02*
G37*
G36*
X116597D02*
X114954D01*
X115025Y75338D01*
X115511Y74610D01*
X116239Y74124D01*
X116597Y74053D01*
Y75696D01*
D02*
G37*
G36*
X67997Y74240D02*
Y72596D01*
X69641D01*
X69570Y72955D01*
X69083Y73682D01*
X68356Y74169D01*
X67997Y74240D01*
D02*
G37*
G36*
X66997D02*
X66639Y74169D01*
X65911Y73682D01*
X65425Y72955D01*
X65354Y72596D01*
X66997D01*
Y74240D01*
D02*
G37*
G36*
X62197D02*
Y72596D01*
X63841D01*
X63770Y72955D01*
X63283Y73682D01*
X62556Y74169D01*
X62197Y74240D01*
D02*
G37*
G36*
X61197D02*
X60839Y74169D01*
X60111Y73682D01*
X59625Y72955D01*
X59554Y72596D01*
X61197D01*
Y74240D01*
D02*
G37*
G36*
X237197Y86291D02*
X235767Y86150D01*
X234391Y85732D01*
X233122Y85055D01*
X232011Y84143D01*
X231099Y83031D01*
X230421Y81763D01*
X230004Y80387D01*
X229863Y78956D01*
X230004Y77525D01*
X230421Y76149D01*
X231099Y74881D01*
X232011Y73770D01*
X233122Y72858D01*
X234391Y72180D01*
X235767Y71763D01*
X237197Y71622D01*
X238628Y71763D01*
X240004Y72180D01*
X241272Y72858D01*
X242384Y73770D01*
X243296Y74881D01*
X243974Y76149D01*
X244391Y77525D01*
X244532Y78956D01*
X244391Y80387D01*
X243974Y81763D01*
X243296Y83031D01*
X242384Y84143D01*
X241272Y85055D01*
X240004Y85732D01*
X238628Y86150D01*
X237197Y86291D01*
D02*
G37*
G36*
X69641Y71596D02*
X67997D01*
Y69953D01*
X68356Y70024D01*
X69083Y70510D01*
X69570Y71238D01*
X69641Y71596D01*
D02*
G37*
G36*
X66997D02*
X65354D01*
X65425Y71238D01*
X65911Y70510D01*
X66639Y70024D01*
X66997Y69953D01*
Y71596D01*
D02*
G37*
G36*
X63841D02*
X62197D01*
Y69953D01*
X62556Y70024D01*
X63283Y70510D01*
X63770Y71238D01*
X63841Y71596D01*
D02*
G37*
G36*
X61197D02*
X59554D01*
X59625Y71238D01*
X60111Y70510D01*
X60839Y70024D01*
X61197Y69953D01*
Y71596D01*
D02*
G37*
G36*
X108397Y100239D02*
X107539Y100069D01*
X106811Y99582D01*
X106325Y98855D01*
X106154Y97996D01*
X106325Y97138D01*
X106811Y96410D01*
X106868Y96372D01*
Y71718D01*
X106425Y71055D01*
X106254Y70196D01*
X106425Y69338D01*
X106911Y68610D01*
X107639Y68124D01*
X108497Y67953D01*
X109356Y68124D01*
X110083Y68610D01*
X110570Y69338D01*
X110740Y70196D01*
X110570Y71055D01*
X110083Y71782D01*
X109927Y71887D01*
Y96372D01*
X109984Y96410D01*
X110470Y97138D01*
X110641Y97996D01*
X110470Y98855D01*
X109984Y99582D01*
X109256Y100069D01*
X108397Y100239D01*
D02*
G37*
G36*
X142841Y80496D02*
X138554D01*
X138625Y80138D01*
X139111Y79410D01*
X139839Y78924D01*
X140205Y78851D01*
Y78341D01*
X139839Y78269D01*
X139111Y77782D01*
X138625Y77055D01*
X138554Y76696D01*
X140697D01*
Y76196D01*
X141197D01*
Y74053D01*
X141556Y74124D01*
X142283Y74610D01*
X142413Y74804D01*
X142913Y74652D01*
Y67896D01*
X143049Y67213D01*
X143436Y66635D01*
X150024Y60046D01*
X150125Y59538D01*
X150611Y58810D01*
X151339Y58324D01*
X152197Y58153D01*
X153056Y58324D01*
X153784Y58810D01*
X154270Y59538D01*
X154440Y60396D01*
X154270Y61255D01*
X153784Y61982D01*
X153056Y62469D01*
X152547Y62570D01*
X146482Y68635D01*
Y74807D01*
X146770Y75238D01*
X146941Y76096D01*
X146770Y76955D01*
X146283Y77682D01*
X145556Y78169D01*
X144697Y78339D01*
X143839Y78169D01*
X143111Y77682D01*
X142981Y77487D01*
X142481D01*
X142283Y77782D01*
X141556Y78269D01*
X141190Y78341D01*
Y78851D01*
X141556Y78924D01*
X142283Y79410D01*
X142770Y80138D01*
X142841Y80496D01*
D02*
G37*
G36*
X146497Y58040D02*
Y56396D01*
X148141D01*
X148070Y56755D01*
X147583Y57482D01*
X146856Y57969D01*
X146497Y58040D01*
D02*
G37*
G36*
X145497D02*
X145139Y57969D01*
X144411Y57482D01*
X143925Y56755D01*
X143854Y56396D01*
X145497D01*
Y58040D01*
D02*
G37*
G36*
X108997D02*
Y56396D01*
X110641D01*
X110570Y56755D01*
X110083Y57482D01*
X109356Y57969D01*
X108997Y58040D01*
D02*
G37*
G36*
X107997D02*
X107639Y57969D01*
X106911Y57482D01*
X106425Y56755D01*
X106354Y56396D01*
X107997D01*
Y58040D01*
D02*
G37*
G36*
X148141Y55396D02*
X146497D01*
Y53753D01*
X146856Y53824D01*
X147583Y54310D01*
X148070Y55038D01*
X148141Y55396D01*
D02*
G37*
G36*
X145497D02*
X143854D01*
X143925Y55038D01*
X144411Y54310D01*
X145139Y53824D01*
X145497Y53753D01*
Y55396D01*
D02*
G37*
G36*
X110641D02*
X108997D01*
Y53753D01*
X109356Y53824D01*
X110083Y54310D01*
X110570Y55038D01*
X110641Y55396D01*
D02*
G37*
G36*
X107997D02*
X106354D01*
X106425Y55038D01*
X106911Y54310D01*
X107639Y53824D01*
X107997Y53753D01*
Y55396D01*
D02*
G37*
G36*
X183897Y70939D02*
X183039Y70769D01*
X182311Y70282D01*
X181825Y69555D01*
X181654Y68696D01*
X181825Y67838D01*
X182311Y67110D01*
X182368Y67072D01*
Y57630D01*
X178464Y53726D01*
X166421D01*
X166384Y53782D01*
X165656Y54269D01*
X164797Y54439D01*
X163939Y54269D01*
X163211Y53782D01*
X162725Y53055D01*
X162554Y52196D01*
X162725Y51338D01*
X163211Y50610D01*
X163939Y50124D01*
X164797Y49953D01*
X165656Y50124D01*
X166384Y50610D01*
X166421Y50667D01*
X179097D01*
X179683Y50783D01*
X180179Y51115D01*
X184979Y55915D01*
X185310Y56411D01*
X185427Y56996D01*
Y67072D01*
X185484Y67110D01*
X185970Y67838D01*
X186141Y68696D01*
X185970Y69555D01*
X185484Y70282D01*
X184756Y70769D01*
X183897Y70939D01*
D02*
G37*
G36*
X152697Y50040D02*
Y48396D01*
X154341D01*
X154270Y48755D01*
X153784Y49482D01*
X153056Y49968D01*
X152697Y50040D01*
D02*
G37*
G36*
X151697D02*
X151339Y49968D01*
X150611Y49482D01*
X150125Y48755D01*
X150054Y48396D01*
X151697D01*
Y50040D01*
D02*
G37*
G36*
X146497D02*
Y48396D01*
X148141D01*
X148070Y48755D01*
X147583Y49482D01*
X146856Y49968D01*
X146497Y50040D01*
D02*
G37*
G36*
X145497D02*
X145139Y49968D01*
X144411Y49482D01*
X143925Y48755D01*
X143854Y48396D01*
X145497D01*
Y50040D01*
D02*
G37*
G36*
X141197D02*
Y48396D01*
X142841D01*
X142770Y48755D01*
X142283Y49482D01*
X141556Y49968D01*
X141197Y50040D01*
D02*
G37*
G36*
X140197D02*
X139839Y49968D01*
X139111Y49482D01*
X138625Y48755D01*
X138554Y48396D01*
X140197D01*
Y50040D01*
D02*
G37*
G36*
X133397D02*
Y48396D01*
X135041D01*
X134970Y48755D01*
X134484Y49482D01*
X133756Y49968D01*
X133397Y50040D01*
D02*
G37*
G36*
X132397D02*
X132039Y49968D01*
X131311Y49482D01*
X130825Y48755D01*
X130754Y48396D01*
X132397D01*
Y50040D01*
D02*
G37*
G36*
X125497D02*
Y48396D01*
X127141D01*
X127070Y48755D01*
X126584Y49482D01*
X125856Y49968D01*
X125497Y50040D01*
D02*
G37*
G36*
X124497D02*
X124139Y49968D01*
X123411Y49482D01*
X122925Y48755D01*
X122854Y48396D01*
X124497D01*
Y50040D01*
D02*
G37*
G36*
X117597D02*
Y48396D01*
X119241D01*
X119170Y48755D01*
X118684Y49482D01*
X117956Y49968D01*
X117597Y50040D01*
D02*
G37*
G36*
X116597D02*
X116239Y49968D01*
X115511Y49482D01*
X115025Y48755D01*
X114954Y48396D01*
X116597D01*
Y50040D01*
D02*
G37*
G36*
X108997D02*
Y48396D01*
X110641D01*
X110570Y48755D01*
X110083Y49482D01*
X109356Y49968D01*
X108997Y50040D01*
D02*
G37*
G36*
X107997D02*
X107639Y49968D01*
X106911Y49482D01*
X106425Y48755D01*
X106354Y48396D01*
X107997D01*
Y50040D01*
D02*
G37*
G36*
X154341Y47396D02*
X152697D01*
Y45753D01*
X153056Y45824D01*
X153784Y46310D01*
X154270Y47038D01*
X154341Y47396D01*
D02*
G37*
G36*
X151697D02*
X150054D01*
X150125Y47038D01*
X150611Y46310D01*
X151339Y45824D01*
X151697Y45753D01*
Y47396D01*
D02*
G37*
G36*
X148141D02*
X146497D01*
Y45753D01*
X146856Y45824D01*
X147583Y46310D01*
X148070Y47038D01*
X148141Y47396D01*
D02*
G37*
G36*
X145497D02*
X143854D01*
X143925Y47038D01*
X144411Y46310D01*
X145139Y45824D01*
X145497Y45753D01*
Y47396D01*
D02*
G37*
G36*
X142841D02*
X141197D01*
Y45753D01*
X141556Y45824D01*
X142283Y46310D01*
X142770Y47038D01*
X142841Y47396D01*
D02*
G37*
G36*
X140197D02*
X138554D01*
X138625Y47038D01*
X139111Y46310D01*
X139839Y45824D01*
X140197Y45753D01*
Y47396D01*
D02*
G37*
G36*
X135041D02*
X133397D01*
Y45753D01*
X133756Y45824D01*
X134484Y46310D01*
X134970Y47038D01*
X135041Y47396D01*
D02*
G37*
G36*
X132397D02*
X130754D01*
X130825Y47038D01*
X131311Y46310D01*
X132039Y45824D01*
X132397Y45753D01*
Y47396D01*
D02*
G37*
G36*
X127141D02*
X125497D01*
Y45753D01*
X125856Y45824D01*
X126584Y46310D01*
X127070Y47038D01*
X127141Y47396D01*
D02*
G37*
G36*
X124497D02*
X122854D01*
X122925Y47038D01*
X123411Y46310D01*
X124139Y45824D01*
X124497Y45753D01*
Y47396D01*
D02*
G37*
G36*
X119241D02*
X117597D01*
Y45753D01*
X117956Y45824D01*
X118684Y46310D01*
X119170Y47038D01*
X119241Y47396D01*
D02*
G37*
G36*
X116597D02*
X114954D01*
X115025Y47038D01*
X115511Y46310D01*
X116239Y45824D01*
X116597Y45753D01*
Y47396D01*
D02*
G37*
G36*
X110641D02*
X108997D01*
Y45753D01*
X109356Y45824D01*
X110083Y46310D01*
X110570Y47038D01*
X110641Y47396D01*
D02*
G37*
G36*
X107997D02*
X106354D01*
X106425Y47038D01*
X106911Y46310D01*
X107639Y45824D01*
X107997Y45753D01*
Y47396D01*
D02*
G37*
G36*
X28097Y61643D02*
X26450Y61513D01*
X24843Y61127D01*
X23316Y60495D01*
X21906Y59631D01*
X20650Y58558D01*
X19576Y57301D01*
X18713Y55892D01*
X18080Y54365D01*
X17695Y52758D01*
X17565Y51110D01*
X17695Y49463D01*
X18080Y47855D01*
X18713Y46329D01*
X19576Y44919D01*
X20650Y43663D01*
X21906Y42589D01*
X23316Y41726D01*
X24843Y41093D01*
X26450Y40707D01*
X28097Y40578D01*
X29745Y40707D01*
X31352Y41093D01*
X32879Y41726D01*
X34288Y42589D01*
X35545Y43663D01*
X36618Y44919D01*
X37482Y46329D01*
X38114Y47855D01*
X38500Y49463D01*
X38630Y51110D01*
X38500Y52758D01*
X38114Y54365D01*
X37482Y55892D01*
X36618Y57301D01*
X35545Y58558D01*
X34288Y59631D01*
X32879Y60495D01*
X31352Y61127D01*
X29745Y61513D01*
X28097Y61643D01*
D02*
G37*
G36*
X260700Y36312D02*
X258226Y36118D01*
X255814Y35539D01*
X253521Y34589D01*
X251406Y33293D01*
X249519Y31681D01*
X247907Y29794D01*
X246611Y27679D01*
X245661Y25386D01*
X245082Y22974D01*
X244887Y20500D01*
X245082Y18026D01*
X245661Y15614D01*
X246611Y13321D01*
X247907Y11206D01*
X249519Y9319D01*
X251406Y7707D01*
X253521Y6411D01*
X255814Y5461D01*
X258226Y4882D01*
X260700Y4688D01*
X263174Y4882D01*
X265586Y5461D01*
X267879Y6411D01*
X269994Y7707D01*
X271881Y9319D01*
X273493Y11206D01*
X274789Y13321D01*
X275739Y15614D01*
X276318Y18026D01*
X276513Y20500D01*
X276318Y22974D01*
X275739Y25386D01*
X274789Y27679D01*
X273493Y29794D01*
X271881Y31681D01*
X269994Y33293D01*
X267879Y34589D01*
X265586Y35539D01*
X263174Y36118D01*
X260700Y36312D01*
D02*
G37*
G36*
X20200D02*
X17726Y36118D01*
X15314Y35539D01*
X13021Y34589D01*
X10906Y33293D01*
X9019Y31681D01*
X7407Y29794D01*
X6111Y27679D01*
X5161Y25386D01*
X4582Y22974D01*
X4388Y20500D01*
X4582Y18026D01*
X5161Y15614D01*
X6111Y13321D01*
X7407Y11206D01*
X9019Y9319D01*
X10906Y7707D01*
X13021Y6411D01*
X15314Y5461D01*
X17726Y4882D01*
X20200Y4688D01*
X22674Y4882D01*
X25086Y5461D01*
X27379Y6411D01*
X29494Y7707D01*
X31381Y9319D01*
X32993Y11206D01*
X34289Y13321D01*
X35239Y15614D01*
X35818Y18026D01*
X36013Y20500D01*
X35818Y22974D01*
X35239Y25386D01*
X34289Y27679D01*
X32993Y29794D01*
X31381Y31681D01*
X29494Y33293D01*
X27379Y34589D01*
X25086Y35539D01*
X22674Y36118D01*
X20200Y36312D01*
D02*
G37*
%LPD*%
D10*
X164797Y52196D02*
X179097D01*
X183897Y56996D01*
Y68696D01*
X108397Y70296D02*
X108497Y70196D01*
X108397Y70296D02*
Y97996D01*
X128497Y90696D02*
X131498Y87696D01*
X145797D01*
X148580Y90478D01*
Y94978D01*
X128497Y90696D02*
Y96496D01*
X133697Y91596D02*
X142497Y100396D01*
X148580Y94978D02*
X148847Y95246D01*
X142497Y100396D02*
X148697D01*
X58497Y83296D02*
Y107696D01*
Y83296D02*
X61497Y80296D01*
D32*
X188338Y108496D02*
X189597D01*
X187287Y107446D02*
X188338Y108496D01*
X187287Y98845D02*
Y107446D01*
X186238Y97795D02*
X187287Y98845D01*
X184837Y97795D02*
X186238D01*
X183788Y98845D02*
X184837Y97795D01*
X183788Y98845D02*
Y111596D01*
X182738Y112646D02*
X183788Y111596D01*
X181337Y112646D02*
X182738D01*
X180288Y111596D02*
X181337Y112646D01*
X180288Y98845D02*
Y111596D01*
X179237Y97795D02*
X180288Y98845D01*
X177838Y97795D02*
X179237D01*
X176787Y98845D02*
X177838Y97795D01*
X176787Y98845D02*
Y111596D01*
X175738Y112646D02*
X176787Y111596D01*
X174337Y112646D02*
X175738D01*
X173287Y111596D02*
X174337Y112646D01*
X173287Y109546D02*
Y111596D01*
X172238Y108496D02*
X173287Y109546D01*
X171487Y108496D02*
X172238D01*
X144697Y67896D02*
X152197Y60396D01*
X144697Y67896D02*
Y76096D01*
X189597Y108496D02*
X191797D01*
X191897Y108596D01*
X169097Y108496D02*
X171487D01*
D33*
X22506Y78492D02*
D03*
X33688Y83945D02*
D03*
X22506Y89397D02*
D03*
X33688Y94850D02*
D03*
X22506Y100303D02*
D03*
X33688Y105756D02*
D03*
X22506Y111209D02*
D03*
X33688Y116661D02*
D03*
X22506Y122114D02*
D03*
D34*
X28097Y149496D02*
D03*
Y51110D02*
D03*
D35*
X237197Y78956D02*
D03*
Y130696D02*
D03*
D36*
X226497Y91076D02*
D03*
Y118636D02*
D03*
Y100916D02*
D03*
Y108796D02*
D03*
D37*
X260700Y20500D02*
D03*
X20200D02*
D03*
X260700Y190800D02*
D03*
X20200D02*
D03*
D38*
X132897Y47896D02*
D03*
X140697D02*
D03*
X108497D02*
D03*
X117097D02*
D03*
X152197D02*
D03*
X145997D02*
D03*
X124997D02*
D03*
X164797Y52196D02*
D03*
X108497Y55896D02*
D03*
X145997D02*
D03*
X152197Y60396D02*
D03*
X183897Y68696D02*
D03*
X108497Y70196D02*
D03*
X61697Y72096D02*
D03*
X67497D02*
D03*
X144697Y76096D02*
D03*
X140697Y76196D02*
D03*
X133197D02*
D03*
X190297D02*
D03*
X126397D02*
D03*
X117097D02*
D03*
X61497Y80296D02*
D03*
X117097Y80996D02*
D03*
X140697D02*
D03*
X190297Y84196D02*
D03*
X148697Y84596D02*
D03*
X133697Y91596D02*
D03*
X190297Y92596D02*
D03*
X148847Y95246D02*
D03*
X128497Y96496D02*
D03*
X108397Y97996D02*
D03*
X102697Y100296D02*
D03*
X117097D02*
D03*
X148697Y100396D02*
D03*
X216097Y104696D02*
D03*
X169097Y108496D02*
D03*
X191897Y108596D02*
D03*
X117097Y109196D02*
D03*
X148697D02*
D03*
X196930Y113180D02*
D03*
X208897D02*
D03*
X135597Y116996D02*
D03*
X148697D02*
D03*
X126597D02*
D03*
X117097D02*
D03*
X79297Y123796D02*
D03*
X67497D02*
D03*
X216097Y129096D02*
D03*
X117097Y130796D02*
D03*
X216097Y135096D02*
D03*
X126597Y138596D02*
D03*
Y148796D02*
D03*
X58497Y107696D02*
D03*
M02*
