G04*
G04 #@! TF.GenerationSoftware,Altium Limited,Altium Designer,20.1.10 (176)*
G04*
G04 Layer_Color=32896*
%FSLAX25Y25*%
%MOIN*%
G70*
G04*
G04 #@! TF.SameCoordinates,3FE8EB72-B5E6-4F20-A0E2-AFB057232DD4*
G04*
G04*
G04 #@! TF.FilePolarity,Positive*
G04*
G01*
G75*
G36*
X15793Y93358D02*
X15922Y93346D01*
X16039Y93325D01*
X16093Y93317D01*
X16139Y93304D01*
X16184Y93291D01*
X16222Y93283D01*
X16255Y93275D01*
X16284Y93262D01*
X16309Y93258D01*
X16326Y93250D01*
X16334Y93246D01*
X16338D01*
X16446Y93200D01*
X16542Y93146D01*
X16625Y93088D01*
X16696Y93034D01*
X16754Y92984D01*
X16796Y92942D01*
X16808Y92925D01*
X16821Y92913D01*
X16825Y92909D01*
X16829Y92905D01*
X16883Y92838D01*
X16925Y92767D01*
X16962Y92697D01*
X16991Y92630D01*
X17012Y92572D01*
X17025Y92526D01*
X17033Y92509D01*
Y92497D01*
X17037Y92489D01*
Y92484D01*
X17050Y92414D01*
X17062Y92331D01*
X17070Y92247D01*
X17075Y92164D01*
X17079Y92089D01*
Y90983D01*
X14200D01*
Y92019D01*
X14204Y92114D01*
X14208Y92202D01*
X14217Y92281D01*
X14225Y92347D01*
X14233Y92405D01*
X14238Y92447D01*
X14242Y92459D01*
X14246Y92472D01*
Y92480D01*
X14267Y92555D01*
X14291Y92622D01*
X14312Y92680D01*
X14337Y92730D01*
X14358Y92772D01*
X14375Y92801D01*
X14387Y92817D01*
X14391Y92826D01*
X14429Y92880D01*
X14475Y92925D01*
X14516Y92971D01*
X14558Y93009D01*
X14595Y93042D01*
X14624Y93067D01*
X14645Y93084D01*
X14653Y93088D01*
X14720Y93129D01*
X14791Y93171D01*
X14857Y93204D01*
X14924Y93229D01*
X14982Y93254D01*
X15028Y93271D01*
X15044Y93275D01*
X15057Y93279D01*
X15065Y93283D01*
X15069D01*
X15169Y93308D01*
X15269Y93329D01*
X15365Y93341D01*
X15456Y93354D01*
X15535Y93358D01*
X15569D01*
X15598Y93362D01*
X15619D01*
X15639D01*
X15648D01*
X15652D01*
X15793Y93358D01*
D02*
G37*
G36*
X15710Y89564D02*
X17079Y90562D01*
Y90147D01*
X16313Y89573D01*
X16251Y89523D01*
X16193Y89481D01*
X16134Y89439D01*
X16089Y89406D01*
X16047Y89377D01*
X16014Y89356D01*
X15997Y89344D01*
X15989Y89340D01*
X16039Y89310D01*
X16093Y89277D01*
X16151Y89240D01*
X16209Y89202D01*
X16259Y89165D01*
X16301Y89140D01*
X16317Y89127D01*
X16330Y89119D01*
X16334Y89111D01*
X16338D01*
X17079Y88586D01*
Y88133D01*
X15689Y89115D01*
X14200Y88004D01*
Y88462D01*
X15198Y89190D01*
X15223Y89206D01*
X15252Y89227D01*
X15319Y89273D01*
X15352Y89294D01*
X15377Y89310D01*
X15394Y89323D01*
X15398Y89327D01*
X15336Y89369D01*
X15277Y89406D01*
X15257Y89423D01*
X15240Y89431D01*
X15227Y89439D01*
X15223Y89443D01*
X14200Y90171D01*
Y90642D01*
X15710Y89564D01*
D02*
G37*
G36*
X14982Y87434D02*
X15065Y87376D01*
X15140Y87322D01*
X15203Y87268D01*
X15261Y87222D01*
X15302Y87181D01*
X15336Y87147D01*
X15357Y87126D01*
X15365Y87118D01*
X15390Y87085D01*
X15419Y87047D01*
X15465Y86972D01*
X15481Y86939D01*
X15498Y86914D01*
X15506Y86898D01*
X15510Y86889D01*
X15523Y86964D01*
X15535Y87035D01*
X15556Y87097D01*
X15573Y87160D01*
X15594Y87214D01*
X15619Y87264D01*
X15639Y87309D01*
X15660Y87351D01*
X15685Y87384D01*
X15706Y87418D01*
X15723Y87443D01*
X15739Y87463D01*
X15752Y87480D01*
X15764Y87493D01*
X15768Y87497D01*
X15773Y87501D01*
X15814Y87534D01*
X15856Y87567D01*
X15943Y87617D01*
X16030Y87651D01*
X16114Y87675D01*
X16184Y87692D01*
X16214Y87696D01*
X16243D01*
X16263Y87700D01*
X16280D01*
X16288D01*
X16293D01*
X16380Y87696D01*
X16459Y87684D01*
X16534Y87663D01*
X16596Y87642D01*
X16650Y87617D01*
X16692Y87601D01*
X16717Y87584D01*
X16721Y87580D01*
X16725D01*
X16792Y87530D01*
X16850Y87480D01*
X16900Y87426D01*
X16937Y87376D01*
X16966Y87330D01*
X16983Y87293D01*
X16996Y87268D01*
X17000Y87264D01*
Y87260D01*
X17012Y87222D01*
X17025Y87176D01*
X17045Y87085D01*
X17058Y86985D01*
X17070Y86893D01*
X17075Y86806D01*
Y86769D01*
X17079Y86735D01*
Y85400D01*
X14200D01*
Y85783D01*
X15477D01*
Y86274D01*
X15473Y86319D01*
Y86353D01*
X15469Y86382D01*
X15465Y86402D01*
Y86419D01*
X15461Y86427D01*
Y86432D01*
X15440Y86498D01*
X15427Y86527D01*
X15415Y86552D01*
X15402Y86577D01*
X15394Y86594D01*
X15390Y86602D01*
X15386Y86606D01*
X15361Y86640D01*
X15331Y86673D01*
X15269Y86735D01*
X15240Y86765D01*
X15215Y86785D01*
X15198Y86798D01*
X15194Y86802D01*
X15136Y86844D01*
X15074Y86889D01*
X15007Y86935D01*
X14945Y86981D01*
X14886Y87018D01*
X14841Y87047D01*
X14824Y87060D01*
X14811Y87068D01*
X14803Y87076D01*
X14799D01*
X14200Y87455D01*
Y87929D01*
X14982Y87434D01*
D02*
G37*
G36*
X15793Y103833D02*
X15922Y103821D01*
X16039Y103800D01*
X16093Y103792D01*
X16139Y103779D01*
X16184Y103767D01*
X16222Y103759D01*
X16255Y103750D01*
X16284Y103738D01*
X16309Y103734D01*
X16326Y103725D01*
X16334Y103721D01*
X16338D01*
X16446Y103675D01*
X16542Y103621D01*
X16625Y103563D01*
X16696Y103509D01*
X16754Y103459D01*
X16796Y103417D01*
X16808Y103401D01*
X16821Y103388D01*
X16825Y103384D01*
X16829Y103380D01*
X16883Y103313D01*
X16925Y103243D01*
X16962Y103172D01*
X16991Y103105D01*
X17012Y103047D01*
X17025Y103001D01*
X17033Y102985D01*
Y102972D01*
X17037Y102964D01*
Y102960D01*
X17050Y102889D01*
X17062Y102806D01*
X17070Y102723D01*
X17075Y102639D01*
X17079Y102565D01*
Y101458D01*
X14200D01*
Y102494D01*
X14204Y102590D01*
X14208Y102677D01*
X14217Y102756D01*
X14225Y102823D01*
X14233Y102881D01*
X14238Y102922D01*
X14242Y102935D01*
X14246Y102947D01*
Y102956D01*
X14267Y103031D01*
X14291Y103097D01*
X14312Y103155D01*
X14337Y103205D01*
X14358Y103247D01*
X14375Y103276D01*
X14387Y103293D01*
X14391Y103301D01*
X14429Y103355D01*
X14475Y103401D01*
X14516Y103447D01*
X14558Y103484D01*
X14595Y103517D01*
X14624Y103542D01*
X14645Y103559D01*
X14653Y103563D01*
X14720Y103605D01*
X14791Y103646D01*
X14857Y103680D01*
X14924Y103705D01*
X14982Y103729D01*
X15028Y103746D01*
X15044Y103750D01*
X15057Y103754D01*
X15065Y103759D01*
X15069D01*
X15169Y103784D01*
X15269Y103804D01*
X15365Y103817D01*
X15456Y103829D01*
X15535Y103833D01*
X15569D01*
X15598Y103838D01*
X15619D01*
X15639D01*
X15648D01*
X15652D01*
X15793Y103833D01*
D02*
G37*
G36*
X15710Y100040D02*
X17079Y101038D01*
Y100622D01*
X16313Y100048D01*
X16251Y99998D01*
X16193Y99956D01*
X16134Y99915D01*
X16089Y99881D01*
X16047Y99852D01*
X16014Y99831D01*
X15997Y99819D01*
X15989Y99815D01*
X16039Y99786D01*
X16093Y99752D01*
X16151Y99715D01*
X16209Y99678D01*
X16259Y99640D01*
X16301Y99615D01*
X16317Y99603D01*
X16330Y99594D01*
X16334Y99586D01*
X16338D01*
X17079Y99062D01*
Y98608D01*
X15689Y99590D01*
X14200Y98479D01*
Y98937D01*
X15198Y99665D01*
X15223Y99682D01*
X15252Y99703D01*
X15319Y99748D01*
X15352Y99769D01*
X15377Y99786D01*
X15394Y99798D01*
X15398Y99802D01*
X15336Y99844D01*
X15277Y99881D01*
X15257Y99898D01*
X15240Y99906D01*
X15227Y99915D01*
X15223Y99919D01*
X14200Y100647D01*
Y101117D01*
X15710Y100040D01*
D02*
G37*
G36*
X17079Y96100D02*
X16738D01*
Y97048D01*
X14200D01*
Y97431D01*
X16738D01*
Y98380D01*
X17079D01*
Y96100D01*
D02*
G37*
G36*
X15843Y126007D02*
X15972Y125995D01*
X16089Y125974D01*
X16143Y125966D01*
X16188Y125953D01*
X16234Y125941D01*
X16272Y125932D01*
X16305Y125924D01*
X16334Y125911D01*
X16359Y125907D01*
X16376Y125899D01*
X16384Y125895D01*
X16388D01*
X16496Y125849D01*
X16592Y125795D01*
X16675Y125737D01*
X16746Y125683D01*
X16804Y125633D01*
X16846Y125591D01*
X16858Y125575D01*
X16871Y125562D01*
X16875Y125558D01*
X16879Y125554D01*
X16933Y125487D01*
X16975Y125417D01*
X17012Y125346D01*
X17041Y125279D01*
X17062Y125221D01*
X17075Y125175D01*
X17083Y125159D01*
Y125146D01*
X17087Y125138D01*
Y125134D01*
X17099Y125063D01*
X17112Y124980D01*
X17120Y124897D01*
X17124Y124813D01*
X17129Y124738D01*
Y123632D01*
X14250D01*
Y124668D01*
X14254Y124763D01*
X14258Y124851D01*
X14267Y124930D01*
X14275Y124996D01*
X14283Y125055D01*
X14287Y125096D01*
X14291Y125109D01*
X14296Y125121D01*
Y125129D01*
X14317Y125204D01*
X14342Y125271D01*
X14362Y125329D01*
X14387Y125379D01*
X14408Y125421D01*
X14425Y125450D01*
X14437Y125466D01*
X14441Y125475D01*
X14479Y125529D01*
X14525Y125575D01*
X14566Y125620D01*
X14608Y125658D01*
X14645Y125691D01*
X14674Y125716D01*
X14695Y125733D01*
X14703Y125737D01*
X14770Y125778D01*
X14841Y125820D01*
X14907Y125853D01*
X14974Y125878D01*
X15032Y125903D01*
X15078Y125920D01*
X15094Y125924D01*
X15107Y125928D01*
X15115Y125932D01*
X15119D01*
X15219Y125957D01*
X15319Y125978D01*
X15415Y125991D01*
X15506Y126003D01*
X15585Y126007D01*
X15619D01*
X15648Y126011D01*
X15668D01*
X15689D01*
X15698D01*
X15702D01*
X15843Y126007D01*
D02*
G37*
G36*
X17129Y122625D02*
X14866D01*
X17129Y121115D01*
Y120724D01*
X14250D01*
Y121090D01*
X16509D01*
X14250Y122596D01*
Y122991D01*
X17129D01*
Y122625D01*
D02*
G37*
G36*
X15718Y118944D02*
X15377D01*
Y119792D01*
X14837D01*
X14795Y119742D01*
X14758Y119684D01*
X14724Y119622D01*
X14695Y119563D01*
X14670Y119513D01*
X14649Y119468D01*
X14641Y119451D01*
X14637Y119443D01*
X14633Y119434D01*
Y119430D01*
X14604Y119343D01*
X14579Y119255D01*
X14562Y119176D01*
X14554Y119102D01*
X14545Y119039D01*
Y119014D01*
X14541Y118989D01*
Y118948D01*
X14545Y118844D01*
X14562Y118744D01*
X14583Y118652D01*
X14604Y118569D01*
X14628Y118502D01*
X14637Y118473D01*
X14645Y118453D01*
X14653Y118432D01*
X14662Y118419D01*
X14666Y118411D01*
Y118407D01*
X14720Y118319D01*
X14778Y118240D01*
X14841Y118174D01*
X14903Y118120D01*
X14961Y118074D01*
X15007Y118045D01*
X15024Y118033D01*
X15036Y118028D01*
X15044Y118020D01*
X15049D01*
X15153Y117978D01*
X15261Y117945D01*
X15369Y117924D01*
X15473Y117908D01*
X15519Y117903D01*
X15560Y117899D01*
X15602Y117895D01*
X15635D01*
X15660Y117891D01*
X15681D01*
X15694D01*
X15698D01*
X15814Y117895D01*
X15918Y117908D01*
X16018Y117924D01*
X16105Y117945D01*
X16143Y117953D01*
X16176Y117966D01*
X16205Y117974D01*
X16230Y117982D01*
X16251Y117991D01*
X16263Y117995D01*
X16272Y117999D01*
X16276D01*
X16334Y118028D01*
X16388Y118057D01*
X16438Y118087D01*
X16480Y118116D01*
X16513Y118141D01*
X16542Y118161D01*
X16559Y118178D01*
X16563Y118182D01*
X16609Y118228D01*
X16650Y118278D01*
X16683Y118332D01*
X16717Y118382D01*
X16738Y118423D01*
X16758Y118457D01*
X16767Y118482D01*
X16771Y118490D01*
X16800Y118565D01*
X16821Y118640D01*
X16833Y118719D01*
X16846Y118790D01*
X16850Y118852D01*
Y118877D01*
X16854Y118898D01*
Y118944D01*
X16850Y119023D01*
X16842Y119097D01*
X16829Y119164D01*
X16817Y119222D01*
X16800Y119272D01*
X16788Y119310D01*
X16779Y119330D01*
X16775Y119339D01*
X16746Y119401D01*
X16713Y119455D01*
X16679Y119505D01*
X16646Y119543D01*
X16617Y119572D01*
X16596Y119597D01*
X16579Y119609D01*
X16575Y119613D01*
X16525Y119651D01*
X16467Y119680D01*
X16413Y119709D01*
X16355Y119734D01*
X16305Y119750D01*
X16267Y119763D01*
X16251Y119767D01*
X16238Y119771D01*
X16234Y119775D01*
X16230D01*
X16322Y120121D01*
X16426Y120092D01*
X16517Y120054D01*
X16600Y120017D01*
X16667Y119983D01*
X16721Y119950D01*
X16758Y119925D01*
X16783Y119909D01*
X16792Y119900D01*
X16858Y119842D01*
X16912Y119780D01*
X16962Y119713D01*
X17004Y119651D01*
X17033Y119592D01*
X17058Y119547D01*
X17066Y119530D01*
X17070Y119518D01*
X17075Y119509D01*
Y119505D01*
X17108Y119409D01*
X17133Y119310D01*
X17154Y119218D01*
X17166Y119131D01*
X17174Y119052D01*
Y119018D01*
X17179Y118993D01*
Y118860D01*
X17170Y118785D01*
X17149Y118640D01*
X17137Y118573D01*
X17120Y118511D01*
X17108Y118453D01*
X17091Y118399D01*
X17075Y118349D01*
X17058Y118307D01*
X17041Y118270D01*
X17029Y118236D01*
X17016Y118211D01*
X17008Y118195D01*
X17004Y118182D01*
X17000Y118178D01*
X16962Y118120D01*
X16925Y118062D01*
X16838Y117962D01*
X16750Y117874D01*
X16659Y117804D01*
X16579Y117745D01*
X16546Y117725D01*
X16513Y117708D01*
X16488Y117691D01*
X16471Y117683D01*
X16459Y117679D01*
X16455Y117675D01*
X16317Y117616D01*
X16180Y117575D01*
X16047Y117542D01*
X15985Y117533D01*
X15926Y117521D01*
X15872Y117517D01*
X15827Y117508D01*
X15781Y117504D01*
X15743D01*
X15714Y117500D01*
X15694D01*
X15677D01*
X15673D01*
X15519Y117508D01*
X15373Y117529D01*
X15307Y117542D01*
X15244Y117554D01*
X15182Y117571D01*
X15128Y117587D01*
X15078Y117604D01*
X15036Y117621D01*
X14995Y117633D01*
X14965Y117646D01*
X14936Y117658D01*
X14920Y117666D01*
X14907Y117675D01*
X14903D01*
X14782Y117750D01*
X14678Y117833D01*
X14587Y117920D01*
X14512Y118003D01*
X14454Y118082D01*
X14433Y118112D01*
X14412Y118141D01*
X14400Y118166D01*
X14387Y118182D01*
X14383Y118195D01*
X14379Y118199D01*
X14346Y118265D01*
X14321Y118332D01*
X14275Y118465D01*
X14246Y118594D01*
X14221Y118715D01*
X14217Y118769D01*
X14208Y118819D01*
X14204Y118865D01*
Y118902D01*
X14200Y118931D01*
Y118973D01*
X14204Y119089D01*
X14217Y119201D01*
X14238Y119305D01*
X14258Y119397D01*
X14267Y119434D01*
X14275Y119472D01*
X14287Y119505D01*
X14296Y119534D01*
X14304Y119555D01*
X14308Y119572D01*
X14312Y119580D01*
Y119584D01*
X14358Y119696D01*
X14412Y119800D01*
X14470Y119900D01*
X14525Y119988D01*
X14549Y120025D01*
X14574Y120063D01*
X14595Y120092D01*
X14612Y120117D01*
X14628Y120137D01*
X14641Y120154D01*
X14645Y120162D01*
X14649Y120167D01*
X15718D01*
Y118944D01*
D02*
G37*
%LPC*%
G36*
X15702Y92971D02*
X15681D01*
X15664D01*
X15660D01*
X15544Y92967D01*
X15436Y92959D01*
X15340Y92946D01*
X15257Y92934D01*
X15223Y92925D01*
X15194Y92917D01*
X15165Y92909D01*
X15144Y92905D01*
X15128Y92901D01*
X15115Y92896D01*
X15107Y92892D01*
X15103D01*
X15024Y92863D01*
X14953Y92830D01*
X14891Y92792D01*
X14837Y92759D01*
X14795Y92730D01*
X14766Y92705D01*
X14749Y92688D01*
X14741Y92684D01*
X14707Y92643D01*
X14678Y92601D01*
X14653Y92559D01*
X14628Y92518D01*
X14612Y92480D01*
X14599Y92451D01*
X14595Y92430D01*
X14591Y92422D01*
X14574Y92360D01*
X14562Y92285D01*
X14554Y92210D01*
X14549Y92139D01*
X14545Y92077D01*
X14541Y92048D01*
Y91365D01*
X16738D01*
Y92031D01*
X16733Y92085D01*
Y92139D01*
X16729Y92189D01*
X16717Y92272D01*
X16709Y92339D01*
X16696Y92393D01*
X16683Y92430D01*
X16679Y92451D01*
X16675Y92459D01*
X16638Y92534D01*
X16592Y92605D01*
X16538Y92668D01*
X16484Y92722D01*
X16434Y92763D01*
X16392Y92796D01*
X16376Y92805D01*
X16363Y92813D01*
X16355Y92821D01*
X16351D01*
X16305Y92846D01*
X16251Y92871D01*
X16143Y92909D01*
X16026Y92934D01*
X15914Y92954D01*
X15864Y92959D01*
X15814Y92963D01*
X15773Y92967D01*
X15735D01*
X15702Y92971D01*
D02*
G37*
G36*
X16297Y87309D02*
X16293D01*
X16288D01*
X16238Y87305D01*
X16188Y87297D01*
X16147Y87284D01*
X16109Y87272D01*
X16076Y87255D01*
X16051Y87243D01*
X16035Y87235D01*
X16030Y87230D01*
X15989Y87201D01*
X15951Y87164D01*
X15922Y87126D01*
X15897Y87089D01*
X15881Y87056D01*
X15868Y87031D01*
X15860Y87014D01*
X15856Y87006D01*
X15839Y86948D01*
X15827Y86881D01*
X15818Y86814D01*
X15814Y86748D01*
X15810Y86690D01*
X15806Y86640D01*
Y85783D01*
X16758D01*
Y86690D01*
X16754Y86802D01*
X16738Y86898D01*
X16717Y86981D01*
X16692Y87043D01*
X16667Y87097D01*
X16646Y87131D01*
X16629Y87151D01*
X16625Y87160D01*
X16571Y87210D01*
X16517Y87247D01*
X16459Y87272D01*
X16409Y87293D01*
X16359Y87301D01*
X16322Y87305D01*
X16297Y87309D01*
D02*
G37*
G36*
X15702Y103447D02*
X15681D01*
X15664D01*
X15660D01*
X15544Y103442D01*
X15436Y103434D01*
X15340Y103422D01*
X15257Y103409D01*
X15223Y103401D01*
X15194Y103393D01*
X15165Y103384D01*
X15144Y103380D01*
X15128Y103376D01*
X15115Y103372D01*
X15107Y103367D01*
X15103D01*
X15024Y103338D01*
X14953Y103305D01*
X14891Y103268D01*
X14837Y103234D01*
X14795Y103205D01*
X14766Y103180D01*
X14749Y103164D01*
X14741Y103159D01*
X14707Y103118D01*
X14678Y103076D01*
X14653Y103035D01*
X14628Y102993D01*
X14612Y102956D01*
X14599Y102927D01*
X14595Y102906D01*
X14591Y102897D01*
X14574Y102835D01*
X14562Y102760D01*
X14554Y102685D01*
X14549Y102615D01*
X14545Y102552D01*
X14541Y102523D01*
Y101841D01*
X16738D01*
Y102506D01*
X16733Y102560D01*
Y102615D01*
X16729Y102664D01*
X16717Y102748D01*
X16709Y102814D01*
X16696Y102868D01*
X16683Y102906D01*
X16679Y102927D01*
X16675Y102935D01*
X16638Y103010D01*
X16592Y103080D01*
X16538Y103143D01*
X16484Y103197D01*
X16434Y103239D01*
X16392Y103272D01*
X16376Y103280D01*
X16363Y103288D01*
X16355Y103297D01*
X16351D01*
X16305Y103322D01*
X16251Y103347D01*
X16143Y103384D01*
X16026Y103409D01*
X15914Y103430D01*
X15864Y103434D01*
X15814Y103438D01*
X15773Y103442D01*
X15735D01*
X15702Y103447D01*
D02*
G37*
G36*
X15752Y125620D02*
X15731D01*
X15714D01*
X15710D01*
X15594Y125616D01*
X15485Y125608D01*
X15390Y125595D01*
X15307Y125583D01*
X15273Y125575D01*
X15244Y125566D01*
X15215Y125558D01*
X15194Y125554D01*
X15178Y125550D01*
X15165Y125545D01*
X15157Y125541D01*
X15153D01*
X15074Y125512D01*
X15003Y125479D01*
X14941Y125441D01*
X14886Y125408D01*
X14845Y125379D01*
X14816Y125354D01*
X14799Y125337D01*
X14791Y125333D01*
X14758Y125292D01*
X14728Y125250D01*
X14703Y125208D01*
X14678Y125167D01*
X14662Y125129D01*
X14649Y125100D01*
X14645Y125080D01*
X14641Y125071D01*
X14624Y125009D01*
X14612Y124934D01*
X14604Y124859D01*
X14599Y124788D01*
X14595Y124726D01*
X14591Y124697D01*
Y124015D01*
X16788D01*
Y124680D01*
X16783Y124734D01*
Y124788D01*
X16779Y124838D01*
X16767Y124921D01*
X16758Y124988D01*
X16746Y125042D01*
X16733Y125080D01*
X16729Y125100D01*
X16725Y125109D01*
X16688Y125183D01*
X16642Y125254D01*
X16588Y125317D01*
X16534Y125371D01*
X16484Y125412D01*
X16442Y125446D01*
X16426Y125454D01*
X16413Y125462D01*
X16405Y125471D01*
X16401D01*
X16355Y125496D01*
X16301Y125521D01*
X16193Y125558D01*
X16076Y125583D01*
X15964Y125604D01*
X15914Y125608D01*
X15864Y125612D01*
X15822Y125616D01*
X15785D01*
X15752Y125620D01*
D02*
G37*
%LPD*%
M02*
