G04*
G04 #@! TF.GenerationSoftware,Altium Limited,Altium Designer,20.1.10 (176)*
G04*
G04 Layer_Color=128*
%FSLAX25Y25*%
%MOIN*%
G70*
G04*
G04 #@! TF.SameCoordinates,9A9D7432-CD8F-4107-B707-C6FC87A0877D*
G04*
G04*
G04 #@! TF.FilePolarity,Positive*
G04*
G01*
G75*
%ADD10C,0.01000*%
%ADD11C,0.00200*%
D10*
X282300Y189600D02*
G03*
X262600Y210500I-20300J600D01*
G01*
Y-0D02*
G03*
X282300Y22800I-1550J21250D01*
G01*
X0Y21100D02*
G03*
X19600Y0I20350J-750D01*
G01*
X19700Y210500D02*
G03*
X0Y189200I800J-20500D01*
G01*
X282300Y189600D02*
X282300Y22800D01*
X19700Y210500D02*
X262600D01*
X19600Y-0D02*
X262600D01*
X-0Y21100D02*
X-0Y189200D01*
D11*
X20361Y78492D02*
X24652D01*
X22506Y76346D02*
Y80638D01*
X31543Y83945D02*
X35834D01*
X33688Y81800D02*
Y86091D01*
X20361Y89397D02*
X24652D01*
X22506Y87252D02*
Y91543D01*
X31543Y94850D02*
X35834D01*
X33688Y92704D02*
Y96996D01*
X20361Y100303D02*
X24652D01*
X22506Y98158D02*
Y102449D01*
X31543Y105756D02*
X35834D01*
X33688Y103611D02*
Y107902D01*
X20361Y111209D02*
X24652D01*
X22506Y109063D02*
Y113355D01*
X31543Y116661D02*
X35834D01*
X33688Y114515D02*
Y118807D01*
X20361Y122114D02*
X24652D01*
X22506Y119968D02*
Y124260D01*
X21597Y149496D02*
X34597D01*
X28097Y142996D02*
Y155996D01*
X21597Y51110D02*
X34597D01*
X28097Y44610D02*
Y57610D01*
X232670Y78956D02*
X241725D01*
X237197Y74429D02*
Y83484D01*
X232670Y130696D02*
X241725D01*
X237197Y126169D02*
Y135224D01*
X224686Y91076D02*
X228308D01*
X226497Y89265D02*
Y92887D01*
X224686Y118636D02*
X228308D01*
X226497Y116825D02*
Y120447D01*
X224686Y100916D02*
X228308D01*
X226497Y99105D02*
Y102727D01*
X224686Y108796D02*
X228308D01*
X226497Y106985D02*
Y110607D01*
X254007Y20500D02*
X267393D01*
X260700Y13807D02*
Y27193D01*
X13507Y20500D02*
X26893D01*
X20200Y13807D02*
Y27193D01*
X254007Y190800D02*
X267393D01*
X260700Y184107D02*
Y197493D01*
X13507Y190800D02*
X26893D01*
X20200Y184107D02*
Y197493D01*
X132297Y47896D02*
X133497D01*
X132897Y47296D02*
Y48496D01*
X140097Y47896D02*
X141297D01*
X140697Y47296D02*
Y48496D01*
X107897Y47896D02*
X109097D01*
X108497Y47296D02*
Y48496D01*
X116497Y47896D02*
X117697D01*
X117097Y47296D02*
Y48496D01*
X151597Y47896D02*
X152797D01*
X152197Y47296D02*
Y48496D01*
X145397Y47896D02*
X146597D01*
X145997Y47296D02*
Y48496D01*
X124397Y47896D02*
X125597D01*
X124997Y47296D02*
Y48496D01*
X164197Y52196D02*
X165397D01*
X164797Y51596D02*
Y52796D01*
X107897Y55896D02*
X109097D01*
X108497Y55296D02*
Y56496D01*
X145397Y55896D02*
X146597D01*
X145997Y55296D02*
Y56496D01*
X151597Y60396D02*
X152797D01*
X152197Y59796D02*
Y60996D01*
X183297Y68696D02*
X184497D01*
X183897Y68096D02*
Y69296D01*
X107897Y70196D02*
X109097D01*
X108497Y69596D02*
Y70796D01*
X61097Y72096D02*
X62297D01*
X61697Y71496D02*
Y72696D01*
X66897Y72096D02*
X68097D01*
X67497Y71496D02*
Y72696D01*
X144097Y76096D02*
X145297D01*
X144697Y75496D02*
Y76696D01*
X140097Y76196D02*
X141297D01*
X140697Y75596D02*
Y76796D01*
X132597Y76196D02*
X133797D01*
X133197Y75596D02*
Y76796D01*
X189697Y76196D02*
X190897D01*
X190297Y75596D02*
Y76796D01*
X125797Y76196D02*
X126997D01*
X126397Y75596D02*
Y76796D01*
X116497Y76196D02*
X117697D01*
X117097Y75596D02*
Y76796D01*
X60897Y80296D02*
X62097D01*
X61497Y79696D02*
Y80896D01*
X116497Y80996D02*
X117697D01*
X117097Y80396D02*
Y81596D01*
X140097Y80996D02*
X141297D01*
X140697Y80396D02*
Y81596D01*
X189697Y84196D02*
X190897D01*
X190297Y83596D02*
Y84796D01*
X148097Y84596D02*
X149297D01*
X148697Y83996D02*
Y85196D01*
X133097Y91596D02*
X134297D01*
X133697Y90996D02*
Y92196D01*
X189697Y92596D02*
X190897D01*
X190297Y91996D02*
Y93196D01*
X148247Y95246D02*
X149447D01*
X148847Y94646D02*
Y95846D01*
X127897Y96496D02*
X129097D01*
X128497Y95896D02*
Y97096D01*
X107797Y97996D02*
X108997D01*
X108397Y97396D02*
Y98596D01*
X102097Y100296D02*
X103297D01*
X102697Y99696D02*
Y100896D01*
X116497Y100296D02*
X117697D01*
X117097Y99696D02*
Y100896D01*
X148097Y100396D02*
X149297D01*
X148697Y99796D02*
Y100996D01*
X215497Y104696D02*
X216697D01*
X216097Y104096D02*
Y105296D01*
X168497Y108496D02*
X169697D01*
X169097Y107896D02*
Y109096D01*
X191297Y108596D02*
X192497D01*
X191897Y107996D02*
Y109196D01*
X116497D02*
X117697D01*
X117097Y108596D02*
Y109796D01*
X148097Y109196D02*
X149297D01*
X148697Y108596D02*
Y109796D01*
X196330Y113180D02*
X197530D01*
X196930Y112580D02*
Y113780D01*
X208297Y113180D02*
X209497D01*
X208897Y112580D02*
Y113780D01*
X134997Y116996D02*
X136197D01*
X135597Y116396D02*
Y117596D01*
X148097Y116996D02*
X149297D01*
X148697Y116396D02*
Y117596D01*
X125997Y116996D02*
X127197D01*
X126597Y116396D02*
Y117596D01*
X116497Y116996D02*
X117697D01*
X117097Y116396D02*
Y117596D01*
X78697Y123796D02*
X79897D01*
X79297Y123196D02*
Y124396D01*
X66897Y123796D02*
X68097D01*
X67497Y123196D02*
Y124396D01*
X215497Y129096D02*
X216697D01*
X216097Y128496D02*
Y129696D01*
X116497Y130796D02*
X117697D01*
X117097Y130196D02*
Y131396D01*
X215497Y135096D02*
X216697D01*
X216097Y134496D02*
Y135696D01*
X125997Y138596D02*
X127197D01*
X126597Y137996D02*
Y139196D01*
X125997Y148796D02*
X127197D01*
X126597Y148196D02*
Y149396D01*
X57897Y107696D02*
X59097D01*
X58497Y107096D02*
Y108296D01*
M02*
