G04*
G04 #@! TF.GenerationSoftware,Altium Limited,Altium Designer,20.1.10 (176)*
G04*
G04 Layer_Color=65535*
%FSLAX25Y25*%
%MOIN*%
G70*
G04*
G04 #@! TF.SameCoordinates,3FE8EB72-B5E6-4F20-A0E2-AFB057232DD4*
G04*
G04*
G04 #@! TF.FilePolarity,Positive*
G04*
G01*
G75*
%ADD10C,0.01000*%
%ADD11C,0.00787*%
%ADD12C,0.00500*%
%ADD13C,0.00394*%
%ADD14C,0.00800*%
D10*
X40486Y74294D02*
G03*
X43486Y78294I-1014J3885D01*
G01*
Y122294D02*
G03*
X40486Y126294I-4014J115D01*
G01*
X17486Y130294D02*
G03*
X13486Y126294I930J-4930D01*
G01*
Y73294D02*
G03*
X17486Y70294I3885J1014D01*
G01*
X13486Y73294D02*
Y126294D01*
X17487Y130293D02*
X40486Y126294D01*
X43486Y78294D02*
Y122294D01*
X17487Y70293D02*
X40486Y74294D01*
X141488Y60097D02*
Y63640D01*
X115307Y60097D02*
X141488D01*
X115307D02*
Y63640D01*
Y69152D02*
Y72695D01*
X141488D01*
Y69152D02*
Y72695D01*
X115307Y63640D02*
Y69152D01*
X141488Y63640D02*
Y69152D01*
X242897Y100392D02*
X243097Y101592D01*
X242897Y100392D02*
X260997Y97292D01*
Y93592D02*
Y97292D01*
X243026Y91011D02*
X260997Y93592D01*
X243026Y91011D02*
X243127Y89707D01*
X262997Y91992D01*
Y99292D01*
X243097Y101592D02*
X262997Y99292D01*
X246697Y91392D02*
Y99592D01*
X253597Y92692D02*
Y98392D01*
X253397Y110292D02*
Y115992D01*
X246497Y108992D02*
Y117192D01*
X242897Y119192D02*
X262797Y116892D01*
Y109592D02*
Y116892D01*
X242927Y107307D02*
X262797Y109592D01*
X242826Y108611D02*
X242927Y107307D01*
X242826Y108611D02*
X260797Y111192D01*
Y114892D01*
X242697Y117992D02*
X260797Y114892D01*
X242697Y117992D02*
X242897Y119192D01*
X277897Y76292D02*
Y133379D01*
X222530Y76292D02*
X277897D01*
X222530D02*
Y133392D01*
X277648D01*
X192135Y123458D02*
X193852Y125041D01*
X192135Y118734D02*
X193852Y117151D01*
X192135Y118734D02*
Y123458D01*
X193852Y117151D02*
X201478D01*
X206202D02*
X213828D01*
X206202Y125041D02*
X213828D01*
X193852D02*
X201478D01*
X213828Y117151D02*
Y125041D01*
X193852Y117151D02*
Y125041D01*
X3047Y164353D02*
Y170351D01*
X6046D01*
X7046Y169352D01*
Y167352D01*
X6046Y166352D01*
X3047D01*
X13044Y164353D02*
X9045D01*
X13044Y168352D01*
Y169352D01*
X12044Y170351D01*
X10045D01*
X9045Y169352D01*
X105270Y66895D02*
Y65896D01*
X107269Y63896D01*
X109268Y65896D01*
Y66895D01*
X107269Y63896D02*
Y60897D01*
X111268D02*
X113267D01*
X112267D01*
Y66895D01*
X111268Y65896D01*
X73647Y117044D02*
Y112046D01*
X74647Y111046D01*
X76646D01*
X77646Y112046D01*
Y117044D01*
X82644Y111046D02*
Y117044D01*
X79645Y114045D01*
X83644D01*
X153447Y117044D02*
Y112046D01*
X154447Y111046D01*
X156446D01*
X157446Y112046D01*
Y117044D01*
X163444Y111046D02*
X159445D01*
X163444Y115045D01*
Y116045D01*
X162444Y117044D01*
X160445D01*
X159445Y116045D01*
X223047Y140426D02*
Y146424D01*
X226046D01*
X227046Y145425D01*
Y143425D01*
X226046Y142426D01*
X223047D01*
X229045Y140426D02*
X231045D01*
X230045D01*
Y146424D01*
X229045Y145425D01*
X113298Y87696D02*
X112298Y88695D01*
X110299D01*
X109299Y87696D01*
Y83697D01*
X110299Y82697D01*
X112298D01*
X113298Y83697D01*
X115297Y88695D02*
X119296D01*
Y87696D01*
X115297Y83697D01*
Y82697D01*
X199199Y93695D02*
Y88697D01*
X200199Y87697D01*
X202198D01*
X203198Y88697D01*
Y93695D01*
X205197Y92696D02*
X206197Y93695D01*
X208196D01*
X209196Y92696D01*
Y91696D01*
X208196Y90696D01*
X207196D01*
X208196D01*
X209196Y89697D01*
Y88697D01*
X208196Y87697D01*
X206197D01*
X205197Y88697D01*
X114098Y107880D02*
X113098Y108880D01*
X111099D01*
X110099Y107880D01*
Y103882D01*
X111099Y102882D01*
X113098D01*
X114098Y103882D01*
X120096Y108880D02*
X118096Y107880D01*
X116097Y105881D01*
Y103882D01*
X117097Y102882D01*
X119096D01*
X120096Y103882D01*
Y104881D01*
X119096Y105881D01*
X116097D01*
X181698Y124196D02*
X180698Y125195D01*
X178699D01*
X177699Y124196D01*
Y120197D01*
X178699Y119197D01*
X180698D01*
X181698Y120197D01*
X183697Y124196D02*
X184697Y125195D01*
X186696D01*
X187696Y124196D01*
Y123196D01*
X186696Y122196D01*
X185696D01*
X186696D01*
X187696Y121196D01*
Y120197D01*
X186696Y119197D01*
X184697D01*
X183697Y120197D01*
X75896Y141595D02*
X74896Y142594D01*
X72897D01*
X71897Y141595D01*
Y137596D01*
X72897Y136596D01*
X74896D01*
X75896Y137596D01*
X77895Y136596D02*
X79895D01*
X78895D01*
Y142594D01*
X77895Y141595D01*
X86892Y136596D02*
X82894D01*
X86892Y140595D01*
Y141595D01*
X85893Y142594D01*
X83894D01*
X82894Y141595D01*
X128646Y141845D02*
X127646Y142844D01*
X125647D01*
X124647Y141845D01*
Y137846D01*
X125647Y136846D01*
X127646D01*
X128646Y137846D01*
X133644Y136846D02*
Y142844D01*
X130645Y139845D01*
X134644D01*
X101796Y141795D02*
X100796Y142794D01*
X98797D01*
X97797Y141795D01*
Y137796D01*
X98797Y136796D01*
X100796D01*
X101796Y137796D01*
X103795Y136796D02*
X105795D01*
X104795D01*
Y142794D01*
X103795Y141795D01*
X108794Y136796D02*
X110793D01*
X109793D01*
Y142794D01*
X108794Y141795D01*
X181998Y136796D02*
X180998Y137795D01*
X178999D01*
X177999Y136796D01*
Y132797D01*
X178999Y131797D01*
X180998D01*
X181998Y132797D01*
X187996Y137795D02*
X183997D01*
Y134796D01*
X185996Y135796D01*
X186996D01*
X187996Y134796D01*
Y132797D01*
X186996Y131797D01*
X184997D01*
X183997Y132797D01*
X241497Y146394D02*
Y141396D01*
X242497Y140396D01*
X244496D01*
X245496Y141396D01*
Y146394D01*
X251494Y145395D02*
X250495Y146394D01*
X248495D01*
X247495Y145395D01*
Y144395D01*
X248495Y143395D01*
X250495D01*
X251494Y142396D01*
Y141396D01*
X250495Y140396D01*
X248495D01*
X247495Y141396D01*
X253493Y146394D02*
Y140396D01*
X256492D01*
X257492Y141396D01*
Y142396D01*
X256492Y143395D01*
X253493D01*
X256492D01*
X257492Y144395D01*
Y145395D01*
X256492Y146394D01*
X253493D01*
X102446Y168545D02*
X101446Y169544D01*
X99447D01*
X98447Y168545D01*
Y164546D01*
X99447Y163546D01*
X101446D01*
X102446Y164546D01*
X104445Y168545D02*
X105445Y169544D01*
X107445D01*
X108444Y168545D01*
Y167545D01*
X107445Y166545D01*
X108444Y165546D01*
Y164546D01*
X107445Y163546D01*
X105445D01*
X104445Y164546D01*
Y165546D01*
X105445Y166545D01*
X104445Y167545D01*
Y168545D01*
X105445Y166545D02*
X107445D01*
X74796Y168495D02*
X73796Y169494D01*
X71797D01*
X70797Y168495D01*
Y164496D01*
X71797Y163496D01*
X73796D01*
X74796Y164496D01*
X76795Y163496D02*
X78795D01*
X77795D01*
Y169494D01*
X76795Y168495D01*
X81794D02*
X82793Y169494D01*
X84793D01*
X85792Y168495D01*
Y164496D01*
X84793Y163496D01*
X82793D01*
X81794Y164496D01*
Y168495D01*
X128646Y168545D02*
X127646Y169544D01*
X125647D01*
X124647Y168545D01*
Y164546D01*
X125647Y163546D01*
X127646D01*
X128646Y164546D01*
X130645D02*
X131645Y163546D01*
X133644D01*
X134644Y164546D01*
Y168545D01*
X133644Y169544D01*
X131645D01*
X130645Y168545D01*
Y167545D01*
X131645Y166545D01*
X134644D01*
X234302Y32099D02*
Y26101D01*
Y29100D01*
X238300D01*
Y32099D01*
Y26101D01*
X244298D02*
X240300D01*
X244298Y30100D01*
Y31099D01*
X243299Y32099D01*
X241299D01*
X240300Y31099D01*
X36188Y32099D02*
Y26101D01*
Y29100D01*
X40187D01*
Y32099D01*
Y26101D01*
X42186D02*
X44185D01*
X43186D01*
Y32099D01*
X42186Y31099D01*
X234802Y204099D02*
Y198101D01*
Y201100D01*
X238800D01*
Y204099D01*
Y198101D01*
X243799D02*
Y204099D01*
X240800Y201100D01*
X244798D01*
X36188Y203599D02*
Y197601D01*
Y200600D01*
X40187D01*
Y203599D01*
Y197601D01*
X42186Y202599D02*
X43186Y203599D01*
X45185D01*
X46185Y202599D01*
Y201600D01*
X45185Y200600D01*
X44185D01*
X45185D01*
X46185Y199600D01*
Y198601D01*
X45185Y197601D01*
X43186D01*
X42186Y198601D01*
X23496Y169352D02*
X22496Y170351D01*
X20497D01*
X19497Y169352D01*
Y165353D01*
X20497Y164353D01*
X22496D01*
X23496Y165353D01*
Y167352D01*
X21497D01*
X25495Y170351D02*
Y164353D01*
X28495D01*
X29494Y165353D01*
Y166352D01*
X28495Y167352D01*
X25495D01*
X28495D01*
X29494Y168352D01*
Y169352D01*
X28495Y170351D01*
X25495D01*
X31493Y165353D02*
X32493Y164353D01*
X34492D01*
X35492Y165353D01*
Y169352D01*
X34492Y170351D01*
X32493D01*
X31493Y169352D01*
Y168352D01*
X32493Y167352D01*
X35492D01*
D11*
X84393Y107696D02*
G03*
X86893Y107696I1250J0D01*
G01*
X164193D02*
G03*
X166693Y107696I1250J0D01*
G01*
X207579Y97810D02*
G03*
X207579Y97810I-1245J0D01*
G01*
X16680Y160933D02*
X54486D01*
Y39673D02*
Y160933D01*
X2486Y39673D02*
X54486D01*
X2486D02*
Y160933D01*
X16680D01*
X82237Y107696D02*
X84393D01*
X86893D02*
X89049D01*
Y67696D02*
Y107696D01*
X82237Y67696D02*
X89049D01*
X82237D02*
Y107696D01*
X162038D02*
X164193D01*
X166693D02*
X168849D01*
Y67696D02*
Y107696D01*
X162038Y67696D02*
X168849D01*
X162038D02*
Y107696D01*
X198460Y98991D02*
X206728D01*
X198460Y110802D02*
X206728D01*
D12*
X134588Y84249D02*
G03*
X134588Y89144I-2282J2447D01*
G01*
X124512D02*
G03*
X124512Y84249I2282J-2447D01*
G01*
X134488Y102833D02*
G03*
X134488Y107728I-2282J2447D01*
G01*
X124412D02*
G03*
X124412Y102833I2282J-2447D01*
G01*
X72206Y133244D02*
G03*
X72206Y128349I2282J-2447D01*
G01*
X82283D02*
G03*
X82283Y133244I-2282J2447D01*
G01*
X134988Y128549D02*
G03*
X134988Y133444I-2282J2447D01*
G01*
X124912D02*
G03*
X124912Y128549I2282J-2447D01*
G01*
X98106Y133444D02*
G03*
X98106Y128549I2282J-2447D01*
G01*
X108183D02*
G03*
X108183Y133444I-2282J2447D01*
G01*
X197306Y137244D02*
G03*
X197306Y132349I2282J-2447D01*
G01*
X207383D02*
G03*
X207383Y137244I-2282J2447D01*
G01*
X108788Y155249D02*
G03*
X108788Y160144I-2282J2447D01*
G01*
X98712D02*
G03*
X98712Y155249I2282J-2447D01*
G01*
X71106Y160144D02*
G03*
X71106Y155249I2282J-2447D01*
G01*
X81183D02*
G03*
X81183Y160144I-2282J2447D01*
G01*
X134988Y155249D02*
G03*
X134988Y160144I-2282J2447D01*
G01*
X124912D02*
G03*
X124912Y155249I2282J-2447D01*
G01*
X124629Y89255D02*
X128038D01*
X124629Y84137D02*
X127997D01*
X131057Y89255D02*
X134471D01*
X131097Y84137D02*
X134471D01*
X124529Y107840D02*
X127938D01*
X124529Y102722D02*
X127897D01*
X130957Y107840D02*
X134371D01*
X130997Y102722D02*
X134371D01*
X78757Y128237D02*
X82166D01*
X78797Y133355D02*
X82166D01*
X72323Y128237D02*
X75738D01*
X72323Y133355D02*
X75697D01*
X125029Y133555D02*
X128438D01*
X125029Y128437D02*
X128397D01*
X131457Y133555D02*
X134871D01*
X131497Y128437D02*
X134871D01*
X104657D02*
X108066D01*
X104697Y133555D02*
X108066D01*
X98223Y128437D02*
X101638D01*
X98223Y133555D02*
X101597D01*
X203857Y132237D02*
X207266D01*
X203897Y137355D02*
X207266D01*
X197423Y132237D02*
X200838D01*
X197423Y137355D02*
X200797D01*
X98829Y160255D02*
X102238D01*
X98829Y155137D02*
X102197D01*
X105257Y160255D02*
X108671D01*
X105297Y155137D02*
X108671D01*
X71223Y160255D02*
X74597D01*
X71223Y155137D02*
X74638D01*
X77697Y160255D02*
X81066D01*
X77657Y155137D02*
X81066D01*
X125029Y160255D02*
X128438D01*
X125029Y155137D02*
X128397D01*
X131457Y160255D02*
X134871D01*
X131497Y155137D02*
X134871D01*
D13*
X124785Y66433D02*
X125967D01*
X126360Y62496D02*
Y70764D01*
X129116Y62890D02*
Y70370D01*
X127542D02*
X129116D01*
X127542Y62890D02*
Y70370D01*
Y62890D02*
X129116D01*
X130297Y62496D02*
Y70764D01*
X130697Y66396D02*
X132097D01*
D14*
X19246Y133474D02*
Y131295D01*
X20880D01*
X20335Y132384D01*
Y132929D01*
X20880Y133474D01*
X21969D01*
X22514Y132929D01*
Y131840D01*
X21969Y131295D01*
X33241Y129294D02*
X33786Y129839D01*
Y130928D01*
X33241Y131473D01*
X31063D01*
X30518Y130928D01*
Y129839D01*
X31063Y129294D01*
X31607D01*
X32152Y129839D01*
Y131473D01*
X30245Y69474D02*
X30790Y68384D01*
X31879Y67295D01*
X32968D01*
X33513Y67840D01*
Y68929D01*
X32968Y69474D01*
X32423D01*
X31879Y68929D01*
Y67295D01*
X22515Y65294D02*
Y66383D01*
Y65839D01*
X19247D01*
X19792Y65294D01*
M02*
