G04*
G04 #@! TF.GenerationSoftware,Altium Limited,Altium Designer,20.1.10 (176)*
G04*
G04 Layer_Color=8388736*
%FSLAX25Y25*%
%MOIN*%
G70*
G04*
G04 #@! TF.SameCoordinates,3FE8EB72-B5E6-4F20-A0E2-AFB057232DD4*
G04*
G04*
G04 #@! TF.FilePolarity,Negative*
G04*
G01*
G75*
%ADD21R,0.08280X0.10249*%
%ADD22R,0.06706X0.02769*%
%ADD23O,0.06706X0.02769*%
%ADD24R,0.04000X0.03800*%
%ADD25R,0.04343X0.02375*%
%ADD26R,0.07887X0.06115*%
%ADD27C,0.07453*%
%ADD28C,0.19800*%
%ADD29C,0.13398*%
%ADD30C,0.06312*%
%ADD31C,0.30328*%
D21*
X136468Y66396D02*
D03*
X120326D02*
D03*
D22*
X75997Y105196D02*
D03*
X155797D02*
D03*
D23*
X75997Y100196D02*
D03*
Y95196D02*
D03*
Y90196D02*
D03*
Y85196D02*
D03*
Y80196D02*
D03*
Y75196D02*
D03*
Y70196D02*
D03*
X95289Y105196D02*
D03*
Y100196D02*
D03*
Y95196D02*
D03*
Y90196D02*
D03*
Y85196D02*
D03*
Y80196D02*
D03*
Y75196D02*
D03*
Y70196D02*
D03*
X155797Y100196D02*
D03*
Y95196D02*
D03*
Y90196D02*
D03*
Y85196D02*
D03*
Y80196D02*
D03*
Y75196D02*
D03*
Y70196D02*
D03*
X175089Y105196D02*
D03*
Y100196D02*
D03*
Y95196D02*
D03*
Y90196D02*
D03*
Y85196D02*
D03*
Y80196D02*
D03*
Y75196D02*
D03*
Y70196D02*
D03*
D24*
X126597Y86696D02*
D03*
X132497D02*
D03*
X126497Y105281D02*
D03*
X132397D02*
D03*
X80197Y130796D02*
D03*
X74297D02*
D03*
X126997Y130996D02*
D03*
X132897D02*
D03*
X106097D02*
D03*
X100197D02*
D03*
X205297Y134796D02*
D03*
X199397D02*
D03*
X100797Y157696D02*
D03*
X106697D02*
D03*
X73197D02*
D03*
X79097D02*
D03*
X126997D02*
D03*
X132897D02*
D03*
D25*
X196886Y101156D02*
D03*
X207909Y101156D02*
D03*
Y108636D02*
D03*
X196886Y108636D02*
D03*
Y104896D02*
D03*
X207909Y104896D02*
D03*
D26*
X198682Y121096D02*
D03*
X208997D02*
D03*
D27*
X22506Y78492D02*
D03*
X33688Y83945D02*
D03*
X22506Y89397D02*
D03*
X33688Y94850D02*
D03*
X22506Y100303D02*
D03*
X33688Y105756D02*
D03*
X22506Y111209D02*
D03*
X33688Y116661D02*
D03*
X22506Y122114D02*
D03*
D28*
X28097Y149496D02*
D03*
Y51110D02*
D03*
D29*
X237197Y78956D02*
D03*
Y130696D02*
D03*
D30*
X226497Y91076D02*
D03*
Y118636D02*
D03*
Y100916D02*
D03*
Y108796D02*
D03*
D31*
X260700Y20500D02*
D03*
X20200D02*
D03*
X260700Y190800D02*
D03*
X20200D02*
D03*
M02*
