M48
;Layer_Color=9474304
;FILE_FORMAT=2:5
INCH,TZ
;TYPE=PLATED
T1F00S00C0.01200
T2F00S00C0.03622
T3F00S00C0.04291
T4F00S00C0.09055
T5F00S00C0.13000
T6F00S00C0.13386
%
T01
X61697Y72096
X67497
X61497Y80296
X58497Y107696
X67497Y123796
X79297
X117097Y116996
Y109196
Y100296
X108397Y97996
X102697Y100296
X128497Y96496
X133697Y91596
X133197Y76196
X126397
X117097
Y80996
X108497Y70196
Y55896
Y47896
X117097
X124997
X132897
X140697
X145997
X152197
Y60396
X145997Y55896
X144697Y76096
X140697Y76196
Y80996
X148697Y84596
X148847Y95246
X148697Y100396
Y109196
Y116996
X135597
X126597
Y138596
Y148796
X117097Y130796
X169097Y108496
X164797Y52196
X183897Y68696
X190297Y76196
Y84196
Y92596
X191897Y108596
X196930Y113180
X208897
X216097Y104696
Y129096
Y135096
T02
X226497Y91076
Y100916
Y108796
Y118636
T03
X22506Y78492
Y89397
Y100303
Y111209
Y122114
X33688Y116661
Y105756
Y94850
Y83945
T04
X237197Y78956
Y130696
T05
X28097Y51110
Y149496
T06
X260700Y20500
X20200
X260700Y190800
X20200
M30
